<svg width="52" height="46" viewBox="0 0 52 46" fill="none" xmlns="http://www.w3.org/2000/svg">
<path d="M30.1076 18.0945C30.1076 16.109 28.6993 15.0129 26.2257 15.0129H21.6757V21.4098H25.5125C28.4736 21.4008 30.1076 20.2148 30.1076 18.0945ZM46.6736 16.9445C45.816 14.1684 45.6896 10.7633 45.7889 8.13086C45.8882 5.39062 43.7396 2.875 40.8507 2.875H11.1674C8.26946 2.875 6.12987 5.39961 6.22918 8.13086C6.31946 10.7633 6.2021 14.1684 5.34446 16.9445C4.47779 19.7297 3.02432 21.4906 0.631958 21.7152V24.2758C3.01529 24.5004 4.47779 26.2613 5.34446 29.0465C6.2021 31.8227 6.32849 35.2277 6.22918 37.8602C6.12987 40.6004 8.27848 43.116 11.1674 43.116H40.8417C43.7396 43.116 45.8792 40.5914 45.7799 37.8602C45.6896 35.2277 45.807 31.8227 46.6646 29.0465C47.5313 26.2613 48.9847 24.5004 51.3681 24.2758V21.7152C48.9938 21.4906 47.5313 19.7297 46.6736 16.9445ZM27.1014 33.7004H18.2632V12.2906H27.0563C30.9653 12.2906 33.5292 14.393 33.5292 17.6273C33.5292 19.9004 31.8049 21.9309 29.6021 22.2812V22.398C32.5993 22.7215 34.6125 24.7879 34.6125 27.6359C34.6125 31.4184 31.7868 33.7004 27.1014 33.7004ZM26.1986 23.9344H21.6757V30.9781H26.3972C29.4847 30.9781 31.1188 29.7473 31.1188 27.4293C31.1188 25.1203 29.4396 23.9344 26.1986 23.9344Z" fill="#CBCDD0"/>
</svg>
