<svg width="24" height="24" viewBox="0 0 24 24" fill="none" xmlns="http://www.w3.org/2000/svg">
<g clip-path="url(#clip0)">
<path d="M3.75 2.25H0.75C0.335438 2.25 0 2.58562 0 3V6C0 6.41456 0.335438 6.75 0.75 6.75H3.75C4.16437 6.75 4.5 6.4125 4.5 6V3C4.5 2.58562 4.16437 2.25 3.75 2.25ZM3.75 9.75H0.75C0.335438 9.75 0 10.0875 0 10.5V13.5C0 13.9146 0.335438 14.25 0.75 14.25H3.75C4.16437 14.25 4.5 13.9125 4.5 13.5V10.5C4.5 10.0875 4.16437 9.75 3.75 9.75ZM3.75 17.25H0.75C0.335438 17.25 0 17.5875 0 18V21C0 21.4146 0.335438 21.75 0.75 21.75H3.75C4.16437 21.75 4.5 21.4125 4.5 21V18C4.5 17.5875 4.16437 17.25 3.75 17.25Z" fill="#FBFBFB"/>
<path opacity="0.4" d="M9 6H22.5C23.3283 6 24 5.32828 24 4.54219C24 3.75609 23.3297 3 22.5 3H9C8.17031 3 7.5 3.67172 7.5 4.45781C7.5 5.24391 8.17031 6 9 6ZM22.5 18H9C8.17172 18 7.5 18.6717 7.5 19.5C7.5 20.3283 8.17172 21 9 21H22.5C23.3283 21 24 20.3283 24 19.5C24 18.6717 23.3297 18 22.5 18ZM22.5 10.5H9C8.17031 10.5 7.5 11.1703 7.5 12C7.5 12.8297 8.17172 13.5 9 13.5H22.5C23.3283 13.5 24 12.8283 24 12C24 11.1717 23.3297 10.5 22.5 10.5Z" fill="#EBF0F0"/>
</g>
<defs>
<clipPath id="clip0">
<rect width="24" height="24" fill="white"/>
</clipPath>
</defs>
</svg>
