<svg width="326" height="288" viewBox="0 0 326 288" fill="none" xmlns="http://www.w3.org/2000/svg">
<g clip-path="url(#clip0)">
<g opacity="0.7">
<path opacity="0.7" d="M189.741 94.7499H152.346L168.745 78.3506C169.355 77.742 170.182 77.4001 171.043 77.4001C171.905 77.4001 172.732 77.742 173.342 78.3506L189.741 94.7499ZM154.956 141.35C154.529 141.35 154.107 141.267 153.712 141.104C153.318 140.941 152.96 140.701 152.658 140.399L136.259 124H173.655L157.256 140.399C156.954 140.701 156.595 140.941 156.201 141.104C155.806 141.267 155.383 141.351 154.956 141.35Z" fill="url(#paint0_linear)"/>
<path opacity="0.7" d="M189 91.5H137C135.205 91.5 133.75 92.9551 133.75 94.75V124C133.75 125.795 135.205 127.25 137 127.25H189C190.795 127.25 192.25 125.795 192.25 124V94.75C192.25 92.9551 190.795 91.5 189 91.5Z" fill="url(#paint1_linear)"/>
<path opacity="0.7" d="M192.021 148.604L194.429 128.136L198.256 134.293C202.842 127.392 205.277 119.285 205.25 111C205.25 78.4342 169.816 58.2348 141.882 74.3991L140.476 75.2128L135.592 66.774C136.476 66.3956 147.506 58.6646 163.75 58.9612C206.603 59.7398 229.303 108.176 205.14 141.472L212.263 146.223L192.021 148.604Z" fill="url(#paint2_linear)"/>
<path opacity="0.7" d="M162.25 163.038C120.314 162.277 96.112 114.63 120.86 80.5272L113.738 75.7779L133.979 73.3965L131.571 93.8636L127.744 87.7068C123.158 94.6074 120.723 102.714 120.75 111C120.75 143.561 156.18 163.768 184.118 147.6L185.525 146.787L190.408 155.226C189.524 155.604 178.494 163.335 162.25 163.038Z" fill="url(#paint3_linear)"/>
<path opacity="0.7" d="M192.25 104.5H190.625C187.608 104.5 184.715 103.302 182.582 101.168C180.448 99.035 179.25 96.1419 179.25 93.125V91.5H189C189.862 91.5 190.689 91.8423 191.298 92.4518C191.908 93.0613 192.25 93.8881 192.25 94.75V104.5Z" fill="#499172"/>
<path opacity="0.7" d="M133.75 104.5H135.375C138.392 104.5 141.285 103.302 143.418 101.168C145.552 99.035 146.75 96.1419 146.75 93.125V91.5H137C136.138 91.5 135.312 91.8423 134.702 92.4518C134.092 93.0613 133.75 93.8881 133.75 94.75V104.5Z" fill="#499172"/>
<path opacity="0.7" d="M192.25 114.25H190.625C187.608 114.25 184.715 115.448 182.582 117.582C180.448 119.715 179.25 122.608 179.25 125.625V127.25H189C189.862 127.25 190.689 126.907 191.298 126.298C191.908 125.688 192.25 124.862 192.25 124V114.25Z" fill="#499172"/>
<path opacity="0.7" d="M133.75 114.25H135.375C138.392 114.25 141.285 115.448 143.418 117.582C145.552 119.715 146.75 122.608 146.75 125.625V127.25H137C136.138 127.25 135.312 126.907 134.702 126.298C134.092 125.688 133.75 124.862 133.75 124V114.25Z" fill="#499172"/>
<path opacity="0.7" d="M163.146 91.5L139.438 114.922L137.14 112.625L158.552 91.5H163.146Z" fill="#76D994"/>
<path opacity="0.7" d="M176.813 91.622L148.375 119.937L143.778 115.343L167.743 91.5H176.788L176.813 91.622Z" fill="#76D994"/>
<path opacity="0.7" d="M164.625 107.75H161.375C160.944 107.75 160.531 107.579 160.226 107.274C159.921 106.969 159.75 106.556 159.75 106.125C159.75 105.694 159.921 105.281 160.226 104.976C160.531 104.671 160.944 104.5 161.375 104.5H167.875V101.25H164.625V98H161.375V101.25C160.082 101.25 158.842 101.764 157.928 102.678C157.014 103.592 156.5 104.832 156.5 106.125C156.5 107.418 157.014 108.658 157.928 109.572C158.842 110.486 160.082 111 161.375 111H164.625C165.056 111 165.469 111.171 165.774 111.476C166.079 111.781 166.25 112.194 166.25 112.625C166.25 113.056 166.079 113.469 165.774 113.774C165.469 114.079 165.056 114.25 164.625 114.25H158.125V117.5H161.375V120.75H164.625V117.5C165.918 117.5 167.158 116.986 168.072 116.072C168.986 115.158 169.5 113.918 169.5 112.625C169.5 111.332 168.986 110.092 168.072 109.178C167.158 108.263 165.918 107.75 164.625 107.75Z" fill="white"/>
<path opacity="0.7" d="M172.75 107.75H176V111H172.75V107.75Z" fill="white"/>
<path opacity="0.7" d="M150 107.75H153.25V111H150V107.75Z" fill="white"/>
</g>
</g>
<path d="M79.7969 219.879C79.4805 222.586 78.4785 224.678 76.791 226.154C75.1152 227.619 72.8828 228.352 70.0938 228.352C67.0703 228.352 64.6445 227.268 62.8164 225.1C61 222.932 60.0918 220.031 60.0918 216.398V213.938C60.0918 211.559 60.5137 209.467 61.3574 207.662C62.2129 205.857 63.4199 204.475 64.9785 203.514C66.5371 202.541 68.3418 202.055 70.3926 202.055C73.1113 202.055 75.291 202.816 76.9316 204.34C78.5723 205.852 79.5273 207.949 79.7969 210.633H76.4043C76.1113 208.594 75.4727 207.117 74.4883 206.203C73.5156 205.289 72.1504 204.832 70.3926 204.832C68.2363 204.832 66.543 205.629 65.3125 207.223C64.0938 208.816 63.4844 211.084 63.4844 214.025V216.504C63.4844 219.281 64.0645 221.49 65.2246 223.131C66.3848 224.771 68.0078 225.592 70.0938 225.592C71.9688 225.592 73.4043 225.17 74.4004 224.326C75.4082 223.471 76.0762 221.988 76.4043 219.879H79.7969ZM95.6523 226.119C94.3867 227.607 92.5293 228.352 90.0801 228.352C88.0527 228.352 86.5059 227.766 85.4395 226.594C84.3848 225.41 83.8516 223.664 83.8398 221.355V208.98H87.0918V221.268C87.0918 224.15 88.2637 225.592 90.6074 225.592C93.0918 225.592 94.7441 224.666 95.5645 222.814V208.98H98.8164V228H95.7227L95.6523 226.119ZM112.967 211.898C112.475 211.816 111.941 211.775 111.367 211.775C109.234 211.775 107.787 212.684 107.025 214.5V228H103.773V208.98H106.938L106.99 211.178C108.057 209.479 109.568 208.629 111.525 208.629C112.158 208.629 112.639 208.711 112.967 208.875V211.898ZM125.166 211.898C124.674 211.816 124.141 211.775 123.566 211.775C121.434 211.775 119.986 212.684 119.225 214.5V228H115.973V208.98H119.137L119.189 211.178C120.256 209.479 121.768 208.629 123.725 208.629C124.357 208.629 124.838 208.711 125.166 208.875V211.898ZM135.713 228.352C133.135 228.352 131.037 227.508 129.42 225.82C127.803 224.121 126.994 221.854 126.994 219.018V218.42C126.994 216.533 127.352 214.852 128.066 213.375C128.793 211.887 129.801 210.727 131.09 209.895C132.391 209.051 133.797 208.629 135.309 208.629C137.781 208.629 139.703 209.443 141.074 211.072C142.445 212.701 143.131 215.033 143.131 218.068V219.422H130.246C130.293 221.297 130.838 222.814 131.881 223.975C132.936 225.123 134.271 225.697 135.889 225.697C137.037 225.697 138.01 225.463 138.807 224.994C139.604 224.525 140.301 223.904 140.898 223.131L142.885 224.678C141.291 227.127 138.9 228.352 135.713 228.352ZM135.309 211.301C133.996 211.301 132.895 211.781 132.004 212.742C131.113 213.691 130.562 215.027 130.352 216.75H139.879V216.504C139.785 214.852 139.34 213.574 138.543 212.672C137.746 211.758 136.668 211.301 135.309 211.301ZM149.986 208.98L150.092 211.371C151.545 209.543 153.443 208.629 155.787 208.629C159.807 208.629 161.834 210.896 161.869 215.432V228H158.617V215.414C158.605 214.043 158.289 213.029 157.668 212.373C157.059 211.717 156.104 211.389 154.803 211.389C153.748 211.389 152.822 211.67 152.025 212.232C151.229 212.795 150.607 213.533 150.162 214.447V228H146.91V208.98H149.986ZM174.402 225.697C175.562 225.697 176.576 225.346 177.443 224.643C178.311 223.939 178.791 223.061 178.885 222.006H181.961C181.902 223.096 181.527 224.133 180.836 225.117C180.145 226.102 179.219 226.887 178.059 227.473C176.91 228.059 175.691 228.352 174.402 228.352C171.812 228.352 169.75 227.49 168.215 225.768C166.691 224.033 165.93 221.666 165.93 218.666V218.121C165.93 216.27 166.27 214.623 166.949 213.182C167.629 211.74 168.602 210.621 169.867 209.824C171.145 209.027 172.65 208.629 174.385 208.629C176.518 208.629 178.287 209.268 179.693 210.545C181.111 211.822 181.867 213.48 181.961 215.52H178.885C178.791 214.289 178.322 213.281 177.479 212.496C176.646 211.699 175.615 211.301 174.385 211.301C172.732 211.301 171.449 211.898 170.535 213.094C169.633 214.277 169.182 215.994 169.182 218.244V218.859C169.182 221.051 169.633 222.738 170.535 223.922C171.438 225.105 172.727 225.697 174.402 225.697ZM191.84 223.236L196.27 208.98H199.75L192.104 230.936C190.92 234.1 189.039 235.682 186.461 235.682L185.846 235.629L184.633 235.4V232.764L185.512 232.834C186.613 232.834 187.469 232.611 188.078 232.166C188.699 231.721 189.209 230.906 189.607 229.723L190.328 227.789L183.543 208.98H187.094L191.84 223.236ZM217.311 221.32H206.588L204.18 228H200.699L210.473 202.406H213.426L223.217 228H219.754L217.311 221.32ZM207.607 218.543H216.309L211.949 206.572L207.607 218.543ZM230.037 217.98V228H226.662V202.406H236.102C238.902 202.406 241.094 203.121 242.676 204.551C244.27 205.98 245.066 207.873 245.066 210.229C245.066 212.713 244.287 214.629 242.729 215.977C241.182 217.312 238.961 217.98 236.066 217.98H230.037ZM230.037 215.221H236.102C237.906 215.221 239.289 214.799 240.25 213.955C241.211 213.1 241.691 211.869 241.691 210.264C241.691 208.74 241.211 207.521 240.25 206.607C239.289 205.693 237.971 205.219 236.295 205.184H230.037V215.221ZM252.748 217.98V228H249.373V202.406H258.812C261.613 202.406 263.805 203.121 265.387 204.551C266.98 205.98 267.777 207.873 267.777 210.229C267.777 212.713 266.998 214.629 265.439 215.977C263.893 217.312 261.672 217.98 258.777 217.98H252.748ZM252.748 215.221H258.812C260.617 215.221 262 214.799 262.961 213.955C263.922 213.1 264.402 211.869 264.402 210.264C264.402 208.74 263.922 207.521 262.961 206.607C262 205.693 260.682 205.219 259.006 205.184H252.748V215.221Z" fill="#7C7979"/>
<defs>
<linearGradient id="paint0_linear" x1="163" y1="77.4002" x2="163" y2="141.35" gradientUnits="userSpaceOnUse">
<stop stop-color="#549D7F"/>
<stop offset="0.27" stop-color="#56A180"/>
<stop offset="0.52" stop-color="#5CAC84"/>
<stop offset="0.762" stop-color="#67BF8B"/>
<stop offset="0.997" stop-color="#76D994"/>
<stop offset="1" stop-color="#76D994"/>
</linearGradient>
<linearGradient id="paint1_linear" x1="163" y1="91.5" x2="163" y2="127.25" gradientUnits="userSpaceOnUse">
<stop stop-color="#549D7F"/>
<stop offset="0.064" stop-color="#59A682"/>
<stop offset="0.251" stop-color="#66BD8A"/>
<stop offset="0.454" stop-color="#6FCD90"/>
<stop offset="0.685" stop-color="#74D693"/>
<stop offset="1" stop-color="#76D994"/>
</linearGradient>
<linearGradient id="paint2_linear" x1="175.297" y1="58.9529" x2="175.297" y2="148.604" gradientUnits="userSpaceOnUse">
<stop stop-color="#F5B563"/>
<stop offset="0.031" stop-color="#F6BA66"/>
<stop offset="0.198" stop-color="#F8CE72"/>
<stop offset="0.387" stop-color="#FADC7A"/>
<stop offset="0.617" stop-color="#FBE47F"/>
<stop offset="1" stop-color="#FBE781"/>
</linearGradient>
<linearGradient id="paint3_linear" x1="150.653" y1="73.3955" x2="150.653" y2="163.047" gradientUnits="userSpaceOnUse">
<stop stop-color="#F07C68"/>
<stop offset="1" stop-color="#F3B775"/>
</linearGradient>
<clipPath id="clip0">
<rect width="104" height="104" fill="white" transform="translate(111 59)"/>
</clipPath>
</defs>
</svg>
