<svg width="620" height="285" viewBox="0 0 620 285" fill="none" xmlns="http://www.w3.org/2000/svg">
<rect width="620" height="285" fill="white"/>
<g clip-path="url(#clip0)">
<path d="M275.75 66.6438H310.633V133.109H275.75V66.6438Z" fill="#09A1E5"/>
<path d="M299.5 54L275.75 66.6437L299.5 79.2874H323.25V66.6437L299.5 54Z" fill="#3EC3FF"/>
<path d="M312.117 79.2876L323.25 149L347 136.356V79.2876H312.117Z" fill="#962B7C"/>
<path d="M299.5 79.2876V104.575L290.223 120.466L299.5 136.356L323.25 149V79.2876H299.5Z" fill="#CB2E81"/>
<path d="M347 79.2875L323.25 66.6438L299.5 79.2875L323.25 91.9311L347 79.2875Z" fill="#FF3187"/>
<path d="M264.617 104.575L275.75 149L299.5 136.356V104.575H264.617Z" fill="#FF9259"/>
<path d="M252 104.575V136.356L275.75 149V104.575H252Z" fill="#FFB24A"/>
<path d="M275.75 91.9312L252 104.575L275.75 117.219L299.5 104.575L275.75 91.9312Z" fill="#FFD23B"/>
</g>
<path d="M209.961 220V185.875H219.594C222.562 185.875 225.188 186.531 227.469 187.844C229.75 189.156 231.508 191.023 232.742 193.445C233.992 195.867 234.625 198.648 234.641 201.789V203.969C234.641 207.188 234.016 210.008 232.766 212.43C231.531 214.852 229.758 216.711 227.445 218.008C225.148 219.305 222.469 219.969 219.406 220H209.961ZM214.461 189.578V216.32H219.195C222.664 216.32 225.359 215.242 227.281 213.086C229.219 210.93 230.188 207.859 230.188 203.875V201.883C230.188 198.008 229.273 195 227.445 192.859C225.633 190.703 223.055 189.609 219.711 189.578H214.461ZM246.289 220H241.789V185.875H246.289V220ZM265.836 214.023L275.586 185.875H280.508L267.852 220H263.867L251.234 185.875H256.133L265.836 214.023ZM290.914 185.875L302.07 213.719L313.227 185.875H319.062V220H314.562V206.711L314.984 192.367L303.781 220H300.336L289.156 192.438L289.602 206.711V220H285.102V185.875H290.914ZM341.984 220C341.734 219.5 341.531 218.609 341.375 217.328C339.359 219.422 336.953 220.469 334.156 220.469C331.656 220.469 329.602 219.766 327.992 218.359C326.398 216.938 325.602 215.141 325.602 212.969C325.602 210.328 326.602 208.281 328.602 206.828C330.617 205.359 333.445 204.625 337.086 204.625H341.305V202.633C341.305 201.117 340.852 199.914 339.945 199.023C339.039 198.117 337.703 197.664 335.938 197.664C334.391 197.664 333.094 198.055 332.047 198.836C331 199.617 330.477 200.562 330.477 201.672H326.117C326.117 200.406 326.562 199.188 327.453 198.016C328.359 196.828 329.578 195.891 331.109 195.203C332.656 194.516 334.352 194.172 336.195 194.172C339.117 194.172 341.406 194.906 343.062 196.375C344.719 197.828 345.578 199.836 345.641 202.398V214.07C345.641 216.398 345.938 218.25 346.531 219.625V220H341.984ZM334.789 216.695C336.148 216.695 337.438 216.344 338.656 215.641C339.875 214.938 340.758 214.023 341.305 212.898V207.695H337.906C332.594 207.695 329.938 209.25 329.938 212.359C329.938 213.719 330.391 214.781 331.297 215.547C332.203 216.312 333.367 216.695 334.789 216.695ZM359.516 208.258L356.797 211.094V220H352.461V184H356.797V205.773L359.117 202.984L367.016 194.641H372.289L362.422 205.234L373.438 220H368.352L359.516 208.258ZM386.82 220.469C383.383 220.469 380.586 219.344 378.43 217.094C376.273 214.828 375.195 211.805 375.195 208.023V207.227C375.195 204.711 375.672 202.469 376.625 200.5C377.594 198.516 378.938 196.969 380.656 195.859C382.391 194.734 384.266 194.172 386.281 194.172C389.578 194.172 392.141 195.258 393.969 197.43C395.797 199.602 396.711 202.711 396.711 206.758V208.562H379.531C379.594 211.062 380.32 213.086 381.711 214.633C383.117 216.164 384.898 216.93 387.055 216.93C388.586 216.93 389.883 216.617 390.945 215.992C392.008 215.367 392.938 214.539 393.734 213.508L396.383 215.57C394.258 218.836 391.07 220.469 386.82 220.469ZM386.281 197.734C384.531 197.734 383.062 198.375 381.875 199.656C380.688 200.922 379.953 202.703 379.672 205H392.375V204.672C392.25 202.469 391.656 200.766 390.594 199.562C389.531 198.344 388.094 197.734 386.281 197.734ZM414.008 198.531C413.352 198.422 412.641 198.367 411.875 198.367C409.031 198.367 407.102 199.578 406.086 202V220H401.75V194.641H405.969L406.039 197.57C407.461 195.305 409.477 194.172 412.086 194.172C412.93 194.172 413.57 194.281 414.008 194.5V198.531Z" fill="#C05DA5"/>
<defs>
<clipPath id="clip0">
<rect width="95" height="95" fill="white" transform="translate(252 54)"/>
</clipPath>
</defs>
</svg>
