<svg width="49" height="49" viewBox="0 0 49 49" fill="none" xmlns="http://www.w3.org/2000/svg">
<path d="M20.6996 15.1584H13.1113C9.2832 14.1544 0.623027 14.4157 0.623027 22.316C0.623027 25.1957 2.05857 27.2189 3.97264 28.1539C1.57049 30.3551 0.431621 31.3934 0.431621 32.8634C0.431621 33.9162 0.859414 34.8866 2.14375 35.4292C0.778066 36.7126 0 37.6448 0 39.3961C0 42.4692 2.68447 44.2598 9.72631 44.2598C16.4973 44.2598 20.425 41.7313 20.425 37.2562C20.425 31.6423 16.103 31.849 5.9135 31.2269L7.19879 29.1645C9.80861 29.8899 18.5587 30.1215 18.5587 22.6672C18.5587 20.8776 17.819 19.6325 17.1232 18.7367L20.7035 18.4649L20.6996 15.1584ZM14.6301 38.3089C14.6301 41.3772 4.59184 41.381 4.59184 38.5415C4.59184 37.7625 5.09619 37.106 5.60342 36.4801C13.0405 36.9873 14.6301 36.8026 14.6301 38.3089ZM9.76746 25.4292C4.71434 25.4292 4.93828 18.619 9.8823 18.619C14.6234 18.619 14.7459 25.4292 9.76746 25.4292ZM22.5247 35.0483V31.9763C25.0847 31.626 25.1316 31.7849 25.1316 30.9235V19.4861C25.1316 18.6726 24.9354 18.7798 22.5247 17.9299L22.9525 14.7794H31.0078V30.9255C31.0078 31.5485 31.0461 31.626 31.6308 31.7045L33.6148 31.9763V35.0483H22.5247ZM27.5443 11.6671C25.3269 11.6671 24.0425 10.3818 24.0425 8.16341C24.0425 5.94502 25.3269 4.74011 27.5443 4.74011C29.801 4.74011 31.0853 5.94789 31.0853 8.16341C31.0853 10.3789 29.801 11.6671 27.5443 11.6671ZM49 33.5401C47.3262 34.3564 44.8752 35.0962 42.6568 35.0962C38.0267 35.0962 36.2763 33.23 36.2763 28.8315V18.6381C36.2763 18.1194 36.3768 18.2496 33.2415 18.2496V14.7861C36.6658 14.3966 38.0267 12.6806 38.4545 8.44382H42.1515C42.1515 14.744 42.0232 14.3592 42.4635 14.3592H47.9473V18.2496H42.1515V27.5471C42.1515 28.2094 41.6806 32.4672 47.9482 30.1158L49 33.5401Z" fill="#CBCDD0"/>
</svg>
