<svg width="46" height="44" viewBox="0 0 46 44" fill="none" xmlns="http://www.w3.org/2000/svg">
<path d="M0 0.875V46.875H46V0.875H0ZM25.033 36.7509C25.033 41.2277 22.4045 43.271 18.5746 43.271C15.1143 43.271 13.1121 41.4844 12.0853 39.3179L15.6071 37.1924C16.2848 38.3938 16.9009 39.4103 18.3897 39.4103C19.8067 39.4103 20.7103 38.8558 20.7103 36.6893V21.996H25.033V36.7509V36.7509ZM35.2598 43.271C31.2451 43.271 28.6473 41.3612 27.3844 38.8558L30.9063 36.8228C31.8304 38.3321 33.042 39.4513 35.1674 39.4513C36.954 39.4513 38.104 38.558 38.104 37.3156C38.104 35.8371 36.9335 35.3134 34.9518 34.4406L33.8737 33.9786C30.7522 32.654 28.6884 30.9804 28.6884 27.4585C28.6884 24.2138 31.1629 21.7496 35.0134 21.7496C37.7652 21.7496 39.7366 22.7045 41.1536 25.2098L37.7857 27.3661C37.0464 26.0415 36.2455 25.5179 35.0031 25.5179C33.7402 25.5179 32.9393 26.3188 32.9393 27.3661C32.9393 28.6598 33.7402 29.1835 35.5987 29.9946L36.6768 30.4567C40.3527 32.0277 42.4165 33.6397 42.4165 37.254C42.4165 41.1353 39.3567 43.271 35.2598 43.271V43.271Z" fill="#CBCDD0"/>
</svg>
