<svg width="262" height="83" viewBox="0 0 262 83" fill="none" xmlns="http://www.w3.org/2000/svg">
<path d="M112.916 36.12C111.85 36.12 110.89 35.88 110.036 35.4C109.196 34.9067 108.53 34.24 108.036 33.4C107.556 32.5467 107.316 31.5933 107.316 30.54C107.316 29.4733 107.556 28.52 108.036 27.68C108.53 26.8267 109.196 26.16 110.036 25.68C110.89 25.1867 111.85 24.94 112.916 24.94C113.983 24.94 114.936 25.1867 115.776 25.68C116.616 26.16 117.276 26.8267 117.756 27.68C118.25 28.52 118.496 29.4733 118.496 30.54V35.4C118.496 35.5733 118.443 35.72 118.336 35.84C118.23 35.9467 118.083 36 117.896 36C117.723 36 117.576 35.9467 117.456 35.84C117.35 35.72 117.296 35.5733 117.296 35.4V33.84C116.856 34.5333 116.256 35.0867 115.496 35.5C114.736 35.9133 113.876 36.12 112.916 36.12ZM112.916 35C113.756 35 114.503 34.8067 115.156 34.42C115.823 34.02 116.343 33.4867 116.716 32.82C117.103 32.14 117.296 31.38 117.296 30.54C117.296 29.6867 117.103 28.9267 116.716 28.26C116.343 27.58 115.823 27.0467 115.156 26.66C114.503 26.26 113.756 26.06 112.916 26.06C112.09 26.06 111.343 26.26 110.676 26.66C110.01 27.0467 109.483 27.58 109.096 28.26C108.71 28.9267 108.516 29.6867 108.516 30.54C108.516 31.38 108.71 32.14 109.096 32.82C109.483 33.4867 110.01 34.02 110.676 34.42C111.343 34.8067 112.09 35 112.916 35ZM122.091 36C121.917 36 121.771 35.9467 121.651 35.84C121.544 35.72 121.491 35.5733 121.491 35.4V25.66C121.491 25.4733 121.544 25.3267 121.651 25.22C121.771 25.1133 121.917 25.06 122.091 25.06C122.277 25.06 122.424 25.1133 122.531 25.22C122.637 25.3267 122.691 25.4733 122.691 25.66V26.9C123.077 26.2867 123.564 25.8067 124.151 25.46C124.751 25.1133 125.411 24.94 126.131 24.94C126.637 24.94 127.031 25 127.311 25.12C127.591 25.24 127.697 25.4533 127.631 25.76C127.591 25.96 127.497 26.08 127.351 26.12C127.204 26.16 127.024 26.1667 126.811 26.14C126.611 26.1 126.384 26.08 126.131 26.08C125.464 26.08 124.871 26.22 124.351 26.5C123.831 26.78 123.424 27.1667 123.131 27.66C122.837 28.14 122.691 28.6933 122.691 29.32V35.4C122.691 35.5733 122.637 35.72 122.531 35.84C122.424 35.9467 122.277 36 122.091 36ZM134.74 36C134.007 35.9867 133.353 35.82 132.78 35.5C132.207 35.1667 131.76 34.7133 131.44 34.14C131.12 33.5533 130.96 32.8933 130.96 32.16V26.54H129.4C129.24 26.54 129.107 26.4933 129 26.4C128.907 26.2933 128.86 26.16 128.86 26C128.86 25.84 128.907 25.7133 129 25.62C129.107 25.5133 129.24 25.46 129.4 25.46H130.96V22.2C130.96 22.0133 131.013 21.8667 131.12 21.76C131.24 21.64 131.387 21.58 131.56 21.58C131.747 21.58 131.893 21.64 132 21.76C132.12 21.8667 132.18 22.0133 132.18 22.2V25.46H134.82C134.98 25.46 135.107 25.5133 135.2 25.62C135.307 25.7133 135.36 25.84 135.36 26C135.36 26.16 135.307 26.2933 135.2 26.4C135.107 26.4933 134.98 26.54 134.82 26.54H132.18V32.16C132.18 32.9333 132.42 33.5667 132.9 34.06C133.38 34.54 134 34.78 134.76 34.78H135.2C135.387 34.78 135.533 34.84 135.64 34.96C135.76 35.0667 135.82 35.2133 135.82 35.4C135.82 35.5733 135.76 35.72 135.64 35.84C135.533 35.9467 135.387 36 135.2 36H134.74ZM143.187 36.14C142.227 36.14 141.367 35.9467 140.607 35.56C139.847 35.16 139.24 34.58 138.787 33.82C138.347 33.06 138.127 32.1333 138.127 31.04V25.66C138.127 25.4867 138.18 25.3467 138.287 25.24C138.407 25.12 138.553 25.06 138.727 25.06C138.9 25.06 139.04 25.12 139.147 25.24C139.267 25.3467 139.327 25.4867 139.327 25.66V31.04C139.327 31.9067 139.493 32.6333 139.827 33.22C140.173 33.7933 140.633 34.2267 141.207 34.52C141.793 34.8 142.453 34.94 143.187 34.94C143.907 34.94 144.553 34.8 145.127 34.52C145.7 34.24 146.153 33.8667 146.487 33.4C146.82 32.92 146.987 32.38 146.987 31.78V25.66C146.987 25.4733 147.04 25.3267 147.147 25.22C147.267 25.1133 147.413 25.06 147.587 25.06C147.773 25.06 147.92 25.1133 148.027 25.22C148.133 25.3267 148.187 25.4733 148.187 25.66V35.4C148.187 35.5733 148.133 35.72 148.027 35.84C147.92 35.9467 147.773 36 147.587 36C147.413 36 147.267 35.9467 147.147 35.84C147.04 35.72 146.987 35.5733 146.987 35.4V34.36C146.547 34.9067 145.993 35.34 145.327 35.66C144.673 35.98 143.96 36.14 143.187 36.14ZM152.384 36C152.21 36 152.064 35.9467 151.944 35.84C151.837 35.72 151.784 35.5733 151.784 35.4V25.66C151.784 25.4733 151.837 25.3267 151.944 25.22C152.064 25.1133 152.21 25.06 152.384 25.06C152.57 25.06 152.717 25.1133 152.824 25.22C152.93 25.3267 152.984 25.4733 152.984 25.66V26.9C153.37 26.2867 153.857 25.8067 154.444 25.46C155.044 25.1133 155.704 24.94 156.424 24.94C156.93 24.94 157.324 25 157.604 25.12C157.884 25.24 157.99 25.4533 157.924 25.76C157.884 25.96 157.79 26.08 157.644 26.12C157.497 26.16 157.317 26.1667 157.104 26.14C156.904 26.1 156.677 26.08 156.424 26.08C155.757 26.08 155.164 26.22 154.644 26.5C154.124 26.78 153.717 27.1667 153.424 27.66C153.13 28.14 152.984 28.6933 152.984 29.32V35.4C152.984 35.5733 152.93 35.72 152.824 35.84C152.717 35.9467 152.57 36 152.384 36Z" fill="#454343"/>
<path d="M110.516 58C109.93 58 109.41 57.84 108.956 57.52C108.503 57.2 108.15 56.7667 107.896 56.22C107.643 55.66 107.516 55.02 107.516 54.3V43.38C107.516 43.0867 107.61 42.8467 107.796 42.66C107.983 42.4733 108.223 42.38 108.516 42.38C108.81 42.38 109.05 42.4733 109.236 42.66C109.423 42.8467 109.516 43.0867 109.516 43.38V54.3C109.516 54.7933 109.61 55.2 109.796 55.52C109.983 55.84 110.223 56 110.516 56H111.016C111.283 56 111.496 56.0933 111.656 56.28C111.83 56.4667 111.916 56.7067 111.916 57C111.916 57.2933 111.79 57.5333 111.536 57.72C111.283 57.9067 110.956 58 110.556 58H110.516ZM118.447 58.08C117.34 58.08 116.354 57.8467 115.487 57.38C114.634 56.9 113.96 56.2467 113.467 55.42C112.987 54.58 112.747 53.62 112.747 52.54C112.747 51.4467 112.974 50.4867 113.427 49.66C113.894 48.82 114.534 48.1667 115.347 47.7C116.16 47.22 117.094 46.98 118.147 46.98C119.187 46.98 120.08 47.2133 120.827 47.68C121.574 48.1333 122.14 48.7667 122.527 49.58C122.927 50.38 123.127 51.3067 123.127 52.36C123.127 52.6133 123.04 52.8267 122.867 53C122.694 53.16 122.474 53.24 122.207 53.24H114.607C114.754 54.16 115.174 54.9133 115.867 55.5C116.574 56.0733 117.434 56.36 118.447 56.36C118.86 56.36 119.28 56.2867 119.707 56.14C120.147 55.98 120.5 55.8 120.767 55.6C120.967 55.4533 121.18 55.38 121.407 55.38C121.647 55.3667 121.854 55.4333 122.027 55.58C122.254 55.78 122.374 56 122.387 56.24C122.4 56.48 122.294 56.6867 122.067 56.86C121.614 57.22 121.047 57.5133 120.367 57.74C119.7 57.9667 119.06 58.08 118.447 58.08ZM118.147 48.7C117.16 48.7 116.367 48.9733 115.767 49.52C115.167 50.0667 114.787 50.7733 114.627 51.64H121.287C121.167 50.7867 120.84 50.0867 120.307 49.54C119.774 48.98 119.054 48.7 118.147 48.7ZM127.858 58C127.645 58 127.445 57.94 127.258 57.82C127.085 57.6867 126.965 57.5267 126.898 57.34L123.938 48.46C123.832 48.0467 123.832 47.7133 123.938 47.46C124.058 47.1933 124.312 47.06 124.698 47.06C124.952 47.06 125.158 47.1333 125.318 47.28C125.492 47.4133 125.632 47.6467 125.738 47.98L127.898 54.72L129.938 47.82C130.005 47.5933 130.118 47.4133 130.278 47.28C130.438 47.1333 130.658 47.06 130.938 47.06C131.205 47.06 131.418 47.1333 131.578 47.28C131.752 47.4133 131.865 47.5933 131.918 47.82L133.718 54.86L135.918 47.98C136.105 47.3667 136.452 47.06 136.958 47.06C137.332 47.06 137.585 47.1933 137.718 47.46C137.852 47.7133 137.845 48.0467 137.698 48.46L134.738 57.34C134.685 57.5267 134.572 57.6867 134.398 57.82C134.225 57.94 134.025 58 133.798 58C133.585 58 133.385 57.94 133.198 57.82C133.012 57.6867 132.892 57.5267 132.838 57.34L130.878 50.08L128.818 57.34C128.765 57.5267 128.645 57.6867 128.458 57.82C128.285 57.94 128.085 58 127.858 58ZM144.058 58.08C143.085 58.08 142.212 57.84 141.438 57.36C140.665 56.8667 140.052 56.2067 139.598 55.38C139.158 54.54 138.938 53.5933 138.938 52.54C138.938 51.4867 139.178 50.54 139.658 49.7C140.152 48.86 140.812 48.2 141.638 47.72C142.478 47.2267 143.418 46.98 144.458 46.98C145.498 46.98 146.432 47.2267 147.258 47.72C148.085 48.2 148.738 48.86 149.218 49.7C149.712 50.54 149.958 51.4867 149.958 52.54V57C149.958 57.2933 149.858 57.54 149.658 57.74C149.472 57.9267 149.232 58.02 148.938 58.02C148.645 58.02 148.398 57.9267 148.198 57.74C148.012 57.54 147.918 57.2933 147.918 57V56.26C147.452 56.82 146.885 57.2667 146.218 57.6C145.565 57.92 144.845 58.08 144.058 58.08ZM144.458 56.28C145.138 56.28 145.745 56.12 146.278 55.8C146.812 55.4667 147.232 55.02 147.538 54.46C147.845 53.8867 147.998 53.2467 147.998 52.54C147.998 51.82 147.845 51.18 147.538 50.62C147.232 50.0467 146.812 49.6 146.278 49.28C145.745 48.9467 145.138 48.78 144.458 48.78C143.792 48.78 143.185 48.9467 142.638 49.28C142.105 49.6 141.678 50.0467 141.358 50.62C141.052 51.18 140.898 51.82 140.898 52.54C140.898 53.2467 141.052 53.8867 141.358 54.46C141.678 55.02 142.105 55.4667 142.638 55.8C143.185 56.12 143.792 56.28 144.458 56.28ZM154.015 58.02C153.721 58.02 153.475 57.9267 153.275 57.74C153.088 57.54 152.995 57.2933 152.995 57V48.08C152.995 47.7733 153.088 47.5267 153.275 47.34C153.475 47.1533 153.721 47.06 154.015 47.06C154.321 47.06 154.568 47.1533 154.755 47.34C154.941 47.5267 155.035 47.7733 155.035 48.08V48.3C155.448 47.8867 155.948 47.56 156.535 47.32C157.121 47.08 157.755 46.96 158.435 46.96C159.355 46.96 160.175 47.16 160.895 47.56C161.628 47.9467 162.201 48.52 162.615 49.28C163.041 50.04 163.255 50.9733 163.255 52.08V57C163.255 57.2933 163.155 57.54 162.955 57.74C162.768 57.9267 162.528 58.02 162.235 58.02C161.941 58.02 161.695 57.9267 161.495 57.74C161.308 57.54 161.215 57.2933 161.215 57V52.08C161.215 50.9467 160.908 50.12 160.295 49.6C159.695 49.0667 158.941 48.8 158.035 48.8C157.475 48.8 156.968 48.9133 156.515 49.14C156.061 49.3667 155.701 49.6733 155.435 50.06C155.168 50.4333 155.035 50.8667 155.035 51.36V57C155.035 57.2933 154.941 57.54 154.755 57.74C154.568 57.9267 154.321 58.02 154.015 58.02ZM171.587 58.08C170.547 58.08 169.607 57.84 168.767 57.36C167.941 56.8667 167.281 56.2 166.787 55.36C166.307 54.52 166.067 53.5733 166.067 52.52C166.067 51.4667 166.287 50.5267 166.727 49.7C167.181 48.86 167.794 48.2 168.567 47.72C169.341 47.2267 170.214 46.98 171.187 46.98C171.974 46.98 172.701 47.1467 173.367 47.48C174.034 47.8 174.594 48.24 175.047 48.8V43.4C175.047 43.0933 175.141 42.8467 175.327 42.66C175.527 42.4733 175.774 42.38 176.067 42.38C176.374 42.38 176.621 42.4733 176.807 42.66C176.994 42.8467 177.087 43.0933 177.087 43.4V52.52C177.087 53.5733 176.841 54.52 176.347 55.36C175.867 56.2 175.214 56.8667 174.387 57.36C173.561 57.84 172.627 58.08 171.587 58.08ZM171.587 56.28C172.267 56.28 172.874 56.12 173.407 55.8C173.941 55.4667 174.361 55.0133 174.667 54.44C174.974 53.8667 175.127 53.2267 175.127 52.52C175.127 51.8 174.974 51.16 174.667 50.6C174.361 50.04 173.941 49.6 173.407 49.28C172.874 48.9467 172.267 48.78 171.587 48.78C170.921 48.78 170.314 48.9467 169.767 49.28C169.234 49.6 168.807 50.04 168.487 50.6C168.181 51.16 168.027 51.8 168.027 52.52C168.027 53.2267 168.181 53.8667 168.487 54.44C168.807 55.0133 169.234 55.4667 169.767 55.8C170.314 56.12 170.921 56.28 171.587 56.28ZM185.65 58.08C184.57 58.08 183.616 57.8467 182.79 57.38C181.963 56.9 181.31 56.2467 180.83 55.42C180.363 54.58 180.13 53.62 180.13 52.54C180.13 51.4467 180.363 50.4867 180.83 49.66C181.31 48.82 181.963 48.1667 182.79 47.7C183.616 47.22 184.57 46.98 185.65 46.98C186.716 46.98 187.663 47.22 188.49 47.7C189.316 48.1667 189.963 48.82 190.43 49.66C190.91 50.4867 191.15 51.4467 191.15 52.54C191.15 53.62 190.916 54.58 190.45 55.42C189.983 56.2467 189.336 56.9 188.51 57.38C187.683 57.8467 186.73 58.08 185.65 58.08ZM185.65 56.28C186.343 56.28 186.956 56.12 187.49 55.8C188.023 55.48 188.436 55.04 188.73 54.48C189.036 53.92 189.19 53.2733 189.19 52.54C189.19 51.8067 189.036 51.16 188.73 50.6C188.436 50.0267 188.023 49.58 187.49 49.26C186.956 48.94 186.343 48.78 185.65 48.78C184.956 48.78 184.343 48.94 183.81 49.26C183.276 49.58 182.856 50.0267 182.55 50.6C182.243 51.16 182.09 51.8067 182.09 52.54C182.09 53.2733 182.243 53.92 182.55 54.48C182.856 55.04 183.276 55.48 183.81 55.8C184.343 56.12 184.956 56.28 185.65 56.28ZM196.1 58C195.887 58 195.687 57.94 195.5 57.82C195.327 57.6867 195.207 57.5267 195.14 57.34L192.18 48.46C192.074 48.0467 192.074 47.7133 192.18 47.46C192.3 47.1933 192.554 47.06 192.94 47.06C193.194 47.06 193.4 47.1333 193.56 47.28C193.734 47.4133 193.874 47.6467 193.98 47.98L196.14 54.72L198.18 47.82C198.247 47.5933 198.36 47.4133 198.52 47.28C198.68 47.1333 198.9 47.06 199.18 47.06C199.447 47.06 199.66 47.1333 199.82 47.28C199.994 47.4133 200.107 47.5933 200.16 47.82L201.96 54.86L204.16 47.98C204.347 47.3667 204.694 47.06 205.2 47.06C205.574 47.06 205.827 47.1933 205.96 47.46C206.094 47.7133 206.087 48.0467 205.94 48.46L202.98 57.34C202.927 57.5267 202.814 57.6867 202.64 57.82C202.467 57.94 202.267 58 202.04 58C201.827 58 201.627 57.94 201.44 57.82C201.254 57.6867 201.134 57.5267 201.08 57.34L199.12 50.08L197.06 57.34C197.007 57.5267 196.887 57.6867 196.7 57.82C196.527 57.94 196.327 58 196.1 58ZM209.351 58C209.058 58 208.811 57.9067 208.611 57.72C208.425 57.52 208.331 57.2733 208.331 56.98V48.08C208.331 47.7733 208.425 47.5267 208.611 47.34C208.811 47.1533 209.058 47.06 209.351 47.06C209.658 47.06 209.905 47.1533 210.091 47.34C210.278 47.5267 210.371 47.7733 210.371 48.08V56.98C210.371 57.2733 210.278 57.52 210.091 57.72C209.905 57.9067 209.658 58 209.351 58ZM209.351 45.28C208.991 45.28 208.678 45.1533 208.411 44.9C208.158 44.6333 208.031 44.32 208.031 43.96C208.031 43.6 208.158 43.2933 208.411 43.04C208.678 42.7733 208.991 42.64 209.351 42.64C209.711 42.64 210.018 42.7733 210.271 43.04C210.538 43.2933 210.671 43.6 210.671 43.96C210.671 44.32 210.538 44.6333 210.271 44.9C210.018 45.1533 209.711 45.28 209.351 45.28ZM219.126 58.08C218.06 58.08 217.106 57.84 216.266 57.36C215.44 56.8667 214.786 56.2067 214.306 55.38C213.84 54.54 213.606 53.5933 213.606 52.54C213.606 51.46 213.84 50.5 214.306 49.66C214.773 48.82 215.413 48.1667 216.226 47.7C217.04 47.22 217.973 46.98 219.026 46.98C220.6 46.98 221.906 47.58 222.946 48.78C223.133 48.9933 223.2 49.2133 223.146 49.44C223.093 49.6667 222.946 49.8667 222.706 50.04C222.52 50.1733 222.313 50.22 222.086 50.18C221.86 50.1267 221.653 50.0067 221.466 49.82C220.813 49.1267 220 48.78 219.026 48.78C218 48.78 217.166 49.1267 216.526 49.82C215.886 50.5 215.566 51.4067 215.566 52.54C215.566 53.26 215.713 53.9 216.006 54.46C216.313 55.02 216.733 55.4667 217.266 55.8C217.8 56.12 218.42 56.28 219.126 56.28C220.033 56.28 220.766 56.0467 221.326 55.58C221.54 55.4067 221.76 55.3133 221.986 55.3C222.213 55.2733 222.413 55.3333 222.586 55.48C222.813 55.6667 222.94 55.88 222.966 56.12C222.993 56.3467 222.913 56.5533 222.726 56.74C221.766 57.6333 220.566 58.08 219.126 58.08ZM226.618 58C225.991 58 225.678 57.6867 225.678 57.06C225.678 56.7933 225.738 56.58 225.858 56.42L231.518 48.94H226.418C225.791 48.94 225.478 48.6267 225.478 48C225.478 47.3733 225.791 47.06 226.418 47.06H233.238C233.865 47.06 234.178 47.3733 234.178 48C234.178 48.2667 234.118 48.48 233.998 48.64L228.358 56.12H233.438C234.065 56.12 234.378 56.4333 234.378 57.06C234.378 57.6867 234.065 58 233.438 58H226.618Z" fill="#363636"/>
<g clip-path="url(#clip0)">
<path d="M51.326 55.5019C51.326 55.5019 51.2615 55.3023 51.2357 55.238C51.0794 54.8523 50.6959 54.5986 50.2737 54.5749H42.9371H40.2541H35.2636H33.6941C32.6483 56.6066 31.7605 58.437 31.0531 59.9442C29.9928 62.2043 29.1822 64.033 28.6827 65.1901L28.5264 65.3017L28.1461 66.3573L28.3508 66.5384H42.9983H50.2125H53.5207C54.1507 66.5384 54.6632 66.0021 54.6632 65.339C54.6632 65.339 54.6648 65.3034 54.6632 65.2916C54.2394 62.7287 51.326 55.5019 51.326 55.5019Z" fill="url(#paint0_linear)"/>
<path opacity="0.5" d="M28.449 66.5367L40.8664 54.5732H36.1676" fill="#961B1E"/>
<path opacity="0.89" d="M31.3351 59.9426C31.0402 60.5719 30.7662 61.1657 30.5132 61.7222C29.2435 64.5219 28.5216 66.3489 28.4474 66.535L36.166 54.5732H33.8408C33.8424 54.5749 32.0425 58.437 31.3351 59.9426Z" fill="#961B1E"/>
<path d="M59.5022 25.035C59.4426 25.0857 59.3845 25.1382 59.3265 25.1889C59.3829 25.1382 59.4426 25.0857 59.5022 25.035Z" fill="url(#paint1_linear)"/>
<path d="M60.751 20.454L65.8719 20.1072C63.8529 16.35 61.1216 13.8514 57.425 13.8514L54.5519 23.2723C54.5519 23.2723 55.0934 23.57 55.8604 24.991L57.3719 23.3433C57.3703 23.3416 60.7058 20.4658 60.751 20.454Z" fill="url(#paint2_linear)"/>
<path d="M84.5576 55.4985L84.4674 55.2346C84.4641 55.2296 84.4609 55.2228 84.4593 55.2177C84.7204 55.9908 85.3488 57.3746 85.8677 58.9174C85.3488 57.3763 84.7204 55.9908 84.4593 55.2177C84.2788 54.8506 83.9227 54.5952 83.507 54.5715H75.5806C75.4935 54.5715 73.995 54.5918 73.995 54.5918H71.5537C71.5537 54.5918 72.0065 31.5682 65.8881 20.1359C65.8865 20.1325 65.8848 20.1308 65.8832 20.1275C65.8784 20.1207 65.8752 20.1122 65.8719 20.1055C65.8607 20.1139 57.7747 25.7675 57.0303 27.7552C57.0303 27.7552 57.0238 27.7349 57.0109 27.6994C57.0174 27.718 57.0238 27.7366 57.0303 27.7552C57.1801 28.1933 57.3332 28.6721 57.4863 29.1948C57.7151 29.9797 57.9471 30.8679 58.1743 31.8676C59.5811 38.0524 60.8605 48.5965 60.8605 66.5333H74.2093H75.5806H83.4457H86.7539C87.3614 66.5333 87.8561 66.0359 87.8932 65.4083C87.8948 65.3829 87.8948 65.3593 87.8948 65.3339C87.8948 65.3339 87.8964 65.2984 87.8948 65.2865C87.471 62.727 84.5576 55.4985 84.5576 55.4985ZM59.3249 25.1855C59.3829 25.1348 59.4409 25.0824 59.5005 25.0316C59.4409 25.084 59.3829 25.1348 59.3249 25.1855ZM60.1628 24.47C60.2563 24.3922 60.3513 24.3143 60.4464 24.2348C60.3497 24.3143 60.2563 24.3922 60.1628 24.47ZM62.1335 22.8967C62.2318 22.8223 62.3285 22.7479 62.4252 22.6734C62.3285 22.7462 62.2318 22.8206 62.1335 22.8967ZM63.0053 22.2336C63.1294 22.1405 63.2502 22.0492 63.3695 21.9612C63.2502 22.0509 63.1278 22.1422 63.0053 22.2336Z" fill="url(#paint3_linear)"/>
<path d="M62.4252 22.6751C62.3285 22.7495 62.2318 22.824 62.1335 22.8984C62.2318 22.824 62.3285 22.7495 62.4252 22.6751Z" fill="url(#paint4_linear)"/>
<path opacity="0.85" d="M57.0109 27.7011C56.8917 27.3543 56.7725 27.0346 56.6564 26.7385C56.8288 27.1817 56.9626 27.5624 57.0109 27.7011Z" fill="#2B3990"/>
<path opacity="0.85" d="M55.8524 24.9978C55.8715 25.0266 55.8923 25.0587 55.9115 25.0925C55.8939 25.0587 55.8763 25.0249 55.8587 24.991L55.8524 24.9978Z" fill="#2B3990"/>
<path d="M65.8719 20.1072L60.7509 20.454C60.7058 20.4658 57.3702 23.3433 57.3702 23.3433L55.8588 24.991C55.8765 25.0249 55.8942 25.057 55.9119 25.0925C56.1504 25.485 56.434 26.165 56.6564 26.7402C56.7724 27.0363 56.8917 27.356 57.0109 27.7028C57.0238 27.7383 57.0302 27.7586 57.0302 27.7586C57.7747 25.7692 65.8607 20.1139 65.8719 20.1072Z" fill="url(#paint5_linear)"/>
<path opacity="0.85" d="M65.9138 20.185L65.8719 20.1055L60.7509 20.4523C60.7058 20.4641 57.3702 23.3416 57.3702 23.3416L55.8588 24.9893C55.8765 25.0231 55.8942 25.0553 55.9119 25.0908C56.1504 25.4833 56.434 26.1633 56.6564 26.7385C56.7724 27.0345 56.8917 27.3543 57.0109 27.7011C57.0238 27.7366 57.0302 27.7569 57.0302 27.7569C57.7747 25.7692 65.9138 20.185 65.9138 20.185Z" fill="#2B3990"/>
<path opacity="0.7" d="M65.9139 20.185C65.9139 20.185 57.7747 25.7675 57.0303 27.7569C57.1801 28.1951 57.3332 28.6738 57.4863 29.1965C57.7151 29.9815 57.9472 30.8696 58.1744 31.8694C58.5756 29.9189 65.9139 20.185 65.9139 20.185Z" fill="#2B3990"/>
<path opacity="0.7" d="M65.9139 20.185C65.9139 20.185 65.8768 20.1156 65.872 20.1055L65.8655 20.1072L65.8252 20.1173C63.3292 20.662 60.7671 21.7667 58.2114 23.4025C57.4396 23.8965 56.6613 24.4446 55.8813 25.0401C55.8813 25.0401 61.5309 21.0122 65.8945 20.1884L65.9139 20.185Z" fill="white"/>
<path d="M48.991 14.2997C37.9772 20.679 20.3164 51.5807 20.8675 56.1329C21.3815 60.3841 27.8303 66.0816 28.3282 66.5147L28.4233 66.2897L28.8471 65.2933L29.2096 64.3798C29.4497 63.8216 29.7333 63.1703 30.0588 62.4429V62.4412C30.402 61.6748 30.7904 60.8222 31.2222 59.9037C31.9248 58.4065 32.8062 56.5897 33.844 54.5732C35.3313 51.6788 37.1393 48.3733 39.197 45.0136C43.1191 38.6056 47.1315 33.309 51.1197 29.2726C53.4884 26.8739 55.8749 24.8997 58.2146 23.4026C60.7703 21.7667 63.3324 20.662 65.8284 20.1173L65.8752 20.1055C65.4933 19.3493 59.6359 8.13356 48.991 14.2997Z" fill="url(#paint6_linear)"/>
<path opacity="0.7" d="M31.2222 59.9054C30.7904 60.8239 30.402 61.6765 30.0588 62.4429V62.4445C29.7333 63.172 29.4497 63.8233 29.2096 64.3815L28.8471 65.295L28.3282 66.5164L28.354 66.5384H28.4523C28.5264 66.3506 29.237 64.5253 30.5068 61.7256C30.7598 61.169 31.024 60.5972 31.3189 59.9696C32.0263 58.4641 33.844 54.58 33.8456 54.5766C32.8062 56.5897 31.9248 58.4082 31.2222 59.9054Z" fill="white"/>
</g>
<defs>
<linearGradient id="paint0_linear" x1="28.1478" y1="60.5551" x2="54.664" y2="60.5551" gradientUnits="userSpaceOnUse">
<stop stop-color="#D65033"/>
<stop offset="0.5054" stop-color="#E47B41"/>
<stop offset="0.6292" stop-color="#E79045"/>
<stop offset="0.7843" stop-color="#EAA74B"/>
<stop offset="0.9135" stop-color="#ECB54E"/>
<stop offset="1" stop-color="#EDBA4F"/>
</linearGradient>
<linearGradient id="paint1_linear" x1="71.204" y1="71.2712" x2="55.0134" y2="13.7554" gradientUnits="userSpaceOnUse">
<stop stop-color="#8DC85A"/>
<stop offset="0.3566" stop-color="#27AAE1"/>
<stop offset="0.5126" stop-color="#2192D0"/>
<stop offset="0.7123" stop-color="#1C77BD"/>
<stop offset="1" stop-color="#1C75BC"/>
</linearGradient>
<linearGradient id="paint2_linear" x1="72.764" y1="70.8319" x2="56.5729" y2="13.3165" gradientUnits="userSpaceOnUse">
<stop stop-color="#8DC85A"/>
<stop offset="0.3566" stop-color="#27AAE1"/>
<stop offset="0.5126" stop-color="#2192D0"/>
<stop offset="0.7123" stop-color="#1C77BD"/>
<stop offset="1" stop-color="#1C75BC"/>
</linearGradient>
<linearGradient id="paint3_linear" x1="75.4562" y1="70.0714" x2="59.2651" y2="12.556" gradientUnits="userSpaceOnUse">
<stop stop-color="#8DC85A"/>
<stop offset="0.3566" stop-color="#27AAE1"/>
<stop offset="0.5126" stop-color="#2192D0"/>
<stop offset="0.7123" stop-color="#1C77BD"/>
<stop offset="1" stop-color="#1C75BC"/>
</linearGradient>
<linearGradient id="paint4_linear" x1="74.4324" y1="70.3609" x2="58.2427" y2="12.8467" gradientUnits="userSpaceOnUse">
<stop stop-color="#8DC85A"/>
<stop offset="0.3566" stop-color="#27AAE1"/>
<stop offset="0.5126" stop-color="#2192D0"/>
<stop offset="0.7123" stop-color="#1C77BD"/>
<stop offset="1" stop-color="#1C75BC"/>
</linearGradient>
<linearGradient id="paint5_linear" x1="73.1691" y1="70.7179" x2="56.978" y2="13.2024" gradientUnits="userSpaceOnUse">
<stop stop-color="#8DC85A"/>
<stop offset="0.3566" stop-color="#27AAE1"/>
<stop offset="0.5126" stop-color="#2192D0"/>
<stop offset="0.7123" stop-color="#1C77BD"/>
<stop offset="1" stop-color="#1C75BC"/>
</linearGradient>
<linearGradient id="paint6_linear" x1="20.6622" y1="58.6784" x2="64.1086" y2="17.2938" gradientUnits="userSpaceOnUse">
<stop stop-color="#F15A4A"/>
<stop offset="0.0368438" stop-color="#F05050"/>
<stop offset="0.1231" stop-color="#EF385A"/>
<stop offset="0.1713" stop-color="#EE2B5C"/>
<stop offset="0.4052" stop-color="#BE5B8D"/>
<stop offset="0.547" stop-color="#A06AAD"/>
<stop offset="0.8524" stop-color="#5C4A9E"/>
</linearGradient>
<clipPath id="clip0">
<rect width="106.116" height="83" fill="white"/>
</clipPath>
</defs>
</svg>
