<svg width="486" height="486" viewBox="0 0 486 486" fill="none" xmlns="http://www.w3.org/2000/svg">
<g clip-path="url(#clip0)">
<path d="M292.754 387.831C292.754 393.976 291.579 399.846 289.44 405.231C288.297 408.112 286.878 410.853 285.214 413.422C283.143 416.625 280.692 419.561 277.927 422.164C276.308 423.691 274.583 425.102 272.762 426.388C265.08 431.814 255.706 435 245.585 435C235.463 435 226.089 431.814 218.407 426.388C216.128 424.779 213.999 422.975 212.044 420.996C203.617 412.476 198.415 400.759 198.415 387.831C198.415 374.903 203.617 363.185 212.044 354.666C214.114 352.571 216.38 350.671 218.812 348.992C226.417 343.738 235.641 340.662 245.585 340.662C255.529 340.662 264.753 343.738 272.358 348.992C274.215 350.273 275.975 351.686 277.625 353.216C280.515 355.889 283.068 358.921 285.215 362.24C286.878 364.808 288.297 367.55 289.441 370.43C291.579 375.815 292.754 381.685 292.754 387.831Z" fill="#E4BA42"/>
<path d="M264.689 378.61C263.266 374.482 257.429 374.482 256.29 377.898C255.151 381.315 258.995 383.308 264.974 385.301C270.953 387.294 274.655 392.562 273.943 397.259C273.231 401.957 271.238 408.079 259.422 408.079C252.037 408.079 247.933 403.463 245.894 400.001L252.589 395.978C252.589 395.978 254.867 400.818 259.137 400.818C263.408 400.818 265.116 399.395 265.116 396.121C265.116 392.134 251.307 390.711 249.172 383.878C247.037 377.044 249.884 367.364 259.849 368.075C266.077 368.52 269.581 371.579 271.333 373.81L264.689 378.61Z" fill="#F2F2F2"/>
<path d="M233.655 368.787C233.655 368.787 233.655 392.846 233.655 396.121C233.655 399.395 230.807 401.103 227.96 400.534C225.113 399.964 223.832 396.548 223.832 396.548L217.283 400.961C217.283 400.961 218.707 407.51 227.675 408.079C236.644 408.649 241.769 403.239 241.769 398.683C241.769 394.128 241.769 368.787 241.769 368.787H233.655Z" fill="#F2F2F2"/>
</g>
<g clip-path="url(#clip1)">
<path d="M195.185 232.754H287.585V263.769H241.385V268.938H220.851V263.769H195.185V232.754ZM200.318 258.6H210.585V243.092H215.718V258.6H220.851V237.923H200.318V258.6ZM225.985 237.923V263.769H236.251V258.6H246.518V237.923H225.985ZM236.251 243.092H241.385V253.431H236.251V243.092ZM251.651 237.923V258.6H261.918V243.092H267.051V258.6H272.185V243.092H277.318V258.6H282.451V237.923H251.651Z" fill="#CB3837"/>
<path d="M200.318 258.6H210.585V243.092H215.718V258.6H220.851V237.923H200.318V258.6Z" fill="white"/>
<path d="M225.985 237.923V263.769H236.251V258.6H246.518V237.923H225.985ZM241.385 253.431H236.251V243.092H241.385V253.431Z" fill="white"/>
<path d="M251.651 237.923V258.6H261.918V243.092H267.051V258.6H272.185V243.092H277.318V258.6H282.451V237.923H251.651Z" fill="white"/>
</g>
<g clip-path="url(#clip2)">
<path d="M79.4019 299.954L85.0144 363.342L110.215 370.385L135.408 363.346L141.029 299.954H79.4019Z" fill="#2196F3"/>
<path d="M129.029 320.682L128.321 328.646L126.181 352.517L110.215 356.932L110.202 356.937L94.2452 352.517L93.1315 340.033H100.949L101.53 346.509L110.207 348.85L110.211 348.846L118.9 346.504L120.085 335.715L92.7574 335.79L91.9826 328.412L120.74 328.073L121.321 320.176L91.2123 320.26L90.7061 312.913H110.215H129.725L129.029 320.682Z" fill="#FAFAFA"/>
</g>
<g clip-path="url(#clip3)">
<path d="M411 156.508C411 168.216 405.337 178.602 396.602 185.078C392.945 187.787 388.75 189.812 384.207 190.961C381.409 191.67 378.48 192.046 375.462 192.046C372.443 192.046 369.513 191.67 366.715 190.961C362.172 189.812 357.977 187.787 354.32 185.076C345.585 178.601 339.923 168.215 339.923 156.508C339.923 136.88 355.834 120.969 375.462 120.969C395.089 120.969 411 136.88 411 156.508Z" fill="#5ADAFD"/>
<path d="M393.764 168.978C393.625 168.048 393.442 167.091 393.216 166.113C393.016 165.254 392.783 164.377 392.519 163.488C391.825 161.152 390.91 158.725 389.801 156.271C389.316 155.198 388.792 154.121 388.234 153.044C387.743 152.096 387.224 151.146 386.678 150.202C386.134 149.257 385.572 148.334 384.995 147.434C384.343 146.413 383.671 145.422 382.984 144.465C381.415 142.278 379.77 140.271 378.093 138.502C377.456 137.828 376.813 137.189 376.169 136.588C375.435 135.901 374.697 135.263 373.961 134.679C369.153 130.862 364.849 129.715 361.839 131.452C358.83 133.19 357.67 137.49 358.572 143.564C358.709 144.493 358.894 145.45 359.122 146.429C359.319 147.288 359.552 148.164 359.817 149.054C360.511 151.389 361.426 153.818 362.536 156.271C363.021 157.343 363.544 158.42 364.102 159.496C364.593 160.446 365.113 161.394 365.658 162.339C366.202 163.284 366.764 164.207 367.341 165.107C367.995 166.13 368.666 167.12 369.352 168.077C370.921 170.265 372.566 172.27 374.243 174.04C374.88 174.713 375.524 175.353 376.169 175.955C376.903 176.642 377.64 177.278 378.375 177.863C380.144 179.267 381.843 180.309 383.435 180.978C387.21 180.024 390.696 178.341 393.734 176.09C394.158 174.135 394.174 171.74 393.764 168.978ZM391.057 175.651C390.706 177.167 390.061 178.206 389.139 178.738C388.219 179.271 386.997 179.309 385.508 178.856C383.895 178.363 382.013 177.286 380.063 175.737C379.407 175.216 378.75 174.65 378.093 174.041C377.45 173.443 376.806 172.804 376.167 172.128C375.07 170.968 373.986 169.697 372.928 168.334C372.221 167.424 371.526 166.473 370.847 165.486C369.863 164.055 368.912 162.549 368.008 160.982C367.103 159.415 366.273 157.839 365.527 156.271C365.011 155.19 364.535 154.112 364.101 153.045C363.449 151.447 362.891 149.872 362.435 148.343C362.169 147.451 361.937 146.576 361.743 145.719C361.543 144.846 361.38 143.993 361.257 143.165C360.891 140.703 360.899 138.533 361.279 136.89C361.629 135.374 362.275 134.335 363.196 133.804C363.694 133.517 364.279 133.372 364.945 133.372C365.514 133.372 366.143 133.477 366.828 133.687C368.44 134.178 370.323 135.257 372.273 136.805C372.928 137.325 373.587 137.892 374.242 138.503C374.887 139.1 375.53 139.738 376.167 140.413C377.265 141.574 378.35 142.844 379.409 144.209C380.116 145.119 380.811 146.07 381.49 147.057C382.473 148.487 383.424 149.994 384.328 151.56C385.233 153.126 386.062 154.703 386.808 156.271C387.324 157.353 387.8 158.431 388.234 159.497C388.886 161.096 389.444 162.67 389.901 164.199C390.166 165.091 390.399 165.966 390.594 166.823C390.793 167.695 390.956 168.549 391.079 169.377C391.445 171.839 391.437 174.008 391.057 175.651Z" fill="#F2F2F2"/>
<path d="M395.971 147.387C395.097 147.042 394.176 146.723 393.214 146.429C392.371 146.172 391.496 145.934 390.593 145.719C388.223 145.152 385.663 144.73 382.984 144.465C381.814 144.348 380.619 144.263 379.409 144.209C378.341 144.159 377.259 144.134 376.168 144.134C375.078 144.134 373.995 144.159 372.926 144.209C371.715 144.263 370.521 144.35 369.35 144.465C366.671 144.73 364.112 145.152 361.743 145.719C360.84 145.934 359.965 146.172 359.121 146.429C358.16 146.721 357.239 147.042 356.365 147.387C350.656 149.641 347.51 152.796 347.51 156.271C347.51 159.745 350.656 162.901 356.365 165.156C357.239 165.5 358.158 165.82 359.12 166.114C359.964 166.371 360.839 166.608 361.742 166.823C364.111 167.39 366.671 167.811 369.352 168.077C370.522 168.193 371.716 168.279 372.928 168.334C373.995 168.383 375.078 168.408 376.168 168.408C377.259 168.408 378.34 168.383 379.408 168.334C380.619 168.279 381.813 168.193 382.984 168.077C385.663 167.812 388.225 167.39 390.594 166.823C391.497 166.607 392.372 166.371 393.216 166.113C394.176 165.82 395.097 165.501 395.971 165.156C401.681 162.901 404.826 159.745 404.826 156.271C404.826 152.796 401.681 149.641 395.971 147.387ZM400.396 159.474C399.165 160.625 397.289 161.716 394.974 162.631C394.194 162.938 393.375 163.225 392.519 163.488C391.679 163.747 390.805 163.984 389.901 164.199C388.347 164.569 386.705 164.873 384.994 165.108C383.854 165.265 382.684 165.392 381.49 165.485C379.758 165.624 377.977 165.693 376.168 165.693C374.359 165.693 372.579 165.624 370.847 165.486C369.653 165.392 368.481 165.266 367.341 165.108C365.631 164.873 363.988 164.569 362.434 164.199C361.531 163.984 360.657 163.747 359.817 163.488C358.961 163.225 358.141 162.938 357.362 162.631C355.046 161.716 353.171 160.625 351.939 159.474C350.801 158.412 350.224 157.335 350.224 156.271C350.224 155.207 350.801 154.129 351.939 153.067C353.171 151.916 355.046 150.825 357.362 149.911C358.141 149.603 358.961 149.317 359.817 149.054C360.657 148.795 361.531 148.557 362.434 148.343C363.988 147.973 365.631 147.669 367.341 147.434C368.481 147.276 369.653 147.149 370.847 147.055C372.579 146.918 374.359 146.848 376.168 146.848C377.977 146.848 379.758 146.918 381.49 147.057C382.684 147.15 383.854 147.276 384.994 147.434C386.705 147.669 388.347 147.973 389.901 148.343C390.805 148.557 391.679 148.795 392.519 149.054C393.375 149.317 394.194 149.604 394.974 149.911C397.289 150.826 399.165 151.916 400.396 153.067C401.534 154.129 402.112 155.207 402.112 156.271C402.112 157.335 401.534 158.412 400.396 159.474Z" fill="#F2F2F2"/>
<path d="M390.496 131.452C387.487 129.715 383.183 130.862 378.375 134.679C377.64 135.263 376.902 135.901 376.168 136.588C375.524 137.189 374.88 137.829 374.243 138.503C372.566 140.272 370.921 142.278 369.35 144.465C368.665 145.422 367.993 146.413 367.341 147.434C366.764 148.334 366.202 149.257 365.658 150.202C365.113 151.147 364.593 152.096 364.102 153.045C363.544 154.122 363.02 155.199 362.536 156.271C361.426 158.724 360.511 161.152 359.817 163.488C359.552 164.378 359.319 165.254 359.12 166.114C358.894 167.092 358.709 168.048 358.572 168.977C358.162 171.739 358.178 174.134 358.602 176.088C361.64 178.341 365.126 180.024 368.901 180.978C370.493 180.309 372.192 179.267 373.961 177.863C374.697 177.278 375.435 176.641 376.169 175.955C376.813 175.353 377.456 174.714 378.093 174.041C379.769 172.271 381.415 170.265 382.984 168.077C383.67 167.12 384.342 166.129 384.995 165.107C385.572 164.207 386.134 163.284 386.678 162.339C387.224 161.395 387.743 160.447 388.235 159.497C388.793 158.421 389.316 157.343 389.801 156.27C390.91 153.818 391.825 151.389 392.519 149.053C392.783 148.164 393.016 147.288 393.215 146.428C393.442 145.45 393.626 144.493 393.764 143.564C394.665 137.49 393.506 133.19 390.496 131.452ZM389.901 148.343C389.444 149.872 388.886 151.446 388.234 153.044C387.8 154.111 387.324 155.188 386.808 156.271C386.062 157.839 385.233 159.415 384.328 160.982C383.424 162.548 382.473 164.054 381.49 165.485C380.81 166.473 380.115 167.424 379.408 168.334C378.35 169.697 377.265 170.967 376.167 172.128C375.53 172.803 374.887 173.442 374.243 174.04C373.587 174.649 372.929 175.216 372.273 175.737C370.323 177.285 368.44 178.363 366.828 178.856C365.339 179.309 364.117 179.27 363.196 178.738C362.276 178.206 361.63 177.167 361.279 175.651C360.899 174.008 360.891 171.839 361.257 169.376C361.38 168.549 361.543 167.695 361.742 166.823C361.937 165.966 362.17 165.091 362.435 164.199C362.891 162.669 363.45 161.094 364.102 159.496C364.536 158.429 365.012 157.352 365.527 156.271C366.273 154.703 367.103 153.126 368.008 151.559C368.912 149.992 369.863 148.486 370.847 147.055C371.526 146.068 372.22 145.117 372.926 144.209C373.986 142.844 375.071 141.574 376.167 140.413C376.806 139.737 377.45 139.098 378.093 138.502C378.75 137.892 379.407 137.325 380.063 136.805C382.013 135.257 383.895 134.178 385.508 133.687C386.193 133.477 386.822 133.372 387.391 133.372C388.057 133.372 388.643 133.517 389.139 133.804C390.061 134.335 390.706 135.374 391.057 136.89C391.436 138.533 391.445 140.702 391.079 143.165C390.956 143.993 390.793 144.846 390.593 145.719C390.399 146.576 390.166 147.451 389.901 148.343Z" fill="#F2F2F2"/>
<path d="M376.168 161.657C379.143 161.657 381.555 159.245 381.555 156.271C381.555 153.296 379.143 150.884 376.168 150.884C373.194 150.884 370.782 153.296 370.782 156.271C370.782 159.245 373.194 161.657 376.168 161.657Z" fill="#F2F2F2"/>
</g>
<g clip-path="url(#clip4)">
<rect x="348.969" y="290.262" width="54.9231" height="54.9231" rx="27.4615" fill="#C16A6A"/>
<path d="M403.892 317.723C403.892 318.572 403.854 319.41 403.778 320.238C403.72 320.894 403.637 321.542 403.531 322.182C401.402 335.228 390.079 345.185 376.431 345.185C369.479 345.185 363.132 342.602 358.294 338.343C356.506 336.77 354.924 334.968 353.595 332.982C350.673 328.618 348.969 323.369 348.969 317.723C348.969 302.556 361.264 290.262 376.431 290.262C391.597 290.262 403.892 302.556 403.892 317.723Z" fill="#D0E1E8"/>
<path d="M394.872 320.848C394.172 321.111 394.2 321.116 393.83 320.445C393.357 319.59 393.105 318.691 393.083 317.713C393.065 316.875 393.296 316.095 393.587 315.33C393.818 314.721 393.517 314.507 392.987 314.451C392.601 314.412 392.204 314.416 391.817 314.455C390.812 314.557 390.713 314.644 390.446 315.614C390.288 316.189 390.162 316.77 389.899 317.316C389.25 318.661 388.513 319.957 387.757 321.243C387.621 321.474 387.509 321.723 387.318 321.921C386.77 321.106 386.564 320.205 386.517 319.26C386.471 318.327 386.759 317.46 387.074 316.603C387.181 316.314 387.092 316.135 386.842 316.01C386.73 315.955 386.606 315.903 386.484 315.894C385.84 315.843 385.197 315.851 384.568 316.026C384.285 316.104 384.1 316.261 384.037 316.577C383.915 317.195 383.723 317.795 383.465 318.372C382.748 319.971 382.037 321.573 381.321 323.173C380.699 324.564 380.086 325.957 379.349 327.292C379.297 327.387 379.254 327.551 379.124 327.518C378.992 327.485 379.038 327.324 379.032 327.213C378.99 326.426 379.206 325.675 379.39 324.923C379.681 323.734 379.999 322.55 380.309 321.364C380.397 321.024 380.248 320.795 379.965 320.632C379.557 320.399 379.15 320.388 378.708 320.715C378.768 320.231 378.795 319.806 378.774 319.382C378.727 318.435 378.286 317.819 377.517 317.677C376.957 317.573 376.426 317.735 375.924 317.971C374.755 318.521 373.816 319.351 373.026 320.358C372.933 320.475 372.84 320.583 372.706 320.655C371.223 321.458 369.741 322.261 368.262 323.072C368.1 323.162 367.995 323.137 367.879 323.012C367.134 322.218 366.269 321.563 365.413 320.898C364.217 319.969 362.979 319.087 361.947 317.966C361.344 317.31 360.84 316.591 360.589 315.723C360.178 314.304 360.485 312.982 361.169 311.726C361.979 310.241 363.18 309.093 364.505 308.072C366.608 306.45 368.914 305.162 371.346 304.102C374.068 302.916 376.892 302.152 379.901 302.268C381.092 302.313 382.249 302.519 383.31 303.099C384.062 303.51 384.559 304.103 384.7 304.974C384.865 305.993 384.619 306.936 384.163 307.829C383.146 309.825 381.53 311.238 379.619 312.345C378.027 313.266 376.311 313.851 374.494 314.158C373.49 314.328 372.483 314.43 371.473 314.277C370.314 314.102 369.243 313.716 368.451 312.788C368.359 312.682 368.243 312.607 368.088 312.682C367.928 312.759 367.941 312.9 367.956 313.035C367.967 313.128 367.993 313.221 368.025 313.31C368.238 313.879 368.634 314.308 369.099 314.683C370.308 315.66 371.74 315.947 373.243 315.976C374.715 316.006 376.164 315.82 377.598 315.479C380.832 314.71 383.541 313.133 385.519 310.429C386.701 308.813 387.45 307.032 387.384 304.994C387.341 303.702 386.904 302.56 385.956 301.632C384.83 300.531 383.432 299.977 381.932 299.644C380.261 299.275 378.574 299.222 376.87 299.425C375.387 299.601 373.938 299.903 372.528 300.385C370.37 301.125 368.286 302.033 366.291 303.137C364.247 304.268 362.321 305.562 360.632 307.184C359.137 308.619 357.852 310.202 357.128 312.168C356.819 313.01 356.596 313.875 356.804 314.785C357.07 315.957 357.65 316.971 358.414 317.886C359.569 319.271 360.986 320.362 362.447 321.405C363.62 322.243 364.849 323.006 365.976 323.906C366.296 324.161 366.294 324.161 365.918 324.357C365.478 324.585 365.034 324.804 364.603 325.047C362.862 326.026 361.179 327.087 359.805 328.562C359.13 329.288 358.67 330.104 358.457 331.009C359.575 332.67 360.905 334.177 362.408 335.492C364.973 335.294 366.937 333.966 368.388 331.771C369.088 330.711 369.416 329.511 369.54 328.246C369.648 327.13 369.534 326.05 369.204 324.985C369.147 324.798 368.933 324.611 369.017 324.446C369.095 324.295 369.33 324.218 369.504 324.118C370.203 323.714 370.905 323.316 371.625 322.905C371.656 323.058 371.596 323.148 371.569 323.246C371.156 324.752 370.869 326.271 371.183 327.836C371.378 328.811 371.703 329.728 372.322 330.536C372.958 331.366 374.379 331.271 374.955 330.513C375.503 329.793 375.866 328.981 376.244 328.173C376.451 327.731 376.642 327.281 376.84 326.834C376.803 327.372 376.805 327.897 376.825 328.42C376.845 328.935 376.928 329.444 377.197 329.9C377.521 330.447 378.131 330.607 378.698 330.314C379.296 330.006 379.703 329.498 380.02 328.947C381.378 326.576 382.638 324.155 383.682 321.627C383.904 321.09 384.132 320.554 384.384 319.956C384.423 320.152 384.448 320.272 384.472 320.392C384.704 321.597 385.117 322.737 385.714 323.808C385.843 324.038 385.828 324.196 385.666 324.416C385.116 325.162 384.512 325.863 383.918 326.571C383.418 327.168 382.883 327.737 382.461 328.394C382.082 328.984 382.3 329.589 382.931 329.723C383.125 329.764 383.329 329.776 383.528 329.773C384.63 329.76 385.647 329.433 386.595 328.897C387.87 328.174 388.626 327.115 388.591 325.607C388.575 324.921 388.389 324.262 388.111 323.633C388.049 323.493 388.047 323.392 388.138 323.261C389.021 322.003 389.802 320.684 390.519 319.327C390.647 319.088 390.736 318.822 390.942 318.589C390.969 318.683 390.991 318.743 391.003 318.804C391.231 319.928 391.538 321.028 392.115 322.032C392.274 322.306 392.194 322.446 391.976 322.63C391.222 323.266 390.587 324.009 390.088 324.859C389.7 325.521 389.434 326.227 389.437 327.003C389.44 327.865 390.104 328.373 390.949 328.17C391.831 327.96 392.648 327.603 393.381 327.07C394.979 325.907 395.448 324.68 394.947 322.967C394.751 322.293 394.755 322.305 395.434 322.1C396.921 321.654 398.429 321.635 399.945 321.881C400.117 321.909 400.286 321.941 400.454 321.977C400.543 321.442 400.612 320.9 400.662 320.352C398.722 319.881 396.786 320.125 394.872 320.848ZM363.46 332.907C363.029 333.059 362.582 333.124 362.124 333.088C361.553 333.043 361.191 332.643 361.154 332.041C361.113 331.347 361.319 330.721 361.625 330.112C362.18 329.006 363.112 328.255 364.064 327.518C364.988 326.801 365.982 326.189 366.987 325.594C367.291 325.414 367.296 325.416 367.366 325.777C367.456 326.24 367.537 326.704 367.507 327.125C367.586 329.649 365.743 332.104 363.46 332.907ZM377.297 320.179C377.137 321.243 376.787 322.256 376.415 323.257C375.907 324.624 375.414 325.997 374.775 327.311C374.629 327.614 374.476 327.915 374.239 328.161C374.016 328.395 373.818 328.367 373.663 328.082C373.361 327.526 373.399 326.906 373.35 326.456C373.364 324.199 374.126 322.354 375.381 320.696C375.731 320.234 376.179 319.858 376.772 319.707C377.174 319.605 377.36 319.766 377.297 320.179ZM386.083 326.861C385.653 327.6 385.034 328.137 384.274 328.519C384.193 328.56 384.088 328.631 384.015 328.536C383.945 328.447 384.057 328.388 384.108 328.332C384.863 327.512 385.609 326.685 386.281 325.795C386.291 325.781 386.317 325.779 386.374 325.755C386.368 326.167 386.277 326.528 386.083 326.861ZM391.297 326.829C391.185 326.882 391.055 326.98 390.945 326.896C390.825 326.803 390.873 326.639 390.909 326.513C391.081 325.941 391.312 325.392 391.631 324.881C391.898 324.451 392.23 324.075 392.595 323.725C392.742 323.584 392.808 323.601 392.858 323.803C392.91 324.011 392.914 324.218 392.918 324.429C392.909 325.583 392.32 326.35 391.297 326.829Z" fill="#CD6699"/>
</g>
<g clip-path="url(#clip5)">
<path d="M202.429 50.5385L206.683 110.483L232.688 119.031L258.694 110.483L262.948 50.5385H202.429Z" fill="#FF7816"/>
<path d="M262.948 50.5385L258.694 110.483L232.688 119.031V50.5385H262.948Z" fill="#FF4B00"/>
<path d="M251.591 68.7317H221.852L222.575 78.7648H250.868L249.142 103.058L232.688 108.556L216.234 103.058L215.672 94.9514H223.699L223.859 97.1587L232.688 100.088L241.517 97.1587L242.239 86.7912H215.07L213.224 60.7053H252.152L251.591 68.7317Z" fill="#ECECF1"/>
<path d="M250.868 78.7648L249.142 103.058L232.688 108.556V100.088L241.517 97.1587L242.239 86.7912H232.688V78.7648H250.868Z" fill="#E2E2E7"/>
<path d="M252.152 60.7053L251.591 68.7317H232.688V60.7053H252.152Z" fill="#E2E2E7"/>
</g>
<g clip-path="url(#clip6)">
<path d="M111.816 170.53C116.133 170.435 119.544 166.103 119.429 160.86L119.22 151.361L111.399 151.533C107.082 151.628 103.672 155.96 103.787 161.203C103.902 166.446 107.499 170.624 111.816 170.53Z" fill="#0ACF83"/>
<path d="M103.37 142.206C103.255 136.963 106.666 132.631 110.983 132.536L118.803 132.364L119.22 151.361L111.399 151.533C107.082 151.628 103.485 147.449 103.37 142.206Z" fill="#A259FF"/>
<path d="M102.954 123.209C102.839 117.966 106.249 113.634 110.566 113.539L118.387 113.368L118.804 132.364L110.983 132.536C106.666 132.631 103.069 128.452 102.954 123.209Z" fill="#F24E1E"/>
<path d="M118.386 113.368L126.207 113.196C130.524 113.101 134.121 117.28 134.236 122.523C134.351 127.766 130.941 132.098 126.624 132.193L118.803 132.364L118.386 113.368Z" fill="#FF7262"/>
<path d="M134.653 141.519C134.768 146.763 131.358 151.095 127.041 151.19C122.724 151.284 119.127 147.106 119.012 141.863C118.897 136.62 122.307 132.287 126.624 132.193C130.941 132.098 134.538 136.276 134.653 141.519Z" fill="#1ABCFE"/>
</g>
<circle cx="243" cy="243" r="241.5" stroke="#5FC5C5" stroke-width="3"/>
<circle cx="243" cy="243" r="170" fill="#2F97D1"/>
<circle cx="243" cy="243" r="100" fill="#156469"/>
<defs>
<clipPath id="clip0">
<rect width="94.3385" height="94.3385" fill="white" transform="translate(198.415 340.662)"/>
</clipPath>
<clipPath id="clip1">
<rect width="92.4" height="36.1846" fill="white" transform="translate(195.185 232.754)"/>
</clipPath>
<clipPath id="clip2">
<rect width="70.4308" height="70.4308" fill="white" transform="translate(75 299.954)"/>
</clipPath>
<clipPath id="clip3">
<rect width="71.0769" height="71.0769" fill="white" transform="translate(339.923 120.969)"/>
</clipPath>
<clipPath id="clip4">
<rect x="348.969" y="290.262" width="54.9231" height="54.9231" rx="27.4615" fill="white"/>
</clipPath>
<clipPath id="clip5">
<rect width="68.4923" height="68.4923" fill="white" transform="translate(198.415 50.5385)"/>
</clipPath>
<clipPath id="clip6">
<rect width="31.2964" height="57.0042" fill="white" transform="translate(102.742 113.711) rotate(-1.25737)"/>
</clipPath>
</defs>
</svg>
