<svg width="39" height="40" viewBox="0 0 39 40" fill="none" xmlns="http://www.w3.org/2000/svg">
<path fill-rule="evenodd" clip-rule="evenodd" d="M14.625 31.25C14.625 30.5596 15.1707 30 15.8438 30H32.9062C33.5793 30 34.125 30.5596 34.125 31.25C34.125 31.9404 33.5793 32.5 32.9062 32.5H15.8438C15.1707 32.5 14.625 31.9404 14.625 31.25Z" fill="black"/>
<path fill-rule="evenodd" clip-rule="evenodd" d="M4.875 23.75C4.875 23.0596 5.42065 22.5 6.09375 22.5H32.9062C33.5793 22.5 34.125 23.0596 34.125 23.75C34.125 24.4404 33.5793 25 32.9062 25H6.09375C5.42065 25 4.875 24.4404 4.875 23.75Z" fill="black"/>
<path fill-rule="evenodd" clip-rule="evenodd" d="M4.875 16.25C4.875 15.5596 5.42065 15 6.09375 15H32.9062C33.5793 15 34.125 15.5596 34.125 16.25C34.125 16.9404 33.5793 17.5 32.9062 17.5H6.09375C5.42065 17.5 4.875 16.9404 4.875 16.25Z" fill="black"/>
<path fill-rule="evenodd" clip-rule="evenodd" d="M4.875 8.75C4.875 8.05964 5.42065 7.5 6.09375 7.5H32.9062C33.5793 7.5 34.125 8.05964 34.125 8.75C34.125 9.44036 33.5793 10 32.9062 10H6.09375C5.42065 10 4.875 9.44036 4.875 8.75Z" fill="black"/>
</svg>
