<svg width="352" height="250" viewBox="0 0 352 250" fill="none" xmlns="http://www.w3.org/2000/svg">
<g clip-path="url(#clip0)">
<path style="mix-blend-mode:multiply" opacity="0.15" d="M209.85 56.2121L70.1766 53.4809C64.8233 53.3772 60.4514 49.0565 60.4514 43.831C60.4514 38.6054 64.8168 34.4996 70.1766 34.6544L209.85 38.7001C214.463 38.833 218.186 42.8441 218.186 47.6582C218.186 52.4722 214.463 56.3031 209.85 56.2121Z" fill="url(#paint0_linear)"/>
<path style="mix-blend-mode:multiply" opacity="0.15" d="M46.9545 53.0257L41.8608 52.9256C39.8346 52.8873 38.188 51.2759 38.188 49.3314V37.2507C38.188 35.3043 39.8346 33.7749 41.8608 33.8332L46.9545 33.9806C48.9677 34.0389 50.5964 35.6539 50.5964 37.5894V49.5972C50.5948 51.529 48.9661 53.0658 46.9545 53.0257Z" fill="url(#paint1_linear)"/>
<path style="mix-blend-mode:multiply" opacity="0.15" d="M305.168 85.4058L138.965 84.7249C137.127 84.7249 135.635 83.21 135.635 81.3565V76.0854C135.635 74.2337 137.127 72.7461 138.965 72.7643L305.168 74.474C305.899 74.4754 306.6 74.7999 307.119 75.3772C307.638 75.9545 307.934 76.7381 307.942 77.5584V82.3706C307.938 82.7745 307.863 83.1734 307.721 83.5446C307.579 83.9158 307.374 84.252 307.116 84.5339C306.858 84.8159 306.554 85.038 306.22 85.1876C305.885 85.3372 305.528 85.4113 305.168 85.4058V85.4058Z" fill="url(#paint2_linear)"/>
<path opacity="0.29" d="M108.635 84.601L11.1846 84.2023C5.13047 84.1768 0.195679 79.5084 0.195679 73.7748C0.195679 68.0413 5.13047 63.4603 11.1846 63.5459L108.635 64.9223C114.1 64.9988 118.507 69.4451 118.507 74.8509C118.507 80.2567 114.1 84.6228 108.635 84.601Z" fill="url(#paint3_linear)"/>
<path style="mix-blend-mode:multiply" opacity="0.59" d="M29.9375 123.702C25.3547 123.771 21.6236 120.279 21.6236 115.9V106.385C21.6236 102.015 25.3547 98.4461 29.9375 98.4334C34.5202 98.4206 38.1865 101.931 38.1865 106.274V115.712C38.1946 120.06 34.5008 123.629 29.9375 123.702Z" fill="url(#paint4_linear)"/>
<path style="mix-blend-mode:multiply" opacity="0.59" d="M55.7146 123.307L46.7615 123.441C44.7451 123.472 43.105 121.925 43.105 119.982V101.907C43.105 99.9647 44.7451 98.3879 46.7615 98.3824L55.7146 98.3569C57.7099 98.3569 59.324 99.9064 59.324 101.833V119.764C59.3208 121.699 57.7067 123.276 55.7146 123.307Z" fill="url(#paint5_linear)"/>
<path opacity="0.5" d="M159.842 121.722L67.719 123.123C65.7431 123.154 64.1387 121.62 64.1387 119.7V101.811C64.1387 99.8898 65.7431 98.3276 67.719 98.3221L159.843 98.0618C161.637 98.0618 163.088 99.5329 163.088 101.359V118.367C163.089 120.193 161.636 121.699 159.842 121.722Z" fill="url(#paint6_linear)"/>
<path style="mix-blend-mode:multiply" opacity="0.59" d="M286.371 133.94L89.1842 138.492C87.2505 138.537 85.6802 137.035 85.6802 135.132C85.6802 133.23 87.2505 131.66 89.1842 131.622L286.371 127.746C286.736 127.731 287.1 127.798 287.441 127.943C287.782 128.089 288.094 128.309 288.358 128.592C288.622 128.875 288.832 129.214 288.978 129.589C289.123 129.965 289.2 130.37 289.204 130.779C289.204 132.492 287.937 133.898 286.371 133.94Z" fill="url(#paint7_linear)"/>
<path style="mix-blend-mode:multiply" opacity="0.15" d="M326.99 111.191L189.663 112.648C184.738 112.699 180.726 108.604 180.726 103.499C180.726 98.3932 184.738 94.251 189.663 94.2455L326.99 94.129C327.987 94.1237 328.974 94.3392 329.897 94.763C330.819 95.1868 331.657 95.8106 332.365 96.5988C333.072 97.387 333.633 98.324 334.017 99.3561C334.401 100.388 334.6 101.495 334.602 102.614C334.594 104.88 333.79 107.051 332.365 108.657C330.941 110.262 329.009 111.173 326.99 111.191V111.191Z" fill="url(#paint8_linear)"/>
<path opacity="0.5" d="M327.514 42.8603L226.252 39.9708C220.133 39.7887 215.143 34.4084 215.143 27.9356C215.143 21.4629 220.133 16.423 226.252 16.6743L327.514 20.842C332.952 21.0623 337.332 26.144 337.332 32.1907C337.336 33.623 337.083 35.0416 336.588 36.3614C336.092 37.6812 335.364 38.8751 334.447 39.8714C333.53 40.8677 332.444 41.646 331.252 42.1596C330.061 42.6732 328.79 42.9115 327.514 42.8603V42.8603Z" fill="url(#paint9_linear)"/>
<path opacity="0.5" d="M303.572 141.84L299.179 141.978C298.93 141.991 298.682 141.947 298.449 141.85C298.215 141.752 298.002 141.602 297.822 141.41C297.641 141.217 297.497 140.986 297.398 140.729C297.3 140.473 297.248 140.197 297.247 139.917V129.606C297.252 129.034 297.458 128.487 297.819 128.082C298.181 127.678 298.669 127.449 299.179 127.445L303.572 127.36C303.819 127.351 304.066 127.398 304.297 127.498C304.528 127.598 304.738 127.749 304.916 127.942C305.095 128.135 305.236 128.366 305.334 128.622C305.431 128.877 305.482 129.152 305.483 129.43V139.671C305.476 140.24 305.273 140.784 304.917 141.188C304.56 141.592 304.078 141.826 303.572 141.84V141.84Z" fill="url(#paint10_linear)"/>
<path style="mix-blend-mode:multiply" opacity="0.15" d="M88.8711 165.99L20.3875 168.523C13.5741 168.776 8.0083 163.722 8.0083 157.234C8.0083 150.747 13.5693 145.345 20.3875 145.17L88.8711 143.417C95.1977 143.255 100.301 148.151 100.301 154.341C100.301 160.532 95.201 165.761 88.8711 165.99Z" fill="url(#paint11_linear)"/>
<path style="mix-blend-mode:multiply" opacity="0.15" d="M198.111 23.6642L83.5827 19.4491C78.085 19.247 73.6077 14.7152 73.6077 9.31482C73.6077 3.91447 78.085 -0.245944 83.5827 0.0107817L198.111 5.34558C202.968 5.57135 206.886 9.83556 206.886 14.8699C206.886 19.9043 202.968 23.8426 198.111 23.6642Z" fill="url(#paint12_linear)"/>
<path style="mix-blend-mode:multiply" opacity="0.15" d="M335.671 76.9504C335.668 78.414 335.408 79.8627 334.906 81.2131C334.403 82.5636 333.667 83.7892 332.741 84.8194C331.815 85.8497 330.716 86.6643 329.509 87.2165C328.301 87.7687 327.008 88.0475 325.704 88.037C320.149 88.0224 315.622 82.9771 315.622 76.7683C315.624 75.2939 315.888 73.8347 316.398 72.4759C316.908 71.117 317.654 69.8858 318.593 68.854C319.531 67.8222 320.643 67.0105 321.864 66.4662C323.085 65.9218 324.39 65.6558 325.704 65.6836C331.223 65.7692 335.671 70.8127 335.671 76.9504Z" fill="url(#paint13_linear)"/>
<path d="M189.789 165.397C125.285 162.824 40.4576 172.746 38.9684 191.949C38.0356 203.979 69.4904 223.703 98.606 222.929C118.469 222.401 138.073 212.312 140.008 216.844C141.54 220.427 129.951 228.315 131.63 232.333C134.112 238.258 160.151 223.06 175.496 236.206C180.455 240.456 178.924 243.063 182.888 246.717C198.871 261.445 226.81 221.88 273.579 220.717C294.46 220.196 308.833 227.587 334.367 218.319C343.451 215.02 351.684 212.034 351.945 207.44C352.788 192.625 270.307 168.609 189.789 165.397Z" fill="#EBEFF2"/>
<path d="M80.3723 175.908C70.2675 178.317 59.3613 181.052 59.5073 183.653C59.7409 187.841 88.6002 189.693 110.445 189.371C142.818 188.89 145.399 183.861 179.777 181.809C215.815 179.659 241.627 183.479 242.701 177.385C242.998 175.691 241.314 173.67 238.101 171.3C208.718 149.627 137.603 162.267 80.3723 175.908Z" fill="#D8DEE8"/>
<path d="M153.809 223.852C150.087 225.187 145.639 227.803 145.923 229.016C146.006 229.367 146.625 230.201 164.324 228.278C172.289 227.413 176.273 226.969 176.317 226.434C176.455 224.753 164.864 219.89 153.809 223.852Z" fill="#D8DEE8"/>
<path d="M203.392 228.462C198.614 228.369 191.172 228.885 191.063 230.307C190.954 231.729 198.068 233.906 204.699 234.363C211.766 234.849 219.616 233.453 219.65 231.965C219.693 230.372 210.818 228.606 203.392 228.462Z" fill="#D8DEE8"/>
<path d="M319.416 202.832C310.332 202.668 298.413 203.988 298.386 205.781C298.36 207.485 309.06 209.772 319.416 208.917C326.053 208.37 333.617 206.44 333.544 205.044C333.465 203.511 324.213 202.917 319.416 202.832Z" fill="#D8DEE8"/>
<path d="M234.061 51.7567L72.4786 44.5847C70.5773 44.501 69.0346 45.9612 69.0346 47.8475V180.238C69.0346 182.124 70.5773 183.57 72.4786 183.468L234.061 174.728C234.782 174.683 235.461 174.332 235.96 173.746C236.459 173.16 236.74 172.383 236.748 171.573V54.8774C236.74 54.0704 236.458 53.2973 235.958 52.717C235.458 52.1366 234.78 51.7929 234.061 51.7567Z" fill="url(#paint14_linear)"/>
<path opacity="0.61" d="M72.6732 179.91V48.1406L73.0999 48.1588L233.996 54.841V171.639L233.604 171.659L72.6732 179.91ZM73.4957 49.0965V178.945L233.174 170.752V55.7295L73.4957 49.0965Z" fill="white"/>
<g opacity="0.61">
<path opacity="0.61" d="M84.9891 163.186C84.1268 163.196 83.294 162.834 82.6629 162.174C82.2961 161.799 82.0285 161.317 81.8894 160.782C81.7504 160.248 81.7452 159.68 81.8745 159.142C85.6559 142.803 95.2513 135.968 100.634 133.348L100.958 134.195C95.7136 136.744 86.3583 143.415 82.6677 159.374C82.5777 159.752 82.5823 160.152 82.681 160.528C82.7797 160.904 82.9687 161.242 83.2274 161.506C83.5793 161.862 84.0096 162.105 84.4737 162.212C84.9378 162.318 85.4188 162.283 85.8668 162.11L99.3993 157.305C101.434 156.577 103.108 155.033 103.993 153.054L106.497 147.461L107.231 147.874L104.728 153.467C103.742 155.668 101.891 157.387 99.6475 158.185L86.1133 162.99C85.7498 163.12 85.3706 163.186 84.9891 163.186V163.186Z" fill="white"/>
<path opacity="0.61" d="M156.8 160.33C156.531 160.331 156.263 160.292 156.003 160.215L143.561 156.574C142.532 156.287 141.57 155.758 140.737 155.022C139.905 154.285 139.222 153.358 138.733 152.302L136.201 146.671L136.934 146.255L139.467 151.887C139.903 152.826 140.512 153.65 141.254 154.304C141.996 154.958 142.853 155.428 143.769 155.681L156.211 159.323C156.61 159.439 157.029 159.437 157.427 159.317C157.825 159.197 158.189 158.963 158.482 158.638C158.738 158.371 158.926 158.031 159.026 157.655C159.126 157.28 159.136 156.88 159.053 156.499C155.741 141.602 147.148 135.629 142.32 133.395L142.633 132.542C146.149 134.18 149.33 136.609 151.979 139.679C155.72 144.027 158.369 149.609 159.851 156.275C159.966 156.812 159.954 157.373 159.815 157.903C159.676 158.433 159.416 158.912 159.06 159.294C158.457 159.959 157.645 160.332 156.8 160.33Z" fill="white"/>
<path opacity="0.61" d="M110.878 157.602C110.529 157.61 110.183 157.522 109.872 157.344C109.561 157.166 109.293 156.904 109.094 156.583C108.913 156.288 108.803 155.947 108.774 155.591C108.746 155.235 108.8 154.876 108.931 154.551L111.29 148.526L112.043 148.89L109.683 154.915C109.608 155.098 109.576 155.299 109.591 155.499C109.606 155.699 109.666 155.892 109.767 156.058C109.897 156.262 110.071 156.425 110.273 156.533C110.475 156.64 110.697 156.688 110.92 156.672L132.763 155.874C132.988 155.87 133.208 155.804 133.405 155.682C133.601 155.56 133.767 155.385 133.889 155.173C133.985 155.009 134.043 154.82 134.058 154.624C134.073 154.428 134.044 154.23 133.974 154.05L131.634 148.282L132.382 147.898L134.739 153.671C134.866 153.99 134.92 154.339 134.897 154.688C134.873 155.036 134.772 155.372 134.603 155.665C134.41 156.005 134.145 156.286 133.831 156.484C133.518 156.682 133.167 156.79 132.807 156.799L110.964 157.595L110.878 157.602Z" fill="white"/>
<path opacity="0.61" d="M121.022 150.228C116.415 150.228 111.728 149.41 106.96 147.774C106.648 147.672 106.357 147.501 106.104 147.271C105.851 147.041 105.641 146.757 105.487 146.435C103.127 141.399 91.478 115.175 93.8789 93.4225C95.9456 74.687 111.754 63.4348 118.454 59.4747C119.513 58.8483 120.358 58.395 120.887 58.1255C121.385 57.8669 121.651 57.7322 121.812 57.6721C121.838 57.6589 121.865 57.6498 121.893 57.6448C121.936 57.6313 121.981 57.6287 122.025 57.6372C122.069 57.6457 122.111 57.6651 122.148 57.694C122.44 57.8123 123.017 58.1473 124.31 58.9685C127.23 60.8184 132.919 64.8094 138.112 70.7378C144.439 77.9625 148.087 85.7754 148.955 93.9578C151.166 114.853 140.257 140.6 138.047 145.549C137.764 146.174 137.282 146.659 136.697 146.907C131.703 149.103 126.386 150.23 121.022 150.228V150.228ZM121.932 58.6098C119.846 59.613 97.1704 71.1184 94.6949 93.5372C92.3232 115.022 103.875 141.013 106.213 146.006C106.316 146.22 106.457 146.408 106.626 146.56C106.795 146.712 106.99 146.825 107.199 146.891C117.312 150.37 127.133 150.088 136.389 146.049C136.783 145.883 137.108 145.559 137.301 145.139C139.492 140.223 150.313 114.703 148.128 94.0707C145.829 72.3565 123.981 59.7296 121.95 58.6116H121.94L121.932 58.6098Z" fill="white"/>
<path opacity="0.61" d="M121.716 125.539C116.475 125.539 111.439 123.281 107.869 119.321C104.624 115.719 102.84 111.024 102.84 106.098C102.84 101.173 104.624 96.4794 107.869 92.8834C111.493 88.8778 116.629 86.6146 121.958 86.6929C126.946 86.7675 131.623 88.825 135.129 92.4865C138.634 96.1481 140.568 100.999 140.568 106.131C140.568 111.264 138.636 116.109 135.129 119.769C131.621 123.428 126.945 125.477 121.958 125.542L121.716 125.539ZM121.689 87.6087C116.671 87.6087 111.856 89.7608 108.445 93.5407C105.363 96.9601 103.658 101.421 103.658 106.104C103.658 110.787 105.358 115.244 108.446 118.667C111.863 122.458 116.689 124.619 121.716 124.619H121.948C131.763 124.49 139.747 116.196 139.747 106.129C139.747 96.0625 131.763 87.758 121.947 87.6142L121.689 87.6087Z" fill="white"/>
<path opacity="0.61" d="M121.805 121.715C117.588 121.715 113.543 119.894 110.679 116.71C108.083 113.819 106.647 110.051 106.647 106.1C106.647 102.149 108.078 98.3858 110.679 95.4981C113.579 92.2772 117.696 90.4601 121.956 90.5093C125.966 90.5584 129.73 92.2026 132.553 95.1431C135.375 98.0836 136.933 101.989 136.933 106.124C136.933 110.259 135.375 114.157 132.553 117.098C129.73 120.038 125.966 121.673 121.956 121.715H121.805ZM121.783 91.4306C117.792 91.4306 113.964 93.1457 111.256 96.1536C108.813 98.8665 107.468 102.399 107.468 106.1C107.468 109.802 108.813 113.338 111.256 116.054C114.001 119.108 117.896 120.834 121.948 120.788C129.761 120.706 136.118 114.126 136.118 106.119C136.118 98.1109 129.761 91.5198 121.948 91.4269L121.783 91.4306Z" fill="white"/>
<path opacity="0.61" d="M100.284 76.5833L100.268 77.5044L142.929 78.4321L142.945 77.511L100.284 76.5833Z" fill="white"/>
</g>
<path opacity="0.61" d="M233.572 161.67L73.0718 168.748L73.104 169.669L233.604 162.591L233.572 161.67Z" fill="white"/>
<path opacity="0.61" d="M170.954 164.922H170.133V174.619H170.954V164.922Z" fill="white"/>
<path opacity="0.61" d="M233.567 166.296L170.437 169.315L170.472 170.235L233.602 167.216L233.567 166.296Z" fill="white"/>
<path opacity="0.61" d="M182.056 164.432H181.235V169.239H182.056V164.432Z" fill="white"/>
<path opacity="0.61" d="M198.027 163.729H197.206V168.478H198.027V163.729Z" fill="white"/>
<path opacity="0.61" d="M122.012 57.9097L122.001 58.2791L186.954 60.621L186.964 60.2516L122.012 57.9097Z" fill="white"/>
<path opacity="0.61" d="M187.035 158.953L159.835 160.04L159.847 160.408L187.047 159.32L187.035 158.953Z" fill="white"/>
<path opacity="0.61" d="M187.035 131.894L142.934 132.74L142.94 133.11L187.04 132.263L187.035 131.894Z" fill="white"/>
<path opacity="0.61" d="M142.935 77.7953L142.929 78.1648L187.028 79.1238L187.035 78.7543L142.935 77.7953Z" fill="white"/>
<path opacity="0.61" d="M185.156 60.4597H184.827V159.123H185.156V60.4597Z" fill="white"/>
<path opacity="0.61" d="M140.222 125.042L140.174 124.989L111.975 94.8447L112.202 94.5789L140.352 124.67L170.629 124.272L170.633 124.641L140.222 125.042Z" fill="white"/>
<path opacity="0.45" d="M226.731 64.2815L195.178 63.2036V60.8257L226.731 61.9618V64.2815Z" fill="white"/>
<path opacity="0.45" d="M226.731 68.0286L195.178 67.0472V64.6675L226.731 65.709V68.0286Z" fill="white"/>
<path opacity="0.45" d="M226.731 71.7775L195.178 70.889V68.5093L226.731 69.4579V71.7775Z" fill="white"/>
<path opacity="0.45" d="M226.731 93.1951L195.178 92.8455V90.4658L226.731 90.8755V93.1951Z" fill="white"/>
<path opacity="0.45" d="M226.731 96.9439L195.178 96.6872V94.3093L226.731 94.6243V96.9439Z" fill="white"/>
<path opacity="0.45" d="M226.731 100.691L195.178 100.529V98.1511L226.731 98.3714V100.691Z" fill="white"/>
<path opacity="0.45" d="M226.731 78.3815L209.67 77.99V75.6394L226.731 76.0618V78.3815Z" fill="white"/>
<path opacity="0.45" d="M226.731 82.1304L209.67 81.7899V79.4375L226.731 79.8089V82.1304Z" fill="white"/>
<path opacity="0.45" d="M226.731 85.8774L209.67 85.5879V83.2373L226.731 83.5578V85.8774Z" fill="white"/>
<path opacity="0.61" d="M195.015 158.904V106.567H226.894V157.619L195.015 158.904ZM195.339 106.934V158.522L226.56 157.271V106.951L195.339 106.934Z" fill="white"/>
<path opacity="0.61" d="M226.741 114.208L195.191 114.4L195.193 114.77L226.743 114.578L226.741 114.208Z" fill="white"/>
<path opacity="0.61" d="M226.738 118.154L195.187 118.432L195.19 118.801L226.741 118.523L226.738 118.154Z" fill="white"/>
<path opacity="0.61" d="M226.73 122.099L195.18 122.482L195.183 122.852L226.734 122.468L226.73 122.099Z" fill="white"/>
<path opacity="0.61" d="M226.74 125.996L195.189 126.484L195.194 126.854L226.745 126.366L226.74 125.996Z" fill="white"/>
<path opacity="0.61" d="M226.72 129.979L195.169 130.548L195.174 130.917L226.726 130.349L226.72 129.979Z" fill="white"/>
<path opacity="0.61" d="M226.525 138.267L194.966 138.975L194.973 139.345L226.532 138.637L226.525 138.267Z" fill="white"/>
<path opacity="0.61" d="M226.734 141.362L195.183 142.227L195.191 142.597L226.742 141.731L226.734 141.362Z" fill="white"/>
<path opacity="0.61" d="M226.709 145.348L195.159 146.312L195.168 146.682L226.718 145.717L226.709 145.348Z" fill="white"/>
<path opacity="0.61" d="M226.733 149.218L195.182 150.275L195.191 150.645L226.743 149.587L226.733 149.218Z" fill="white"/>
<path opacity="0.61" d="M226.712 153.196L195.161 154.352L195.172 154.719L226.723 153.563L226.712 153.196Z" fill="white"/>
<path opacity="0.61" d="M205.372 106.754H205.043V158.403H205.372V106.754Z" fill="white"/>
<path opacity="0.45" d="M182.42 109.241L180.698 109.243V104.156L182.42 104.16V109.241Z" fill="white"/>
<path opacity="0.45" d="M182.42 149.154L180.698 149.209V144.121L182.42 144.072V149.154Z" fill="white"/>
<path opacity="0.45" d="M168.527 122.056L156.662 122.191V118.988L168.527 118.88V122.056Z" fill="white"/>
<path d="M94.4272 190.762C94.2583 190.761 94.0946 190.696 93.9633 190.577C93.8319 190.458 93.7409 190.292 93.7053 190.106L72.2142 78.547C72.1936 78.4406 72.1919 78.3307 72.2092 78.2236C72.2265 78.1164 72.2624 78.0142 72.3149 77.9226C72.3674 77.8311 72.4355 77.752 72.5152 77.69C72.5949 77.6279 72.6847 77.5841 72.7795 77.5611C72.8743 77.538 72.9722 77.5361 73.0677 77.5555C73.1631 77.5749 73.2542 77.6152 73.3358 77.6741C73.4174 77.7331 73.4878 77.8094 73.5431 77.8989C73.5984 77.9884 73.6374 78.0892 73.6579 78.1956L95.1507 189.766C95.1712 189.872 95.1728 189.982 95.1553 190.09C95.1379 190.197 95.1017 190.299 95.049 190.39C94.9962 190.482 94.9279 190.561 94.8479 190.623C94.768 190.685 94.6779 190.728 94.583 190.751C94.5316 190.761 94.4794 190.764 94.4272 190.762V190.762Z" fill="white"/>
<path d="M122.357 189.108C122.188 189.108 122.025 189.043 121.893 188.924C121.762 188.806 121.671 188.64 121.635 188.455L100.788 80.3113C100.752 80.0988 100.792 79.879 100.898 79.6987C101.005 79.5185 101.17 79.392 101.358 79.3462C101.547 79.3004 101.743 79.3389 101.907 79.4535C102.07 79.5682 102.187 79.7498 102.233 79.9599L123.08 188.113C123.104 188.234 123.104 188.359 123.078 188.48C123.053 188.601 123.004 188.714 122.934 188.81C122.865 188.907 122.777 188.985 122.677 189.038C122.577 189.091 122.468 189.118 122.357 189.118V189.108Z" fill="white"/>
<path d="M102.759 88.2518H102.725L74.3717 86.7952C74.2747 86.7903 74.1796 86.764 74.0917 86.7178C74.0039 86.6717 73.9249 86.6065 73.8595 86.5261C73.794 86.4457 73.7433 86.3517 73.7103 86.2493C73.6772 86.1469 73.6625 86.0382 73.6668 85.9294C73.6712 85.8206 73.6946 85.7139 73.7357 85.6152C73.7769 85.5166 73.8349 85.428 73.9065 85.3545C73.9781 85.2811 74.062 85.2242 74.1532 85.1871C74.2444 85.15 74.3413 85.1334 74.4382 85.1383L102.791 86.5949C102.982 86.6084 103.16 86.7041 103.289 86.862C103.419 87.0198 103.488 87.2275 103.484 87.4417C103.48 87.6559 103.402 87.86 103.267 88.0113C103.132 88.1626 102.95 88.2494 102.759 88.2536V88.2518Z" fill="white"/>
<path d="M105.885 104.485H105.862L77.6145 103.546C77.4235 103.532 77.2448 103.435 77.116 103.276C76.9871 103.117 76.9182 102.909 76.9236 102.694C76.9291 102.479 77.0085 102.275 77.1453 102.125C77.282 101.974 77.4653 101.889 77.6567 101.887L105.914 102.827C106.104 102.839 106.283 102.934 106.412 103.09C106.542 103.247 106.613 103.454 106.61 103.667C106.608 103.881 106.531 104.086 106.398 104.238C106.264 104.39 106.083 104.479 105.893 104.485H105.885Z" fill="white"/>
<path d="M109.014 120.723H109.004L80.8443 120.295C80.6543 120.284 80.4755 120.191 80.3451 120.035C80.2146 119.88 80.1425 119.674 80.1438 119.461C80.145 119.247 80.2195 119.042 80.3518 118.889C80.4841 118.735 80.6639 118.645 80.8541 118.636H80.8638L109.024 119.064C109.214 119.076 109.393 119.169 109.523 119.324C109.654 119.48 109.726 119.685 109.725 119.899C109.723 120.112 109.649 120.317 109.516 120.471C109.384 120.624 109.204 120.715 109.014 120.723V120.723Z" fill="white"/>
<path d="M84.0807 137.046C83.9807 137.051 83.8809 137.034 83.7872 136.995C83.6934 136.955 83.6078 136.895 83.5354 136.817C83.463 136.74 83.4054 136.647 83.366 136.543C83.3266 136.44 83.3063 136.329 83.3063 136.217C83.3063 136.104 83.3266 135.993 83.366 135.89C83.4054 135.787 83.463 135.694 83.5354 135.616C83.6078 135.539 83.6934 135.478 83.7872 135.439C83.8809 135.4 83.9807 135.382 84.0807 135.387L112.145 135.304C112.245 135.298 112.345 135.316 112.439 135.355C112.532 135.395 112.618 135.455 112.69 135.532C112.763 135.61 112.82 135.703 112.86 135.806C112.899 135.91 112.919 136.021 112.919 136.133C112.919 136.245 112.899 136.356 112.86 136.46C112.82 136.563 112.763 136.656 112.69 136.734C112.618 136.811 112.532 136.871 112.439 136.911C112.345 136.95 112.245 136.968 112.145 136.962L84.0807 137.046Z" fill="white"/>
<path d="M87.3073 153.8C87.1111 153.802 86.9223 153.717 86.7823 153.562C86.6424 153.408 86.5628 153.198 86.5611 152.977C86.5593 152.757 86.6356 152.545 86.7731 152.388C86.9106 152.231 87.0981 152.142 87.2943 152.14L115.263 151.546H115.276C115.466 151.554 115.646 151.644 115.779 151.797C115.912 151.95 115.987 152.154 115.989 152.368C115.991 152.581 115.919 152.788 115.789 152.944C115.659 153.1 115.481 153.193 115.291 153.205L87.3219 153.8H87.3073Z" fill="white"/>
<path d="M90.5355 170.557C90.3449 170.551 90.1636 170.464 90.0294 170.312C89.8951 170.16 89.8183 169.956 89.815 169.742C89.8116 169.528 89.882 169.321 90.0114 169.163C90.1408 169.006 90.3193 168.911 90.5095 168.898L118.383 167.791C118.575 167.79 118.76 167.874 118.898 168.023C119.037 168.173 119.118 168.377 119.125 168.592C119.132 168.808 119.063 169.018 118.934 169.178C118.806 169.338 118.626 169.436 118.434 169.45L90.5614 170.557H90.5355Z" fill="white"/>
<path d="M290.125 100.005C290.125 100.005 303.736 113.788 295.821 139.615C295.652 140.163 295.357 140.651 294.965 141.03C294.574 141.409 294.1 141.665 293.592 141.772C293.084 141.879 292.56 141.833 292.073 141.639C291.586 141.446 291.153 141.111 290.818 140.669L281.456 128.33C280.714 127.351 280.163 126.209 279.837 124.977C279.511 123.746 279.419 122.451 279.565 121.176L281.086 107.945L290.125 100.005Z" fill="url(#paint15_linear)"/>
<path d="M260.716 79.2937C260.716 79.2937 243.738 71.541 226.465 90.7808C226.099 91.1904 225.836 91.7011 225.703 92.2613C225.569 92.8216 225.57 93.4114 225.706 93.971C225.841 94.5307 226.105 95.0403 226.473 95.4483C226.84 95.8562 227.296 96.148 227.796 96.2941L241.769 100.382C242.876 100.706 244.033 100.767 245.163 100.56C246.293 100.353 247.372 99.8829 248.33 99.1799L258.281 91.8842L260.716 79.2937Z" fill="url(#paint16_linear)"/>
<path d="M291.162 98.1621C291.162 98.1621 304.772 111.945 296.858 137.773C296.688 138.321 296.393 138.809 296.002 139.187C295.61 139.566 295.137 139.822 294.629 139.929C294.121 140.036 293.597 139.99 293.109 139.797C292.622 139.603 292.189 139.269 291.855 138.827L282.501 126.486C281.759 125.507 281.207 124.366 280.882 123.134C280.556 121.903 280.463 120.608 280.609 119.334L282.131 106.102L291.162 98.1621Z" fill="url(#paint17_linear)"/>
<path d="M261.746 77.4548C261.746 77.4548 244.768 69.702 227.495 88.9401C227.129 89.3496 226.866 89.8603 226.733 90.4206C226.6 90.9808 226.601 91.5706 226.736 92.1303C226.871 92.6899 227.136 93.1995 227.503 93.6075C227.87 94.0154 228.327 94.3072 228.827 94.4533L242.799 98.5427C243.907 98.8667 245.063 98.9272 246.193 98.7202C247.323 98.5133 248.402 98.0435 249.361 97.341L259.311 90.0453L261.746 77.4548Z" fill="url(#paint18_linear)"/>
<path d="M270.625 37.4273C285.732 16.0644 314.569 19.5402 314.587 19.5839C314.624 19.5839 329.962 47.2157 319.402 71.7794C309.822 94.0581 285.463 112.395 280.77 115.781C280.264 116.146 279.438 116.661 279.065 116.133C271.812 105.869 262.856 99.9282 252.564 97.4866C251.995 97.3518 252.066 96.3067 252.136 95.6658C252.801 89.519 256.897 56.8401 270.625 37.4273Z" fill="url(#paint19_linear)"/>
<g style="mix-blend-mode:multiply" opacity="0.3">
<path style="mix-blend-mode:multiply" opacity="0.3" d="M284.433 65.2047C292.896 53.3388 302.247 56.6198 310.52 46.1687C313.54 42.3451 316.67 36.3876 317.799 26.6084C321.639 36.3876 326.695 54.81 319.403 71.763C309.824 94.0417 285.465 112.378 280.772 115.765C280.265 116.129 279.44 116.644 279.067 116.116C275.402 110.933 271.303 106.851 266.817 103.765C269.671 101.39 272.14 98.484 274.117 95.1724C280.763 83.9602 276.723 76.0181 284.433 65.2047Z" fill="url(#paint20_linear)"/>
</g>
<path d="M304.931 36.8518C297.813 31.8392 289.235 27.5659 281.86 26.8012C294.838 18.6333 309.952 19.1777 313.709 19.4818C313.983 19.504 314.248 19.6012 314.48 19.7651C314.713 19.9289 314.906 20.1542 315.043 20.4213C316.921 24.0847 323.934 39.115 323.034 55.7894C319.794 49.4149 312.05 41.8679 304.931 36.8518Z" fill="url(#paint21_linear)"/>
<path style="mix-blend-mode:multiply" opacity="0.3" d="M317.799 26.6084L317.852 26.7468L317.943 26.9817L318.036 27.2202L318.123 27.4496C318.156 27.5333 318.188 27.6189 318.219 27.7063C318.25 27.7937 318.276 27.8538 318.303 27.9266L318.406 28.2016L318.483 28.4182L318.59 28.7096C318.615 28.7806 318.641 28.8497 318.665 28.9189L318.777 29.2303C318.8 29.2977 318.824 29.365 318.848 29.4324C318.886 29.5398 318.923 29.6491 318.962 29.7583L319.03 29.9586C319.069 30.0697 319.108 30.1844 319.147 30.2991L319.212 30.4921C319.252 30.6104 319.291 30.7306 319.332 30.8562C319.351 30.9199 319.372 30.9818 319.393 31.0383L319.515 31.4024L319.574 31.5845C319.616 31.7138 319.656 31.8431 319.697 31.9723L319.754 32.1544C319.794 32.2873 319.836 32.4221 319.877 32.5568L319.93 32.7389L320.057 33.154C320.073 33.2104 320.089 33.2669 320.107 33.3233C320.149 33.4653 320.192 33.6092 320.232 33.753L320.281 33.9205L320.407 34.3612C320.422 34.4158 320.438 34.4704 320.453 34.5232L320.579 34.9802C320.592 35.0312 320.607 35.084 320.621 35.1368C320.664 35.2934 320.706 35.4481 320.746 35.6065C320.761 35.6575 320.774 35.7085 320.787 35.7595C320.829 35.9197 320.871 36.08 320.912 36.242C320.925 36.2912 320.938 36.3403 320.949 36.3877C320.991 36.5533 321.033 36.719 321.074 36.8847L321.108 37.0267C321.15 37.1961 321.191 37.3654 321.231 37.5365C321.243 37.5821 321.252 37.6294 321.264 37.6749L321.386 38.1957C321.395 38.2394 321.405 38.2849 321.416 38.3304L321.533 38.8621L321.562 38.9932C321.601 39.1752 321.64 39.3573 321.678 39.5394C321.687 39.5813 321.695 39.625 321.703 39.6668C321.742 39.8489 321.78 40.031 321.817 40.2222L321.841 40.3423C321.877 40.5244 321.914 40.721 321.95 40.9104C321.958 40.9486 321.965 40.9869 321.973 41.0269C322.008 41.2181 322.044 41.4129 322.078 41.6059L322.098 41.7152C322.133 41.9118 322.167 42.1103 322.2 42.3087C322.2 42.3433 322.211 42.3779 322.218 42.4125C322.252 42.6128 322.284 42.8149 322.317 43.017L322.331 43.1135C322.364 43.3193 322.395 43.525 322.425 43.7307C322.425 43.7617 322.425 43.7926 322.438 43.8236C322.469 44.033 322.498 44.2424 322.528 44.4518C322.528 44.4791 322.536 44.5082 322.539 44.5355C322.568 44.7485 322.596 44.9634 322.623 45.1782C322.623 45.2037 322.623 45.2292 322.631 45.2547C322.659 45.4714 322.685 45.6899 322.711 45.9102C322.711 45.932 322.711 45.9557 322.711 45.9775C322.737 46.1997 322.761 46.4236 322.784 46.6476V46.704C322.808 46.9316 322.829 47.1592 322.85 47.3886C322.851 47.4038 322.851 47.419 322.85 47.4341C322.871 47.6672 322.893 47.9021 322.91 48.137C322.91 48.1479 322.91 48.1588 322.91 48.1697C322.928 48.4082 322.946 48.6486 322.962 48.8871V48.9053C323.118 51.1997 323.136 53.5034 323.016 55.8005C320.944 51.7184 317.033 47.1665 312.622 43.1044C314.9 39.3355 316.934 34.0899 317.799 26.6084Z" fill="url(#paint22_linear)"/>
<path d="M307.534 73.5799C312.713 64.3135 309.48 51.5697 300.314 45.1157C291.147 38.6617 279.517 40.9415 274.338 50.2079C269.16 59.4742 272.392 72.2181 281.559 78.6721C290.726 85.1261 302.355 82.8462 307.534 73.5799Z" fill="url(#paint23_linear)"/>
<path style="mix-blend-mode:multiply" d="M284.433 65.2047C291.339 55.5219 298.837 55.9188 305.856 50.7224C310.547 57.4938 311.471 66.5411 307.535 73.5819C302.357 82.8477 290.727 85.1273 281.56 78.68C280.821 78.1599 280.11 77.5902 279.432 76.974C280.194 73.2414 281.411 69.4434 284.433 65.2047Z" fill="url(#paint24_linear)"/>
<path d="M306.145 72.602C310.893 64.1083 307.929 52.427 299.527 46.5111C291.124 40.5952 280.465 42.6849 275.717 51.1786C270.97 59.6723 273.934 71.3536 282.336 77.2695C290.738 83.1854 301.398 81.0957 306.145 72.602Z" fill="url(#paint25_linear)"/>
<path d="M303.9 69.343C308.024 61.9196 305.414 51.7351 298.069 46.5953C290.725 41.4555 281.428 43.3067 277.304 50.7301C273.18 58.1535 275.791 68.338 283.135 73.4778C290.479 78.6176 299.776 76.7664 303.9 69.343Z" fill="url(#paint26_linear)"/>
<path d="M279.551 116.544C280.964 114.015 275.929 107.615 268.305 102.247C260.682 96.8793 253.356 94.5775 251.943 97.1058C250.53 99.634 255.565 106.035 263.188 111.403C270.812 116.77 278.138 119.072 279.551 116.544Z" fill="url(#paint27_linear)"/>
<path d="M264.094 102.539L270.018 106.71C271.559 107.795 272.776 109.372 273.514 111.238C274.252 113.104 274.478 115.175 274.161 117.185L273.546 121.087C273.494 121.419 273.37 121.731 273.185 121.996C273 122.262 272.76 122.472 272.486 122.609C272.211 122.745 271.911 122.804 271.612 122.78C271.313 122.756 271.023 122.65 270.769 122.471L251.122 108.633C250.868 108.454 250.657 108.208 250.507 107.916C250.358 107.624 250.274 107.295 250.265 106.958C250.255 106.622 250.319 106.288 250.451 105.985C250.584 105.683 250.78 105.422 251.023 105.225L253.887 102.905C255.362 101.711 257.122 101.039 258.94 100.973C260.759 100.908 262.553 101.453 264.094 102.539V102.539Z" fill="url(#paint28_linear)"/>
<path d="M272.827 122.688C274.161 120.302 270.141 114.777 263.85 110.347C257.558 105.917 251.376 104.261 250.043 106.647C248.709 109.033 252.729 114.558 259.021 118.988C265.312 123.418 271.494 125.074 272.827 122.688Z" fill="url(#paint29_linear)"/>
<path d="M270.094 120.764C271.108 118.95 268.053 114.751 263.27 111.384C258.488 108.017 253.79 106.757 252.776 108.571C251.763 110.385 254.818 114.584 259.6 117.951C264.382 121.318 269.08 122.578 270.094 120.764Z" fill="url(#paint30_linear)"/>
<g style="mix-blend-mode:color-burn" opacity="0.3">
<path style="mix-blend-mode:color-burn" opacity="0.3" d="M284.433 65.2046C290.307 56.9693 296.608 56.0298 302.68 52.7324C306.573 58.1637 307.384 65.5195 304.19 71.2258C300.055 78.6253 290.769 80.4442 283.45 75.2915C282.406 74.5596 281.434 73.7051 280.551 72.7425C281.478 70.0133 282.789 67.4684 284.433 65.2046V65.2046Z" fill="url(#paint31_linear)"/>
</g>
<path d="M84.483 177.596C93.2057 178.013 94.9415 184.919 101.317 186.119C120.61 189.76 134.248 132.094 155.53 132.188C173.446 132.268 176.28 172.137 197.513 173.851C216.246 175.364 237.295 146.061 253.205 123.909C258.463 116.59 259.381 114.343 259.613 114.503C260.878 115.381 237.702 184.821 207.572 186.507C186.258 187.697 178.423 154.509 157.824 156.839C136.988 159.206 136.295 196.282 108.599 205.537C88.5872 212.221 64.2426 201.12 63.4558 192.284C62.8896 185.906 74.2727 177.106 84.483 177.596Z" fill="url(#paint32_linear)"/>
<path d="M256.078 112.719C257.296 114.465 249.103 124.417 241.49 131.425C238.336 134.307 234.997 136.924 231.5 139.254C223.056 144.91 218.076 148.666 215.534 146.632C213.871 145.303 213.62 141.849 214.338 139.424C215.798 134.482 220.769 135.6 224.774 129.797C228.019 125.105 226.304 122.15 229.401 119.512C232.363 116.987 235.007 118.784 241.081 118.074C250.488 116.99 255.162 111.406 256.078 112.719Z" fill="url(#paint33_linear)"/>
<path d="M262.804 116.45C257.017 123.423 254.941 129.625 254.122 134.04C253.148 139.282 254.007 141.716 251.864 146.357C249.755 150.931 247.193 152.302 246.548 156.878C246.403 157.899 245.774 162.373 247.743 164.086C251.077 166.986 261.208 161.406 266.157 152.639C267.13 150.917 270.892 144.249 269.009 137.929C268.089 134.834 266.545 134.273 264.845 130.886C263.076 127.367 262.1 122.711 262.804 116.45Z" fill="url(#paint34_linear)"/>
<path d="M199.252 230.004C199.252 230.004 198.908 230.891 198.927 231.042C198.934 231.182 198.988 231.313 199.079 231.41C199.169 231.506 199.289 231.559 199.414 231.559C200.146 231.512 201.546 231.395 202.274 231.14C203.291 230.787 199.802 229.866 199.802 229.866L199.252 230.004Z" fill="url(#paint35_linear)"/>
<path d="M199.281 228.692L199.338 230.194C199.338 230.194 199.541 230.558 200.04 230.095L200.31 228.499L199.281 228.692Z" fill="url(#paint36_linear)"/>
<path d="M201.812 200.756C201.224 201.125 200.715 201.633 200.318 202.243C198.767 204.625 199.719 207.21 199.64 211.311C199.532 217.002 197.591 217.736 197.815 223.129C197.901 225.14 198.251 227.125 198.854 229.021L200.735 228.741C201.141 223.628 202.299 218.626 204.162 213.938C206.639 207.767 209.444 204.598 208.325 202.205C207.4 200.228 204.062 199.359 201.812 200.756Z" fill="url(#paint37_linear)"/>
<path d="M208.325 202.205C207.4 200.228 204.062 199.359 201.812 200.749C201.729 200.801 201.649 200.856 201.575 200.911C203.21 204.03 203.239 206.169 202.873 207.616C202.498 209.099 201.716 209.832 201.533 211.972C201.328 214.353 202.182 214.756 201.857 216.691C201.447 219.125 199.993 219.076 199.586 221.461C199.206 223.728 200.344 224.821 199.631 226.285C199.351 226.824 198.932 227.255 198.429 227.521C198.567 228.089 198.713 228.59 198.846 229.014L200.726 228.733C201.133 223.621 202.291 218.619 204.154 213.931C206.639 207.768 209.444 204.598 208.325 202.205Z" fill="url(#paint38_linear)"/>
<path d="M209.835 230.591C209.835 230.591 209.49 231.477 209.511 231.628C209.518 231.768 209.572 231.899 209.663 231.995C209.753 232.091 209.873 232.144 209.997 232.144C210.729 232.098 212.129 231.98 212.857 231.727C213.875 231.372 210.383 230.452 210.383 230.452L209.835 230.591Z" fill="url(#paint39_linear)"/>
<path d="M209.556 229.287L209.897 230.822C209.897 230.822 210.1 231.186 210.599 230.724L210.585 229.085L209.556 229.287Z" fill="url(#paint40_linear)"/>
<path d="M204.814 201.648C203.307 203.392 205.212 209.555 206.19 212.725C206.409 213.414 206.569 214.124 206.669 214.847C206.873 216.334 206.753 217.418 206.703 218.253C206.648 219.996 206.759 221.741 207.035 223.457C207.391 225.699 208.144 227.837 209.25 229.746L210.959 229.411C210.98 226.64 211.045 222.128 211.284 216.533C211.672 207.391 212.361 199.053 211.516 198.86C211.237 198.799 211.17 199.705 210.314 200.534C208.349 202.433 205.965 200.317 204.814 201.648Z" fill="url(#paint41_linear)"/>
<path d="M206.236 179.972C204.299 180.101 197.823 180.766 194.033 185.569C193.138 186.705 190.94 189.493 191.989 191.942C193.001 194.298 196.768 195.716 201.236 194.929L202.138 193.655C199.67 193.373 197.962 192.074 197.855 190.72C197.761 189.536 198.911 188.584 199.489 188.105C201.456 186.467 203.937 186.51 204.787 186.558C205.268 184.359 205.751 182.164 206.236 179.972Z" fill="url(#paint42_linear)"/>
<path d="M222.907 169.974C223.663 169.428 223.713 168.004 223.019 166.793C222.326 165.581 221.151 165.042 220.395 165.587C219.639 166.132 219.588 167.556 220.282 168.768C220.976 169.979 222.151 170.519 222.907 169.974Z" fill="url(#paint43_linear)"/>
<path d="M212.627 175.218L220.159 166.555C220.207 166.499 220.266 166.457 220.332 166.432C220.397 166.407 220.467 166.4 220.535 166.411C221.137 166.507 222.719 166.975 222.787 169.204C222.79 169.295 222.771 169.385 222.731 169.465C222.692 169.544 222.634 169.61 222.563 169.656L213.096 175.664L212.627 175.218Z" fill="url(#paint44_linear)"/>
<path d="M213.136 175.229C213.273 175.466 213.263 175.742 213.115 175.85C212.968 175.957 212.737 175.85 212.603 175.613C212.468 175.376 212.476 175.1 212.624 174.992C212.771 174.885 213.002 174.989 213.136 175.229Z" fill="url(#paint45_linear)"/>
<path d="M219.629 173.51L218.282 172.37C218.282 172.37 218.952 172.148 218.714 171.034C218.475 169.92 219.126 170.134 219.147 171.034C219.154 171.55 219.232 172.061 219.377 172.551L220.198 173.215L219.629 173.51Z" fill="url(#paint46_linear)"/>
<path d="M211.853 177.842C212.046 177.403 212.086 176.9 211.965 176.431C211.822 175.824 211.772 175.733 211.668 175.608L211.522 175.442L211.505 175.429C211.329 175.339 211.143 175.278 210.951 175.247C210.697 175.247 210.199 176.279 209.936 177.867L209.868 178.049C209.825 178.157 209.796 178.231 209.795 178.242C209.638 178.57 209.432 178.865 209.186 179.114C208.511 179.759 206.956 180.143 206.969 180.427C206.982 180.711 208.344 180.871 209.694 180.839C210.648 180.815 212.269 180.669 212.29 180.292C212.311 179.915 210.693 179.746 210.885 178.472C210.912 178.324 211.634 178.28 211.853 177.842Z" fill="url(#paint47_linear)"/>
<path d="M212.121 175.134C212.015 175.619 211.699 176.083 211.577 176.138C211.505 176.175 211.438 176.226 211.38 176.287C211.366 176.302 211.353 176.319 211.342 176.338C211.18 176.618 211.539 177.097 211.425 177.212C211.342 177.294 211.076 177.081 211.023 177.157C210.969 177.234 211.185 177.463 211.123 177.55C211.062 177.638 210.943 177.507 210.823 177.594C210.763 177.636 210.768 177.685 210.682 177.842C210.635 177.925 210.58 178.003 210.52 178.075C210.309 178.321 209.863 178.31 209.806 178.173C209.79 178.135 209.816 178.113 209.816 177.991C209.812 177.911 209.8 177.832 209.778 177.756C209.725 177.574 209.538 177.392 209.363 177.164C209.163 176.937 209.028 176.648 208.975 176.334C208.975 176.3 208.975 176.272 208.967 176.252C208.942 175.827 209.048 175.404 209.267 175.056C209.624 174.579 210.111 174.983 210.671 174.566C211.32 174.086 211.193 173.157 211.491 173.139C211.826 173.128 212.317 174.237 212.121 175.134Z" fill="#26264F"/>
<path d="M211.294 177.05C211.222 176.857 211.003 176.96 210.956 177.172C210.944 177.224 210.942 177.279 210.95 177.332C210.958 177.385 210.975 177.436 211.001 177.482C211.027 177.528 211.06 177.567 211.1 177.597C211.14 177.628 211.185 177.649 211.232 177.66C211.418 177.671 211.389 177.314 211.294 177.05Z" fill="url(#paint48_linear)"/>
<path d="M203.951 180.573C204.788 179.892 206.117 179.764 208.779 179.555C210.433 179.442 212.092 179.436 213.746 179.537C216.162 179.655 217.051 179.866 218.582 179.435C219.664 179.131 220.9 178.781 221.262 177.74C221.658 176.593 220.892 174.916 219.336 173.617L220.276 172.762C220.847 172.902 222.667 173.437 223.945 175.342C225.056 176.999 225.61 179.413 224.896 181.472C224.247 183.318 222.824 184.231 220.668 185.602C218.253 187.138 217.739 186.672 216.726 187.834C215.959 188.713 215.578 190.565 214.848 194.206C214.436 196.262 214.149 197.988 213.467 200.625C212.818 203.143 212.582 203.48 212.332 203.738C211.125 204.976 209.834 204.064 206.263 204.638C203.992 205.002 204.003 205.455 201.982 205.604C200.116 205.745 198.154 205.89 196.994 204.43C196.011 203.194 196.165 201.431 196.192 201.18C196.393 199.295 197.618 198.474 198.811 196.79C199.88 195.277 200.371 193.5 201.351 189.946C203.03 183.85 202.253 181.966 203.951 180.573Z" fill="url(#paint49_linear)"/>
<path style="mix-blend-mode:multiply" opacity="0.3" d="M225.125 178.39C224.926 179.255 224.575 180.068 224.094 180.781C222.435 183.208 219.439 183.93 217.873 184.307C215.033 184.992 213.307 184.457 212.76 185.62C212.247 186.713 213.591 187.594 213.438 189.562C213.255 191.929 211.199 192.011 209.928 195.024C208.62 198.12 209.765 200.454 208.448 201.315C207.558 201.898 206.93 200.896 204.938 200.692C201.31 200.328 199.455 203.241 197.73 202.214C197.295 201.956 196.783 201.395 196.478 200.03C196.329 200.393 196.232 200.78 196.191 201.177C196.163 201.428 196.009 203.19 196.992 204.427C198.152 205.883 200.115 205.741 201.98 205.601C204.002 205.452 203.984 205 206.261 204.634C209.83 204.061 211.128 204.973 212.33 203.735C212.582 203.476 212.817 203.139 213.466 200.621C214.147 197.985 214.439 196.251 214.846 194.203C215.576 190.562 215.957 188.714 216.725 187.83C217.737 186.669 218.251 187.135 220.667 185.598C222.823 184.227 224.253 183.315 224.894 181.469C225.221 180.486 225.301 179.42 225.125 178.39V178.39Z" fill="url(#paint50_linear)"/>
<path opacity="0.49" d="M194.143 102.971H125.757C125.671 102.97 125.587 102.94 125.517 102.884C125.446 102.828 125.392 102.75 125.363 102.659C125.333 102.568 125.329 102.469 125.351 102.376C125.373 102.282 125.419 102.198 125.485 102.135L133.433 94.5734V61.0534C133.438 60.7286 133.5 60.4081 133.616 60.1108C133.733 59.8135 133.901 59.5454 134.111 59.3225C134.322 59.0996 134.57 58.9263 134.841 58.813C135.112 58.6996 135.401 58.6485 135.69 58.6627L194.145 60.1575C194.705 60.1768 195.237 60.4391 195.629 60.8893C196.021 61.3395 196.242 61.9426 196.246 62.5719V100.607C196.245 101.233 196.023 101.833 195.629 102.276C195.235 102.719 194.701 102.969 194.143 102.971V102.971Z" fill="white"/>
<path d="M152.383 66.6356L139.019 66.3516V64.5891L152.383 64.8859V66.6356Z" fill="#D8DEE8"/>
<path d="M152.383 70.137L139.019 69.8803V68.116L152.383 68.3854V70.137Z" fill="#D8DEE8"/>
<path d="M152.383 75.6485L139.019 75.4354V73.6711L152.383 73.8987V75.6485Z" fill="#D8DEE8"/>
<path d="M152.383 79.1497L139.019 78.9622V77.1997L152.383 77.4V79.1497Z" fill="#D8DEE8"/>
<path d="M191.024 93.8852L139.019 93.6029V91.8386L191.024 92.1736V93.8852Z" fill="#D8DEE8"/>
<path d="M191.024 97.3062L139.019 97.1296V95.3652L191.024 95.5947V97.3062Z" fill="#D8DEE8"/>
<path d="M152.383 84.6612L139.019 84.5192V82.7549L152.383 82.9115V84.6612Z" fill="#D8DEE8"/>
<path d="M152.383 88.1626L139.019 88.0461V86.2817L152.383 86.4128V88.1626Z" fill="#D8DEE8"/>
<path d="M191.024 88.6741L157.371 88.3864V64.9971L157.702 65.0043V88.0259L191.024 88.3191V88.6741Z" fill="#D8DEE8"/>
<path d="M162.061 81.9045L161.826 81.6478L168.769 73.9697L175.528 76.679L182.137 70.4939L188.735 74.3575L188.592 74.6725L182.183 70.9218L175.597 77.0868L168.856 74.3867L162.061 81.9045Z" fill="#D8DEE8"/>
<path d="M163.076 81.7899C163.075 81.955 163.045 82.1182 162.987 82.27C162.929 82.4217 162.844 82.5591 162.739 82.6739C162.633 82.7888 162.508 82.8789 162.371 82.9391C162.234 82.9993 162.088 83.0283 161.941 83.0244C161.642 83.0244 161.354 82.8919 161.142 82.6556C160.929 82.4194 160.808 82.0984 160.805 81.7626C160.806 81.5975 160.837 81.4343 160.895 81.2825C160.952 81.1308 161.037 80.9935 161.142 80.8787C161.248 80.7639 161.373 80.674 161.51 80.6141C161.647 80.5542 161.794 80.5256 161.941 80.53C162.24 80.53 162.527 80.6622 162.739 80.8981C162.952 81.134 163.073 81.4544 163.076 81.7899V81.7899Z" fill="url(#paint51_linear)"/>
<path d="M169.937 74.1973C169.936 74.3609 169.906 74.5228 169.849 74.6733C169.792 74.8238 169.708 74.9601 169.603 75.074C169.499 75.1879 169.375 75.2773 169.239 75.3368C169.103 75.3964 168.958 75.4249 168.812 75.4208C168.515 75.418 168.23 75.2842 168.02 75.0482C167.809 74.8123 167.69 74.493 167.687 74.159C167.687 73.9952 167.717 73.8332 167.775 73.6826C167.832 73.5319 167.916 73.3956 168.02 73.2817C168.125 73.1677 168.249 73.0784 168.385 73.0189C168.521 72.9595 168.667 72.9311 168.812 72.9355C169.11 72.9388 169.394 73.0728 169.604 73.3087C169.814 73.5446 169.934 73.8637 169.937 74.1973V74.1973Z" fill="url(#paint52_linear)"/>
<path d="M176.679 76.9084C176.678 77.0711 176.649 77.2322 176.592 77.382C176.535 77.5318 176.452 77.6675 176.349 77.7811C176.245 77.8947 176.122 77.9838 175.987 78.0435C175.852 78.1031 175.708 78.1319 175.563 78.1283C175.268 78.1226 174.987 77.9886 174.778 77.7545C174.57 77.5204 174.451 77.2046 174.446 76.8738C174.447 76.711 174.477 76.55 174.533 76.4001C174.59 76.2503 174.673 76.1146 174.776 76.0011C174.88 75.8875 175.003 75.7983 175.138 75.7387C175.273 75.6791 175.418 75.6502 175.563 75.6539C175.857 75.6595 176.138 75.7935 176.347 76.0276C176.555 76.2617 176.674 76.5776 176.679 76.9084Z" fill="url(#paint53_linear)"/>
<path d="M183.266 70.7289C183.267 70.8905 183.238 71.0506 183.182 71.1995C183.126 71.3485 183.044 71.4834 182.941 71.5962C182.838 71.7091 182.716 71.7976 182.581 71.8566C182.447 71.9156 182.304 71.9438 182.16 71.9397C181.866 71.935 181.586 71.8012 181.379 71.567C181.171 71.3329 181.054 71.017 181.052 70.687C181.052 70.5253 181.081 70.3652 181.137 70.2163C181.194 70.0673 181.276 69.9324 181.379 69.8196C181.482 69.7068 181.604 69.6183 181.739 69.5593C181.873 69.5004 182.016 69.4721 182.16 69.4762C182.454 69.4814 182.734 69.6155 182.941 69.8496C183.147 70.0837 183.264 70.3993 183.266 70.7289Z" fill="url(#paint54_linear)"/>
<path d="M189.762 74.5414C189.762 74.7022 189.733 74.8613 189.678 75.0096C189.622 75.1578 189.541 75.2922 189.439 75.4047C189.337 75.5173 189.215 75.6059 189.082 75.6652C188.949 75.7246 188.807 75.7535 188.664 75.7504C188.371 75.7451 188.093 75.6117 187.887 75.3785C187.681 75.1454 187.565 74.8312 187.564 74.5031C187.564 74.3423 187.593 74.1831 187.648 74.0348C187.704 73.8866 187.785 73.7522 187.888 73.6397C187.99 73.5271 188.111 73.4386 188.245 73.3793C188.378 73.32 188.52 73.291 188.664 73.2942C188.956 73.2999 189.234 73.4336 189.439 73.6666C189.644 73.8997 189.76 74.2137 189.762 74.5414V74.5414Z" fill="url(#paint55_linear)"/>
<path d="M167.959 165.293C167.68 165.05 167.463 164.729 167.33 164.363C167.168 163.884 167.281 163.671 167.073 163.372C166.935 163.183 166.748 163.047 166.538 162.981C166.327 162.916 166.104 162.926 165.899 163.008C165.804 163.048 165.722 163.121 165.665 163.216C165.503 163.527 165.867 164.068 166.152 164.356C166.371 164.572 166.462 164.556 166.695 164.742C167.024 165.012 167.281 165.377 167.438 165.799L167.959 165.293Z" fill="url(#paint56_linear)"/>
<path d="M155.744 162.675C156.085 162.573 156.395 162.373 156.646 162.094C156.97 161.73 156.931 161.479 157.227 161.293C157.42 161.181 157.639 161.138 157.855 161.171C158.07 161.203 158.272 161.309 158.432 161.475C158.506 161.553 158.557 161.656 158.575 161.768C158.618 162.132 158.088 162.466 157.725 162.602C157.447 162.706 157.369 162.651 157.09 162.719C156.694 162.825 156.331 163.049 156.039 163.369L155.744 162.675Z" fill="url(#paint57_linear)"/>
<path d="M156.91 163.119C157.073 163.986 156.239 164.758 155.635 165.515C154.427 167.034 153.163 169.745 153.627 172.07C153.88 173.344 154.693 174.715 155.841 175.365C157.077 176.066 157.817 175.429 159.104 176.261C159.198 176.323 160.823 177.405 160.87 178.865C160.929 180.666 158.57 182.581 156.55 182.727C152.858 182.996 148.408 177.483 148.614 172.013C148.84 166.058 154.542 161.331 156.182 162.134C156.36 162.229 156.518 162.366 156.643 162.536C156.769 162.706 156.86 162.905 156.91 163.119V163.119Z" fill="url(#paint58_linear)"/>
<path d="M158.555 224.781L158.687 226.288L158.06 226.161L157.64 224.744L158.555 224.781Z" fill="url(#paint59_linear)"/>
<path d="M154.74 196.896C154.793 199.197 155.033 201.488 155.455 203.74C155.835 205.754 156.055 206.107 156.174 207.493C156.432 210.522 155.562 210.952 155.402 214.38C155.299 217.078 155.663 219.772 156.474 222.313C156.723 223.121 157.014 223.911 157.347 224.68C157.655 224.983 158.127 224.863 158.625 224.753C158.808 221.323 159.037 218.095 159.22 214.666C159.812 209.506 160.403 204.347 160.995 199.19L154.74 196.896Z" fill="url(#paint60_linear)"/>
<path style="mix-blend-mode:multiply" opacity="0.3" d="M158.625 224.768C158.808 221.337 159.037 218.109 159.22 214.681C159.812 209.521 160.403 204.362 160.995 199.204L154.74 196.896C154.74 197.078 154.753 197.245 154.758 197.418C157.678 200.271 158.257 202.529 158.227 204.07C158.193 205.939 157.283 206.866 157.46 209.575C157.588 211.513 158.109 211.853 158.109 213.601C158.109 215.853 157.249 217.119 156.829 218.419C156.424 219.677 156.279 221.458 157.063 223.99C157.165 224.253 157.262 224.486 157.35 224.688C157.655 224.997 158.127 224.881 158.625 224.768Z" fill="url(#paint61_linear)"/>
<path d="M158.32 226.804C158.023 226.39 157.751 226.421 157.702 226.141C157.688 226.025 157.706 225.906 157.754 225.802C157.802 225.698 157.877 225.613 157.97 225.558C158.224 225.422 158.528 225.653 158.596 225.706C159.06 226.059 158.92 226.592 159.36 226.836C159.498 226.897 159.625 226.986 159.735 227.099C159.796 227.168 159.95 227.335 159.911 227.448C159.872 227.561 159.587 227.568 159.321 227.557C158.996 227.545 158.834 227.537 158.691 227.426C158.482 227.271 158.549 227.12 158.32 226.804Z" fill="url(#paint62_linear)"/>
<path d="M158.949 213.896L157.778 214.411L157.438 213.809L158.352 213.119L158.949 213.896Z" fill="url(#paint63_linear)"/>
<path d="M157.162 214.739C157.23 214.215 157.025 214.011 157.176 213.78C157.241 213.688 157.33 213.621 157.431 213.588C157.532 213.556 157.639 213.559 157.738 213.598C158.002 213.714 158.062 214.12 158.062 214.211C158.145 214.836 157.702 215.083 157.84 215.61C157.895 215.765 157.923 215.93 157.923 216.098C157.923 216.194 157.922 216.436 157.814 216.48C157.705 216.524 157.517 216.298 157.343 216.067C157.136 215.795 157.03 215.659 157.001 215.458C156.964 215.182 157.103 215.134 157.162 214.739Z" fill="url(#paint64_linear)"/>
<path d="M164.014 194.529C166.196 199.521 166.934 203.684 167.216 206.4C167.396 208.148 167.378 209.23 166.931 210.315C165.325 214.202 159.72 214.459 158.868 214.486C158.589 213.842 158.309 213.198 158.028 212.554C158.716 211.074 159.735 209.82 160.984 208.913C162.169 208.077 162.632 208.255 162.93 207.693C164.116 205.439 157.71 200.556 158.667 197.315C158.996 196.167 160.271 195.024 164.014 194.529Z" fill="url(#paint65_linear)"/>
<path d="M159.288 176.58C161.645 177.033 163.44 177.507 164.241 178.892C165.086 180.349 163.741 181.456 163.375 184.668C162.815 189.584 165.333 191.419 164.609 196.368C164.504 197.096 164.341 197.813 164.123 198.509C163.782 199.586 163.125 200.502 162.26 201.105C161.519 201.629 160.728 202.056 159.902 202.38C157.512 203.318 156.333 202.773 153.119 202.979C147.86 203.316 147.071 205.027 144.697 203.975C142.294 202.912 140.557 200.037 141.066 198.808C141.371 198.079 142.333 198.531 143.713 197.628C145.498 196.464 145.193 194.875 146.633 193.513C148.707 191.554 150.7 193.531 152.473 191.829C154.247 190.126 154.48 185.92 153.718 183.426C153.22 181.798 153.212 180.027 152.842 178.357C152.796 178.155 152.804 177.942 152.864 177.745C153.158 176.786 154.724 176.6 155.906 176.471C157.033 176.347 158.17 176.383 159.288 176.58V176.58Z" fill="url(#paint66_linear)"/>
<path style="mix-blend-mode:multiply" opacity="0.3" d="M144.967 202.116C145.696 201.57 145.302 200.027 146.379 199.203C147.38 198.442 148.163 199.438 149.636 198.93C151.528 198.278 151.429 196.235 153.242 195.581C154.54 195.113 154.939 196.047 156.819 196.087C158.7 196.127 161.159 195.257 162.716 193.023C163.309 192.169 163.73 191.181 163.951 190.126C164.452 191.947 164.997 193.706 164.609 196.362C164.47 197.295 164.238 198.207 163.917 199.081C163.672 199.754 163.259 200.333 162.728 200.748C161.852 201.437 160.898 201.988 159.89 202.387C157.501 203.325 156.321 202.78 153.108 202.986C147.849 203.323 147.06 205.035 144.685 203.982C143.254 203.326 142.064 202.142 141.311 200.626C143.396 202.322 144.439 202.511 144.967 202.116Z" fill="url(#paint67_linear)"/>
<path d="M160.649 172.001C160.649 172.001 161.298 173.37 161.341 174.329C161.383 175.289 160.416 175.22 160.416 175.22L160.452 175.826C160.467 176.079 160.547 176.322 160.683 176.525C160.818 176.728 161.003 176.882 161.216 176.97L161.597 177.128C161.597 177.128 159.11 177.725 157.752 176.649L158.143 176.605C158.412 176.576 158.663 176.443 158.855 176.23C159.046 176.016 159.165 175.734 159.193 175.433L159.217 175.172C159.217 175.172 158.786 172.179 160.649 172.001Z" fill="url(#paint68_linear)"/>
<path d="M166.773 165.566C166.404 166.349 167.017 167.349 167.409 168.263C168.198 170.098 168.748 173.095 167.734 175.182C167.177 176.323 166.058 177.392 164.794 177.663C163.435 177.955 162.88 177.117 161.44 177.514C161.334 177.545 159.504 178.08 159.1 179.47C158.602 181.183 160.398 183.754 162.304 184.52C165.789 185.92 171.419 182 172.565 176.678C173.811 170.885 169.492 164.576 167.719 164.843C167.524 164.879 167.338 164.962 167.174 165.086C167.011 165.211 166.874 165.375 166.773 165.566V165.566Z" fill="url(#paint69_linear)"/>
<path d="M160.262 173.363C160.132 173.35 160.027 173.168 159.937 173.223C159.848 173.277 159.855 173.545 159.937 173.732C159.989 173.849 160.069 173.947 160.169 174.013C160.031 174.223 159.937 174.465 159.892 174.721C159.775 175.415 160.103 175.972 160.241 176.298C160.856 177.771 159.898 180.098 158.846 181.272C157.992 182.228 157.593 181.844 157.082 182.623C156.089 184.142 157.46 185.809 156.946 187.854C156.166 190.96 151.794 191.885 151.614 191.922L151.419 191.958C149.458 192.308 146.486 192.838 144.393 191.031C142.826 189.679 142.109 187.326 142.228 185.254C142.306 183.639 142.903 182.111 143.908 180.952C144.147 180.684 145.558 179.1 147.466 179.082C148.476 179.071 148.679 179.471 149.451 179.224C150.511 178.885 151.161 177.805 151.56 177.137C152.305 175.905 152.003 175.642 152.534 175.036C153.581 173.849 154.805 174.781 155.932 173.734C157.06 172.687 156.37 171.3 157.434 170.408C158.534 169.485 160.637 169.807 161.084 170.905C161.483 171.848 160.654 173.408 160.262 173.363Z" fill="url(#paint70_linear)"/>
<path d="M302.912 148.1C302.912 148.1 302.462 145.474 302.015 144.691C301.567 143.908 300.731 143.417 300.731 143.417C300.731 143.417 300.558 143.737 301.113 144.415C301.667 145.092 301.204 145.159 301.113 145.376C301.022 145.593 301.218 146.377 301.617 146.65C302.016 146.923 302.164 148.453 302.164 148.453L302.912 148.1Z" fill="url(#paint71_linear)"/>
<path d="M301.617 147.756L303.061 147.475C304.36 150.212 306.093 152.66 308.174 154.698C309.796 156.279 310.844 157.298 312.567 157.81C315.111 158.566 317.307 157.679 317.596 158.48C317.737 158.873 317.252 159.298 316.477 160.339C314.22 163.371 314.433 165 313.192 165.45C312.166 165.814 311.135 165.022 309.384 163.629C307.793 162.355 305.796 160.756 304.109 157.708C302.47 154.715 301.607 151.269 301.617 147.756V147.756Z" fill="url(#paint72_linear)"/>
<path d="M322.82 158.806C323.053 158.906 326.62 160.497 327.354 164.678C327.414 165.015 327.986 168.605 325.817 171.142C323.384 173.986 318.701 173.915 316.842 171.537C316.468 171.05 316.197 170.474 316.05 169.852L316.537 168.396C317.135 167.587 317.948 167.394 318.383 167.274C319.455 166.977 320.265 167.515 320.878 166.934C321.217 166.613 321.285 166.151 321.345 165.739C321.551 164.334 320.844 163.469 320.792 162.602C320.754 161.954 320.552 160.534 321.304 159.609C321.785 159.024 322.446 158.859 322.82 158.806Z" fill="url(#paint73_linear)"/>
<path d="M324.21 205.379C324.25 205.122 324.992 204.889 325.358 205.233C325.54 205.404 325.665 205.752 325.56 205.909C325.522 205.965 325.678 206.065 325.529 206.067C325.029 206.074 324.168 205.635 324.21 205.379Z" fill="url(#paint74_linear)"/>
<path d="M324.985 205.473L325.746 205.351C325.394 204.876 325.459 203.349 325.459 203.349L324.648 203.551C324.648 203.551 324.74 203.968 324.898 204.583C324.957 204.875 324.986 205.174 324.985 205.473V205.473Z" fill="url(#paint75_linear)"/>
<path d="M324.917 205.368C324.917 205.368 325.834 205.131 325.933 205.335C326.032 205.539 326.109 206.085 325.529 206.063C324.948 206.041 324.867 205.541 324.917 205.368Z" fill="url(#paint76_linear)"/>
<path d="M313.764 206.344C313.837 206.096 314.6 205.98 314.919 206.38C315.082 206.579 315.159 206.941 315.035 207.079C314.991 207.13 315.133 207.261 314.984 207.232C314.489 207.161 313.691 206.589 313.764 206.344Z" fill="url(#paint77_linear)"/>
<path d="M314.52 206.559H315.289C314.999 206.031 315.254 204.539 315.254 204.539L314.426 204.612C314.426 204.612 314.465 205.038 314.545 205.672C314.566 205.968 314.558 206.265 314.52 206.559V206.559Z" fill="url(#paint78_linear)"/>
<path d="M312.528 173.925C311.988 175.929 311.589 177.977 311.336 180.05C310.402 187.674 312.387 187.918 312.016 196.366C311.897 199.062 314.099 205.288 314.287 205.419C314.388 205.431 314.49 205.436 314.592 205.433C314.854 205.422 315.114 205.373 315.366 205.288C315.714 205.22 316.971 201.4 316.679 199.13C316.473 197.522 316.533 195.796 316.654 192.348C316.673 191.789 317.951 181.47 317.951 181.47C318.339 185.294 318.785 188.535 319.171 191.049C320.412 199.133 324.45 204.024 324.661 204.104C324.779 204.156 324.905 204.178 325.031 204.168C325.158 204.158 325.28 204.117 325.391 204.048C325.471 203.991 325.535 203.91 325.576 203.815C325.684 203.718 325.543 195.745 324.312 189.742C322.528 181.032 323.303 179 322.737 175.101C322.245 171.735 312.528 173.925 312.528 173.925Z" fill="url(#paint79_linear)"/>
<path d="M319.747 158.127C318.561 158.086 315.833 157.617 314.33 159.133C314.305 159.161 314.613 159.345 314.46 159.545C314.06 160.075 313.705 160.647 313.401 161.253C313.018 162.036 312.719 162.866 312.509 163.727C312.142 165.136 311.906 166.583 311.805 168.046C311.531 172.101 311.805 173.971 312.05 175.242C313.122 175.861 315.888 176.968 319.187 176.418C320.43 176.208 321.633 175.763 322.743 175.103C321.888 172.19 322.56 170.644 322.876 169.211C323.327 167.168 323.334 167.323 323.705 165.699C324.319 163.023 324.419 160.286 323.997 159.725C322.855 158.216 320.81 158.161 319.747 158.127Z" fill="url(#paint80_linear)"/>
<path d="M314.467 206.444C314.467 206.444 315.404 206.353 315.476 206.571C315.547 206.79 315.557 207.342 314.989 207.232C314.421 207.123 314.394 206.606 314.467 206.444Z" fill="url(#paint81_linear)"/>
<path d="M317.254 155.63C317.059 154.851 317.4 154.128 317.476 153.972C317.791 153.32 317.872 153.231 318.021 153.118L318.23 152.974L318.255 152.963C318.479 152.911 318.709 152.896 318.938 152.916C319.233 152.987 319.548 154.338 319.458 156.249C319.471 156.322 319.483 156.395 319.494 156.47C319.541 156.77 319.577 157.067 319.606 157.356C319.62 157.492 319.666 157.621 319.741 157.728C319.816 157.836 319.916 157.918 320.029 157.966C321.6 158.631 321.596 158.101 321.759 158.673C321.848 158.984 320.063 159.489 319.187 159.376C317.213 159.392 315.607 159.155 315.781 158.806C315.857 158.651 317.387 158.203 317.817 157.759C318.211 157.351 318.178 156.93 318.211 156.63C318.091 156.561 317.398 156.206 317.254 155.63Z" fill="url(#paint82_linear)"/>
<path d="M317.617 152.431C317.617 153.023 317.867 153.655 317.995 153.757C318.069 153.823 318.133 153.901 318.185 153.99C318.197 154.012 318.208 154.036 318.216 154.061C318.331 154.425 317.802 154.873 317.904 155.04C317.979 155.161 318.337 154.999 318.38 155.104C318.422 155.21 318.122 155.406 318.167 155.523C318.212 155.639 318.386 155.523 318.501 155.667C318.56 155.736 318.542 155.789 318.603 155.996C318.635 156.106 318.675 156.213 318.723 156.315C318.907 156.663 319.423 156.788 319.522 156.65C319.549 156.612 319.522 156.579 319.554 156.448C319.577 156.357 319.611 156.27 319.655 156.189C319.762 155.989 320.02 155.847 320.279 155.643C320.766 155.253 320.892 154.915 320.928 154.809C320.943 154.769 320.951 154.738 320.957 154.718C321.091 154.235 321.074 153.716 320.909 153.245C320.615 152.586 319.955 152.899 319.415 152.246C318.792 151.49 319.163 150.459 318.824 150.345C318.454 150.214 317.614 151.337 317.617 152.431Z" fill="#26264F"/>
<path d="M318.094 154.9C318.224 154.702 318.451 154.889 318.451 155.146C318.451 155.403 318.23 155.672 318.015 155.621C317.799 155.57 317.921 155.17 318.094 154.9Z" fill="url(#paint83_linear)"/>
<path d="M322.359 173.279C322.347 173.279 322.336 173.274 322.328 173.265C322.319 173.256 322.313 173.245 322.312 173.232C322.171 171.797 322.433 170.759 322.667 169.843C322.724 169.619 322.777 169.408 322.829 169.199C323.087 168.037 323.199 167.589 323.316 167.114C323.394 166.806 323.478 166.488 323.597 165.954C323.6 165.941 323.608 165.93 323.619 165.923C323.629 165.917 323.642 165.915 323.654 165.918C323.666 165.922 323.676 165.93 323.682 165.942C323.688 165.954 323.69 165.968 323.687 165.981C323.564 166.515 323.485 166.834 323.407 167.143C323.288 167.616 323.176 168.064 322.92 169.224C322.873 169.435 322.82 169.647 322.758 169.872C322.528 170.783 322.271 171.806 322.406 173.221C322.407 173.228 322.406 173.235 322.404 173.241C322.402 173.248 322.4 173.254 322.396 173.26C322.392 173.265 322.387 173.27 322.381 173.273C322.376 173.276 322.37 173.278 322.364 173.279H322.359Z" fill="#9B305E"/>
<path d="M318.199 154.472L317.899 154.911C317.899 154.911 317.575 155.447 317.387 155.153C317.225 154.913 317.192 154.918 317.184 154.928C317.184 154.928 317.207 154.807 317.229 154.704C317.113 154.891 317.026 155.1 316.973 155.321C316.908 155.594 316.838 155.887 316.973 156.168C317.071 156.354 317.228 156.492 317.413 156.554C317.608 156.565 317.804 156.544 317.993 156.49C317.993 156.49 317.481 156.073 317.473 155.973C317.452 155.705 317.784 155.559 318.032 155.006C318.107 154.836 318.163 154.657 318.199 154.472V154.472Z" fill="#26264F"/>
<path d="M99.0991 102.149C99.0991 102.149 98.2783 102.696 98.6125 103.071C98.9467 103.446 100.749 104.915 101.078 104.915C101.408 104.915 101.078 103.44 100.754 103.256C100.429 103.073 99.4285 101.966 99.0991 102.149Z" fill="url(#paint84_linear)"/>
<path d="M91.8706 83.8945C93.0062 84.1567 97.0147 85.2565 99.5924 89.426C100.212 90.4292 101.549 92.656 101.563 95.8805C101.581 99.4401 99.9785 101.922 99.4285 102.703L98.7796 102.885C97.9263 102.118 97.6051 101.372 97.464 100.857C97.0698 99.4001 97.7609 98.5042 97.6262 96.4304C97.5922 95.906 97.5289 94.9028 97.1396 94.0343C96.0446 91.6345 93.2462 92.0806 88.7608 89.4242C87.1386 88.4646 85.93 87.7254 85.9673 86.8423C86.0225 85.2838 89.932 84.306 91.8706 83.8945Z" fill="url(#paint85_linear)"/>
<g style="mix-blend-mode:multiply" opacity="0.3">
<path style="mix-blend-mode:multiply" opacity="0.3" d="M98.8526 98.3696C99.289 95.4964 100.546 93.6775 99.6751 92.2846C98.9662 91.1503 97.7381 91.7184 95.8953 90.2563C94.5797 89.2112 94.2731 88.1825 93.595 87.3049C92.7304 86.1888 91.1146 85.1327 87.8361 85.0981C86.7865 85.5643 85.9852 86.1469 85.956 86.8442C85.9187 87.7273 87.1321 88.4665 88.7494 89.4261C93.2268 92.0825 96.0332 91.6365 97.1282 94.0362C97.524 94.9047 97.5873 95.9079 97.6149 96.4323C97.7463 98.5061 97.0552 99.4074 97.4526 100.859C97.5938 101.374 97.915 102.12 98.7683 102.887L98.9159 102.845C98.6553 101.37 98.6338 99.8535 98.8526 98.3696V98.3696Z" fill="url(#paint86_linear)"/>
</g>
<path d="M89.0771 115.794C88.9782 115.638 88.1671 116.135 88.4201 116.717C88.6375 117.214 89.0771 118.008 89.7341 119.299C89.9061 119.636 90.5161 119.845 90.7578 119.827C90.8184 119.825 90.8772 119.804 90.9276 119.766C90.978 119.728 91.0179 119.675 91.0429 119.613C91.0679 119.551 91.077 119.483 91.069 119.415C91.061 119.348 91.0364 119.284 90.9979 119.232C90.7594 118.908 90.1527 118.05 90.0635 117.455C89.8996 116.348 89.5703 115.243 89.0771 115.794Z" fill="url(#paint87_linear)"/>
<path d="M88.2563 114.689L89.0771 116.533C89.1195 116.582 89.1701 116.62 89.2258 116.646C89.2815 116.672 89.3412 116.686 89.4016 116.686C89.462 116.686 89.5217 116.672 89.5774 116.646C89.6331 116.62 89.6836 116.582 89.726 116.533L89.5638 114.503L88.2563 114.689Z" fill="url(#paint88_linear)"/>
<path d="M90.7204 85.1855C90.1543 90.0578 89.7293 95.4272 89.5703 101.228C89.4324 106.301 89.5135 111.049 89.7325 115.43H88.584C87.4181 114.606 86.4571 113.464 85.7905 112.111C85.5537 111.621 84.8869 110.123 84.8042 106.763C84.7361 103.945 85.1627 103.195 85.2909 100.862C85.5553 96.2976 84.1732 94.8373 83.9769 87.7692C83.9185 85.6826 84.0077 84.6994 84.6258 84.0821C86.295 82.4453 90.1819 84.845 90.7204 85.1855Z" fill="url(#paint89_linear)"/>
<path d="M100.742 79.4685C100.742 79.4685 100.905 79.2864 101.563 78.9223C102.222 78.5581 102.713 78.9223 102.879 79.8454C103.044 80.7685 103.041 81.8737 102.717 81.5041C102.392 81.1345 101.732 79.8454 101.239 80.2132C100.746 80.581 100.742 79.4685 100.742 79.4685Z" fill="url(#paint90_linear)"/>
<path d="M64.1046 66.3753C63.9644 66.0197 63.8557 65.6495 63.7802 65.2701C63.618 64.5327 63.2935 64.1631 62.7939 63.9792C62.2942 63.7953 61.8092 64.1612 61.316 63.7971C61.0094 63.5677 61.1538 64.9023 61.9649 65.2719C62.776 65.6415 63.4428 66.9306 63.4428 66.9306L64.1046 66.3753Z" fill="url(#paint91_linear)"/>
<path d="M85.1351 68.9573C85.4125 68.808 86.2707 68.899 88.0924 69.6856C91.5769 71.2095 92.62 73.7804 95.4849 76.1401C97.1657 77.5091 99.0609 78.511 101.072 79.0934L101.558 80.7539C99.0132 81.7389 97.099 81.6133 95.8093 81.3001C91.9338 80.377 90.2938 77.005 86.4442 77.2435C85.6899 77.289 85.1676 77.4547 84.6371 77.0614C82.9678 75.816 83.0765 70.0697 85.1351 68.9573Z" fill="url(#paint92_linear)"/>
<path d="M94.1709 84.0786C94.1027 83.1809 92.2923 83.292 91.2136 81.4967C90.4268 80.1876 90.7902 79.1298 90.5647 77.0705C90.3376 75.0786 89.8412 72.5751 88.1005 70.6178C87.8043 70.2688 87.4733 69.959 87.1142 69.6946C84.8269 68.056 82.2622 69.3942 78.4061 70.0588C75.9809 70.4794 72.5418 71.0711 69.2065 69.6946C66.9014 68.7406 65.2921 67.0946 64.2782 65.8237L62.7988 66.552C63.6196 70.179 65.0699 72.1017 66.2492 73.1905C69.9219 76.5716 73.7585 74.4067 77.0921 78.3523C78.3231 79.8568 79.1738 81.7029 79.5563 83.6998C79.6763 84.4391 79.8807 85.7263 79.5563 87.2048C78.7062 91.0284 75.1211 92.1736 75.4488 93.4736C75.7149 94.5242 78.398 95.1123 80.8719 94.3949C84.517 93.3352 84.47 90.3711 89.0852 87.3887C91.8332 85.6171 94.2504 85.1218 94.1709 84.0786Z" fill="url(#paint93_linear)"/>
<path d="M79.7137 68.2197C79.7137 68.2197 80.2004 68.9571 79.5515 69.3267C78.9475 69.6269 78.3258 69.88 77.6908 70.0842L83.002 70.8015L83.4886 69.1428C83.4886 69.1428 81.6815 69.3249 81.5176 69.1428L80.6952 68.2197H79.7137Z" fill="url(#paint94_linear)"/>
<path d="M80.6384 66.918C81.0731 66.3717 81.1899 66.4118 81.3392 66.1004C81.6798 65.3922 81.5014 64.307 81.151 64.1887C80.9288 64.1122 80.8168 64.4982 80.1939 64.9679C79.4314 65.5415 79.1005 65.3321 78.6025 65.8783C78.4857 66.0076 77.9536 66.5829 78.0607 67.1528C78.1888 67.8811 79.2838 68.329 79.8711 67.9667C80.1501 67.8047 80.103 67.588 80.6384 66.918Z" fill="url(#paint95_linear)"/>
<path d="M79.7234 68.3291C79.9224 68.4922 80.1557 68.5946 80.4004 68.6265C80.6452 68.6584 80.8931 68.6187 81.1201 68.5112C81.808 68.1725 81.3375 66.3609 80.7681 66.1679C80.6423 66.1409 80.5129 66.1431 80.388 66.1744C80.263 66.2058 80.145 66.2655 80.0414 66.3499C79.9116 66.4537 79.8792 66.5411 79.6699 66.7141C79.4606 66.8871 79.4006 66.8652 79.3552 66.9544C79.3098 67.0436 79.2984 67.2822 79.6034 67.7428C79.5344 67.6938 79.454 67.6691 79.3724 67.672C79.2908 67.6749 79.2119 67.7053 79.1459 67.7592C79.115 67.799 79.0943 67.8474 79.0859 67.8994C79.0567 68.1397 79.3049 68.3327 79.7234 68.3291Z" fill="url(#paint96_linear)"/>
<g style="mix-blend-mode:multiply" opacity="0.3">
<path style="mix-blend-mode:multiply" opacity="0.3" d="M85.2162 86.3764C85.0362 85.1164 82.7067 85.3622 82.0951 83.6107C81.4462 81.7644 83.62 80.3042 83.4091 77.8935C83.1511 74.9439 79.5514 73.1177 79.1378 72.9156C74.8178 70.7944 72.0762 74.0736 67.474 72.5514C66.359 72.1763 65.3098 71.5887 64.3723 70.8145C64.8787 71.7151 65.5095 72.5196 66.2411 73.1978C69.9138 76.5789 73.7504 74.4141 77.084 78.3596C78.315 79.8641 79.1657 81.7102 79.5482 83.7072C79.6682 84.4464 79.8726 85.7337 79.5482 87.2121C78.6982 91.0357 75.113 92.181 75.4407 93.481C75.6678 94.3804 77.6615 94.9376 79.7818 94.6353C79.834 93.6827 80.0621 92.7526 80.4518 91.9042C81.9523 88.7306 85.4401 87.9386 85.2162 86.3764Z" fill="url(#paint97_linear)"/>
</g>
<path d="M60.2194 61.5412C45.4362 58.1073 45.6762 87.4596 31.3666 85.0617C30.7502 84.9615 30.0267 84.3971 29.7931 83.8891L23.872 70.9618C23.6384 70.452 24.0245 70.2772 24.6831 70.4829C40.0747 75.246 40.7999 47.9985 56.4299 53.2804C56.9004 53.4389 57.4033 53.8267 57.5266 54.1071L60.7969 61.2444C60.9316 61.5321 60.6623 61.6432 60.2194 61.5412Z" fill="url(#paint98_linear)"/>
<g opacity="0.81">
<path opacity="0.81" d="M34.6954 79.3863C35.3454 79.4372 35.9935 79.2617 36.5512 78.8838C37.2001 78.4231 37.3624 77.8277 37.1644 77.3817C36.9665 76.9356 36.5853 76.9647 35.6947 77.1741C34.4488 77.4654 33.3474 77.0448 32.8688 75.9997C32.2945 74.747 32.945 73.5654 34.4407 72.5785C34.9628 72.2079 35.5278 71.9194 36.1197 71.7209C36.2122 72.2198 36.3063 72.7187 36.3988 73.2176C35.9037 73.3502 35.432 73.5755 35.0036 73.884C34.3904 74.3046 34.2136 74.7743 34.384 75.144C34.5867 75.5864 35.0604 75.6046 36.0062 75.3479C37.265 74.9655 37.9772 75.0602 38.4168 76.0197C38.9164 77.1122 38.7315 78.9748 37.0687 80.2439C36.4553 80.6968 35.7288 80.9176 34.9955 80.8739C34.8917 80.3786 34.7879 79.8834 34.6954 79.3863Z" fill="white"/>
<path opacity="0.81" d="M38.6374 70.5357C38.1881 71.0965 37.7257 71.6281 37.2472 72.1325L36.668 70.858C38.0291 69.4869 39.2636 67.8282 40.4575 66.1003L40.9929 67.2674C40.5792 67.881 40.1623 68.4873 39.7373 69.0773L42.0879 74.2081C41.7472 74.7544 41.4017 75.2751 41.0464 75.7831L38.6374 70.5357Z" fill="white"/>
<path opacity="0.81" d="M43.6047 68.9388C43.7398 69.6198 43.8756 70.3032 44.0118 70.989C43.6874 71.5553 43.3532 72.1215 43.0207 72.6805C42.5178 69.9129 42.0311 67.1818 41.5607 64.4871C41.9954 63.848 42.4302 63.2126 42.8714 62.5771C44.2 63.8517 45.514 65.0861 46.8183 66.306C46.4755 66.8328 46.138 67.3712 45.806 67.921L44.8035 66.9615C44.4044 67.6224 44.0037 68.2779 43.6047 68.9388ZM44.2195 66.1986L43.3857 65.3738C43.1488 65.1426 42.8714 64.8276 42.6459 64.5709C42.6421 64.578 42.6378 64.5847 42.633 64.5909C42.7287 65.0388 42.8698 65.585 42.9574 66.0366C43.0655 66.5901 43.1737 67.1454 43.2818 67.7026C43.5922 67.1976 43.9048 66.6963 44.2195 66.1986V66.1986Z" fill="white"/>
<path opacity="0.81" d="M44.8846 60.0026C45.2777 59.3886 45.725 58.8207 46.2197 58.3074C46.9156 57.5791 47.4834 57.2732 47.9717 57.2769C48.176 57.2824 48.3746 57.3541 48.5436 57.4833C48.7125 57.6125 48.8446 57.7937 48.9239 58.0052C49.224 58.6588 48.9807 59.4618 48.6481 60.0208L48.6579 60.0444C49.0569 59.8769 49.4057 60.0645 49.7448 60.4323C50.1617 60.882 50.6208 61.4227 50.8057 61.5411C50.4237 61.8639 50.0571 62.2091 49.7074 62.5753C49.5631 62.5061 49.2565 62.1929 48.8217 61.6886C48.387 61.1842 48.1112 61.186 47.6862 61.6576C47.5823 61.7778 47.4801 61.8998 47.3779 62.0218C47.7024 62.7319 48.0268 63.4407 48.3513 64.1484C48.0268 64.5745 47.7024 65.0169 47.3779 65.4739L44.8846 60.0026ZM46.9773 61.1314C47.1119 60.973 47.2465 60.8183 47.3828 60.6653C47.9003 60.0918 48.0869 59.4964 47.8695 59.0357C47.6521 58.5751 47.2336 58.5824 46.7453 59.0813C46.5787 59.2518 46.4256 59.4382 46.2878 59.6384L46.9773 61.1314Z" fill="white"/>
<path opacity="0.81" d="M50.5705 56.3921C50.0815 56.6254 49.6086 56.8992 49.1559 57.2114L48.713 56.2446C50.0291 55.3568 51.5105 54.8233 53.0411 54.686L53.4499 55.5782C52.9018 55.6334 52.3591 55.7419 51.8277 55.9023C52.4247 57.2072 53.0227 58.512 53.6219 59.8169C53.2022 59.9786 52.7934 60.1739 52.3987 60.4014L50.5705 56.3921Z" fill="white"/>
</g>
<g style="mix-blend-mode:soft-light" opacity="0.3">
<g style="mix-blend-mode:soft-light" opacity="0.3">
<path d="M50.2574 58.3659C46.3852 60.3924 46.2635 67.2876 43.1099 69.9186C41.0627 71.5263 40.2937 69.6163 37.2699 69.7966C35.3589 69.8385 33.3376 70.3683 31.1055 70.5686C29.2626 71.1931 27.1618 71.2586 24.6815 70.4903C24.0164 70.2845 23.6303 70.4593 23.8704 70.9692L29.7915 83.8965C30.0251 84.4045 30.7486 84.9689 31.365 85.069C45.4508 87.436 45.4378 59.0323 59.5333 61.4102C54.97 57.6777 52.0743 57.4264 50.2574 58.3659Z" fill="white"/>
</g>
</g>
<path d="M63.2027 66.561C63.1575 66.561 63.1132 66.5471 63.0745 66.5208C63.0359 66.4944 63.0045 66.4567 62.9837 66.4117L56.8663 53.3442C56.8357 53.2792 56.8295 53.2033 56.8488 53.1331C56.8681 53.063 56.9114 53.0043 56.9693 52.97C57.0272 52.9357 57.0948 52.9286 57.1573 52.9503C57.2199 52.972 57.2721 53.0207 57.3027 53.0856L63.4201 66.155C63.4478 66.219 63.4525 66.2926 63.4332 66.3604C63.4139 66.4282 63.372 66.4851 63.3162 66.5191C63.2821 66.5435 63.2431 66.5579 63.2027 66.561V66.561Z" fill="url(#paint99_linear)"/>
</g>
<defs>
<linearGradient id="paint0_linear" x1="231.646" y1="-152.22" x2="-290.435" y2="736.342" gradientUnits="userSpaceOnUse">
<stop stop-color="#AA80F9"/>
<stop offset="1" stop-color="#6165D7"/>
</linearGradient>
<linearGradient id="paint1_linear" x1="21815.6" y1="8963.31" x2="7535.01" y2="26598" gradientUnits="userSpaceOnUse">
<stop stop-color="#AA80F9"/>
<stop offset="1" stop-color="#6165D7"/>
</linearGradient>
<linearGradient id="paint2_linear" x1="575430" y1="-3398.08" x2="571950" y2="87226.3" gradientUnits="userSpaceOnUse">
<stop stop-color="#AA80F9"/>
<stop offset="1" stop-color="#6165D7"/>
</linearGradient>
<linearGradient id="paint3_linear" x1="133.468" y1="-84.6049" x2="-285.606" y2="628.649" gradientUnits="userSpaceOnUse">
<stop stop-color="#FF9085"/>
<stop offset="1" stop-color="#FB6FBB"/>
</linearGradient>
<linearGradient id="paint4_linear" x1="28090.1" y1="19843.7" x2="5241.12" y2="48452.4" gradientUnits="userSpaceOnUse">
<stop stop-color="#AA80F9"/>
<stop offset="1" stop-color="#6165D7"/>
</linearGradient>
<linearGradient id="paint5_linear" x1="29980.1" y1="18722.4" x2="4420.66" y2="50290.5" gradientUnits="userSpaceOnUse">
<stop stop-color="#AA80F9"/>
<stop offset="1" stop-color="#6165D7"/>
</linearGradient>
<linearGradient id="paint6_linear" x1="248275" y1="5292.26" x2="230971" y2="135796" gradientUnits="userSpaceOnUse">
<stop stop-color="#FF9085"/>
<stop offset="1" stop-color="#FB6FBB"/>
</linearGradient>
<linearGradient id="paint7_linear" x1="658560" y1="-1875.14" x2="656059" y2="88586.1" gradientUnits="userSpaceOnUse">
<stop stop-color="#AA80F9"/>
<stop offset="1" stop-color="#6165D7"/>
</linearGradient>
<linearGradient id="paint8_linear" x1="541800" y1="-1148.71" x2="533998" y2="122675" gradientUnits="userSpaceOnUse">
<stop stop-color="#AA80F9"/>
<stop offset="1" stop-color="#6165D7"/>
</linearGradient>
<linearGradient id="paint9_linear" x1="430070" y1="-6422.44" x2="414468" y2="132561" gradientUnits="userSpaceOnUse">
<stop stop-color="#FF9085"/>
<stop offset="1" stop-color="#FB6FBB"/>
</linearGradient>
<linearGradient id="paint10_linear" x1="27551.3" y1="15092.9" x2="18982.6" y2="24312.7" gradientUnits="userSpaceOnUse">
<stop stop-color="#FF9085"/>
<stop offset="1" stop-color="#FB6FBB"/>
</linearGradient>
<linearGradient id="paint11_linear" x1="192155" y1="14534" x2="176031" y2="127697" gradientUnits="userSpaceOnUse">
<stop stop-color="#AA80F9"/>
<stop offset="1" stop-color="#6165D7"/>
</linearGradient>
<linearGradient id="paint12_linear" x1="359193" y1="-8823.4" x2="347102" y2="121225" gradientUnits="userSpaceOnUse">
<stop stop-color="#AA80F9"/>
<stop offset="1" stop-color="#6165D7"/>
</linearGradient>
<linearGradient id="paint13_linear" x1="70508.7" y1="14047.3" x2="54335.4" y2="41754.9" gradientUnits="userSpaceOnUse">
<stop stop-color="#AA80F9"/>
<stop offset="1" stop-color="#6165D7"/>
</linearGradient>
<linearGradient id="paint14_linear" x1="204.55" y1="39.9746" x2="42.9878" y2="213.134" gradientUnits="userSpaceOnUse">
<stop stop-color="#444B8C"/>
<stop offset="1" stop-color="#26264F"/>
</linearGradient>
<linearGradient id="paint15_linear" x1="31524.5" y1="11804.9" x2="28644.1" y2="10204.7" gradientUnits="userSpaceOnUse">
<stop stop-color="#444B8C"/>
<stop offset="1" stop-color="#26264F"/>
</linearGradient>
<linearGradient id="paint16_linear" x1="43814.1" y1="25095.3" x2="38433.9" y2="22106.4" gradientUnits="userSpaceOnUse">
<stop stop-color="#444B8C"/>
<stop offset="1" stop-color="#26264F"/>
</linearGradient>
<linearGradient id="paint17_linear" x1="31748.6" y1="11369.6" x2="28869.5" y2="9770.13" gradientUnits="userSpaceOnUse">
<stop stop-color="#AA80F9"/>
<stop offset="1" stop-color="#6165D7"/>
</linearGradient>
<linearGradient id="paint18_linear" x1="98894.8" y1="22718.5" x2="107078" y2="16325.4" gradientUnits="userSpaceOnUse">
<stop stop-color="#AA80F9"/>
<stop offset="1" stop-color="#6165D7"/>
</linearGradient>
<linearGradient id="paint19_linear" x1="292.335" y1="93.9561" x2="270.888" y2="0.786038" gradientUnits="userSpaceOnUse">
<stop stop-color="#FFC444"/>
<stop offset="1" stop-color="#F36F56"/>
</linearGradient>
<linearGradient id="paint20_linear" x1="-90740" y1="-32615.9" x2="-60748.1" y2="-52419.7" gradientUnits="userSpaceOnUse">
<stop stop-color="#FFC444"/>
<stop offset="1" stop-color="#F36F56"/>
</linearGradient>
<linearGradient id="paint21_linear" x1="68852.8" y1="18645" x2="57703.4" y2="12451" gradientUnits="userSpaceOnUse">
<stop stop-color="#AA80F9"/>
<stop offset="1" stop-color="#6165D7"/>
</linearGradient>
<linearGradient id="paint22_linear" x1="22484.1" y1="-5988.6" x2="20637.8" y2="-8329.97" gradientUnits="userSpaceOnUse">
<stop stop-color="#AA80F9"/>
<stop offset="1" stop-color="#6165D7"/>
</linearGradient>
<linearGradient id="paint23_linear" x1="307.541" y1="73.5782" x2="272.291" y2="53.8773" gradientUnits="userSpaceOnUse">
<stop stop-color="#EBEFF2"/>
<stop offset="1" stop-color="white"/>
</linearGradient>
<linearGradient id="paint24_linear" x1="48551.8" y1="16134.3" x2="41889.8" y2="12433.3" gradientUnits="userSpaceOnUse">
<stop stop-color="#EBEFF2"/>
<stop offset="1" stop-color="white"/>
</linearGradient>
<linearGradient id="paint25_linear" x1="50053.3" y1="8584.76" x2="49662.2" y2="13923.6" gradientUnits="userSpaceOnUse">
<stop stop-color="#EBEFF2"/>
<stop offset="1" stop-color="white"/>
</linearGradient>
<linearGradient id="paint26_linear" x1="43223.1" y1="16612.1" x2="42100.9" y2="5883.91" gradientUnits="userSpaceOnUse">
<stop stop-color="#444B8C"/>
<stop offset="1" stop-color="#26264F"/>
</linearGradient>
<linearGradient id="paint27_linear" x1="13537.7" y1="5235.35" x2="14685.7" y2="2002.45" gradientUnits="userSpaceOnUse">
<stop stop-color="#FFC444"/>
<stop offset="1" stop-color="#F36F56"/>
</linearGradient>
<linearGradient id="paint28_linear" x1="33432.4" y1="19129.9" x2="29842.1" y2="17135.4" gradientUnits="userSpaceOnUse">
<stop stop-color="#AA80F9"/>
<stop offset="1" stop-color="#6165D7"/>
</linearGradient>
<linearGradient id="paint29_linear" x1="13442" y1="3368.2" x2="14140.7" y2="6192.62" gradientUnits="userSpaceOnUse">
<stop stop-color="#AA80F9"/>
<stop offset="1" stop-color="#6165D7"/>
</linearGradient>
<linearGradient id="paint30_linear" x1="10036.5" y1="2695.75" x2="10439.8" y2="4327.68" gradientUnits="userSpaceOnUse">
<stop stop-color="#444B8C"/>
<stop offset="1" stop-color="#26264F"/>
</linearGradient>
<linearGradient id="paint31_linear" x1="38569.7" y1="16906.1" x2="38678.7" y2="8490.19" gradientUnits="userSpaceOnUse">
<stop stop-color="#444B8C"/>
<stop offset="1" stop-color="#26264F"/>
</linearGradient>
<linearGradient id="paint32_linear" x1="387160" y1="154661" x2="438584" y2="21896" gradientUnits="userSpaceOnUse">
<stop stop-color="#FFC444"/>
<stop offset="1" stop-color="#F36F56"/>
</linearGradient>
<linearGradient id="paint33_linear" x1="121877" y1="35898.7" x2="115944" y2="48773.7" gradientUnits="userSpaceOnUse">
<stop stop-color="#FFC444"/>
<stop offset="1" stop-color="#F36F56"/>
</linearGradient>
<linearGradient id="paint34_linear" x1="72281.4" y1="59988.8" x2="61948" y2="68505.6" gradientUnits="userSpaceOnUse">
<stop stop-color="#FFC444"/>
<stop offset="1" stop-color="#F36F56"/>
</linearGradient>
<linearGradient id="paint35_linear" x1="200.577" y1="228.781" x2="200.965" y2="234.93" gradientUnits="userSpaceOnUse">
<stop stop-color="#26264F"/>
<stop offset="1" stop-color="#444B8C"/>
</linearGradient>
<linearGradient id="paint36_linear" x1="2856.72" y1="3449.97" x2="2837.52" y2="3362.41" gradientUnits="userSpaceOnUse">
<stop stop-color="#FFC444"/>
<stop offset="1" stop-color="#F36F56"/>
</linearGradient>
<linearGradient id="paint37_linear" x1="27894.7" y1="48168.1" x2="28611.4" y2="48168.1" gradientUnits="userSpaceOnUse">
<stop stop-color="#444B8C"/>
<stop offset="1" stop-color="#26264F"/>
</linearGradient>
<linearGradient id="paint38_linear" x1="26269.6" y1="48159.5" x2="26944.2" y2="48159.5" gradientUnits="userSpaceOnUse">
<stop stop-color="#444B8C"/>
<stop offset="1" stop-color="#26264F"/>
</linearGradient>
<linearGradient id="paint39_linear" x1="9575.75" y1="3158.82" x2="9577.3" y2="3216.13" gradientUnits="userSpaceOnUse">
<stop stop-color="#26264F"/>
<stop offset="1" stop-color="#444B8C"/>
</linearGradient>
<linearGradient id="paint40_linear" x1="2969.82" y1="3509.85" x2="2950.03" y2="3420.36" gradientUnits="userSpaceOnUse">
<stop stop-color="#FFC444"/>
<stop offset="1" stop-color="#F36F56"/>
</linearGradient>
<linearGradient id="paint41_linear" x1="20196.2" y1="51337.7" x2="20558.1" y2="51337.7" gradientUnits="userSpaceOnUse">
<stop stop-color="#444B8C"/>
<stop offset="1" stop-color="#26264F"/>
</linearGradient>
<linearGradient id="paint42_linear" x1="191.712" y1="187.557" x2="206.236" y2="187.557" gradientUnits="userSpaceOnUse">
<stop stop-color="#E38DDD"/>
<stop offset="1" stop-color="#9571F6"/>
</linearGradient>
<linearGradient id="paint43_linear" x1="9039.25" y1="7518.9" x2="8907.65" y2="7664.64" gradientUnits="userSpaceOnUse">
<stop stop-color="#EBEFF2"/>
<stop offset="1" stop-color="white"/>
</linearGradient>
<linearGradient id="paint44_linear" x1="27241.6" y1="13294.3" x2="27878" y2="13294.3" gradientUnits="userSpaceOnUse">
<stop stop-color="#EBEFF2"/>
<stop offset="1" stop-color="white"/>
</linearGradient>
<linearGradient id="paint45_linear" x1="2142.1" y1="1532.83" x2="2145.35" y2="1532.83" gradientUnits="userSpaceOnUse">
<stop stop-color="#EBEFF2"/>
<stop offset="1" stop-color="white"/>
</linearGradient>
<linearGradient id="paint46_linear" x1="5381.78" y1="4770.54" x2="5404.41" y2="4770.54" gradientUnits="userSpaceOnUse">
<stop stop-color="#FFC444"/>
<stop offset="1" stop-color="#F36F56"/>
</linearGradient>
<linearGradient id="paint47_linear" x1="14460.3" y1="7356.96" x2="14197.1" y2="7685.4" gradientUnits="userSpaceOnUse">
<stop stop-color="#FFC444"/>
<stop offset="1" stop-color="#F36F56"/>
</linearGradient>
<linearGradient id="paint48_linear" x1="535.075" y1="1141.99" x2="506.528" y2="1164.22" gradientUnits="userSpaceOnUse">
<stop stop-color="#FFC444"/>
<stop offset="1" stop-color="#F36F56"/>
</linearGradient>
<linearGradient id="paint49_linear" x1="79300.4" y1="47223.8" x2="75889.7" y2="50700.9" gradientUnits="userSpaceOnUse">
<stop stop-color="#E38DDD"/>
<stop offset="1" stop-color="#9571F6"/>
</linearGradient>
<linearGradient id="paint50_linear" x1="79696.7" y1="39499.3" x2="76928.6" y2="42903.7" gradientUnits="userSpaceOnUse">
<stop stop-color="#AA80F9"/>
<stop offset="1" stop-color="#6165D7"/>
</linearGradient>
<linearGradient id="paint51_linear" x1="5571.04" y1="2128.5" x2="5314.99" y2="2853.52" gradientUnits="userSpaceOnUse">
<stop stop-color="#444B8C"/>
<stop offset="1" stop-color="#26264F"/>
</linearGradient>
<linearGradient id="paint52_linear" x1="5586.26" y1="2135.97" x2="5331.44" y2="2853.45" gradientUnits="userSpaceOnUse">
<stop stop-color="#444B8C"/>
<stop offset="1" stop-color="#26264F"/>
</linearGradient>
<linearGradient id="paint53_linear" x1="5643.56" y1="2164.37" x2="5390.19" y2="2875.27" gradientUnits="userSpaceOnUse">
<stop stop-color="#444B8C"/>
<stop offset="1" stop-color="#26264F"/>
</linearGradient>
<linearGradient id="paint54_linear" x1="5665.77" y1="2171.7" x2="5414.13" y2="2875.23" gradientUnits="userSpaceOnUse">
<stop stop-color="#444B8C"/>
<stop offset="1" stop-color="#26264F"/>
</linearGradient>
<linearGradient id="paint55_linear" x1="5724.96" y1="2203.97" x2="5474.18" y2="2902.11" gradientUnits="userSpaceOnUse">
<stop stop-color="#444B8C"/>
<stop offset="1" stop-color="#26264F"/>
</linearGradient>
<linearGradient id="paint56_linear" x1="3576.61" y1="4104.48" x2="3563.61" y2="4166.3" gradientUnits="userSpaceOnUse">
<stop stop-color="#FFC444"/>
<stop offset="1" stop-color="#F36F56"/>
</linearGradient>
<linearGradient id="paint57_linear" x1="7970.19" y1="4933.22" x2="7955.02" y2="4979.81" gradientUnits="userSpaceOnUse">
<stop stop-color="#FFC444"/>
<stop offset="1" stop-color="#F36F56"/>
</linearGradient>
<linearGradient id="paint58_linear" x1="30339.1" y1="25932.9" x2="30231.1" y2="29482.2" gradientUnits="userSpaceOnUse">
<stop stop-color="#FF9085"/>
<stop offset="1" stop-color="#FB6FBB"/>
</linearGradient>
<linearGradient id="paint59_linear" x1="1689.96" y1="2813.67" x2="1694.9" y2="2688.8" gradientUnits="userSpaceOnUse">
<stop stop-color="#FFC444"/>
<stop offset="1" stop-color="#F36F56"/>
</linearGradient>
<linearGradient id="paint60_linear" x1="157.725" y1="199.805" x2="155.318" y2="226.692" gradientUnits="userSpaceOnUse">
<stop stop-color="#311944"/>
<stop offset="1" stop-color="#893976"/>
</linearGradient>
<linearGradient id="paint61_linear" x1="10399.5" y1="43084.5" x2="9605.08" y2="47084.2" gradientUnits="userSpaceOnUse">
<stop stop-color="#311944"/>
<stop offset="1" stop-color="#893976"/>
</linearGradient>
<linearGradient id="paint62_linear" x1="3824.81" y1="3833.77" x2="3802.55" y2="3740.12" gradientUnits="userSpaceOnUse">
<stop stop-color="#FF9085"/>
<stop offset="1" stop-color="#FB6FBB"/>
</linearGradient>
<linearGradient id="paint63_linear" x1="3606.31" y1="3563.83" x2="3675.1" y2="3511.4" gradientUnits="userSpaceOnUse">
<stop stop-color="#FFC444"/>
<stop offset="1" stop-color="#F36F56"/>
</linearGradient>
<linearGradient id="paint64_linear" x1="3749.74" y1="1688.76" x2="3778.93" y2="1578.44" gradientUnits="userSpaceOnUse">
<stop stop-color="#FF9085"/>
<stop offset="1" stop-color="#FB6FBB"/>
</linearGradient>
<linearGradient id="paint65_linear" x1="14710.3" y1="32232.3" x2="15996.8" y2="32205" gradientUnits="userSpaceOnUse">
<stop stop-color="#311944"/>
<stop offset="1" stop-color="#893976"/>
</linearGradient>
<linearGradient id="paint66_linear" x1="39698.3" y1="38924.7" x2="38583.8" y2="44457.5" gradientUnits="userSpaceOnUse">
<stop stop-color="#FF9085"/>
<stop offset="1" stop-color="#FB6FBB"/>
</linearGradient>
<linearGradient id="paint67_linear" x1="-29758.4" y1="12966.8" x2="-30883.6" y2="14951.2" gradientUnits="userSpaceOnUse">
<stop stop-color="#FF9085"/>
<stop offset="1" stop-color="#FB6FBB"/>
</linearGradient>
<linearGradient id="paint68_linear" x1="6392.84" y1="7785.27" x2="6299.23" y2="7887.56" gradientUnits="userSpaceOnUse">
<stop stop-color="#FFC444"/>
<stop offset="1" stop-color="#F36F56"/>
</linearGradient>
<linearGradient id="paint69_linear" x1="23582" y1="28355.6" x2="22752.9" y2="31689.2" gradientUnits="userSpaceOnUse">
<stop stop-color="#FF9085"/>
<stop offset="1" stop-color="#FB6FBB"/>
</linearGradient>
<linearGradient id="paint70_linear" x1="28935.9" y1="34871.2" x2="30580.9" y2="32145.7" gradientUnits="userSpaceOnUse">
<stop stop-color="#444B8C"/>
<stop offset="1" stop-color="#26264F"/>
</linearGradient>
<linearGradient id="paint71_linear" x1="6674.65" y1="6536.15" x2="6771.8" y2="6634.12" gradientUnits="userSpaceOnUse">
<stop stop-color="#FFC444"/>
<stop offset="1" stop-color="#F36F56"/>
</linearGradient>
<linearGradient id="paint72_linear" x1="46772.7" y1="23497.1" x2="47890.4" y2="25776.3" gradientUnits="userSpaceOnUse">
<stop stop-color="#E38DDD"/>
<stop offset="1" stop-color="#9571F6"/>
</linearGradient>
<linearGradient id="paint73_linear" x1="63823.9" y1="20832.9" x2="64161.4" y2="19769.6" gradientUnits="userSpaceOnUse">
<stop stop-color="#E38DDD"/>
<stop offset="1" stop-color="#9571F6"/>
</linearGradient>
<linearGradient id="paint74_linear" x1="7631.73" y1="1143.68" x2="7641.99" y2="1153.12" gradientUnits="userSpaceOnUse">
<stop stop-color="#444B8C"/>
<stop offset="1" stop-color="#26264F"/>
</linearGradient>
<linearGradient id="paint75_linear" x1="5541.43" y1="3935.17" x2="5536.21" y2="3902.3" gradientUnits="userSpaceOnUse">
<stop stop-color="#FFC444"/>
<stop offset="1" stop-color="#F36F56"/>
</linearGradient>
<linearGradient id="paint76_linear" x1="6027.57" y1="970.658" x2="6035.84" y2="978.124" gradientUnits="userSpaceOnUse">
<stop stop-color="#444B8C"/>
<stop offset="1" stop-color="#26264F"/>
</linearGradient>
<linearGradient id="paint77_linear" x1="7363.85" y1="2004.06" x2="7373.98" y2="2014.82" gradientUnits="userSpaceOnUse">
<stop stop-color="#444B8C"/>
<stop offset="1" stop-color="#26264F"/>
</linearGradient>
<linearGradient id="paint78_linear" x1="4095.07" y1="3466.71" x2="4095.07" y2="3435.01" gradientUnits="userSpaceOnUse">
<stop stop-color="#FFC444"/>
<stop offset="1" stop-color="#F36F56"/>
</linearGradient>
<linearGradient id="paint79_linear" x1="45044.2" y1="52440.1" x2="48467.7" y2="46208.7" gradientUnits="userSpaceOnUse">
<stop stop-color="#444B8C"/>
<stop offset="1" stop-color="#26264F"/>
</linearGradient>
<linearGradient id="paint80_linear" x1="37011.6" y1="23869" x2="38463.9" y2="26134.3" gradientUnits="userSpaceOnUse">
<stop stop-color="#E38DDD"/>
<stop offset="1" stop-color="#9571F6"/>
</linearGradient>
<linearGradient id="paint81_linear" x1="5898.18" y1="1525.96" x2="5905.56" y2="1534.52" gradientUnits="userSpaceOnUse">
<stop stop-color="#444B8C"/>
<stop offset="1" stop-color="#26264F"/>
</linearGradient>
<linearGradient id="paint82_linear" x1="35219.7" y1="15316.6" x2="35424" y2="15755.7" gradientUnits="userSpaceOnUse">
<stop stop-color="#FFC444"/>
<stop offset="1" stop-color="#F36F56"/>
</linearGradient>
<linearGradient id="paint83_linear" x1="3050.25" y1="1664.11" x2="3080.84" y2="1709.12" gradientUnits="userSpaceOnUse">
<stop stop-color="#FFC444"/>
<stop offset="1" stop-color="#F36F56"/>
</linearGradient>
<linearGradient id="paint84_linear" x1="98.5297" y1="103.522" x2="101.206" y2="103.522" gradientUnits="userSpaceOnUse">
<stop stop-color="#AB316D"/>
<stop offset="1" stop-color="#792D3D"/>
</linearGradient>
<linearGradient id="paint85_linear" x1="31112.5" y1="19850.9" x2="28750.3" y2="17635" gradientUnits="userSpaceOnUse">
<stop stop-color="#FF9085"/>
<stop offset="1" stop-color="#FB6FBB"/>
</linearGradient>
<linearGradient id="paint86_linear" x1="27921.5" y1="18661.7" x2="25716.5" y2="16676.8" gradientUnits="userSpaceOnUse">
<stop stop-color="#FF9085"/>
<stop offset="1" stop-color="#FB6FBB"/>
</linearGradient>
<linearGradient id="paint87_linear" x1="5203.65" y1="4819.9" x2="5248.61" y2="4819.9" gradientUnits="userSpaceOnUse">
<stop stop-color="#AB316D"/>
<stop offset="1" stop-color="#792D3D"/>
</linearGradient>
<linearGradient id="paint88_linear" x1="87.6317" y1="111.679" x2="91.1284" y2="117.997" gradientUnits="userSpaceOnUse">
<stop stop-color="#F36F56"/>
<stop offset="1" stop-color="#FFC444"/>
</linearGradient>
<linearGradient id="paint89_linear" x1="13228.6" y1="34543.8" x2="11410.6" y2="34104.1" gradientUnits="userSpaceOnUse">
<stop stop-color="#FF9085"/>
<stop offset="1" stop-color="#FB6FBB"/>
</linearGradient>
<linearGradient id="paint90_linear" x1="4479.72" y1="2439.71" x2="4604.41" y2="2715.41" gradientUnits="userSpaceOnUse">
<stop stop-color="#F36F56"/>
<stop offset="1" stop-color="#FFC444"/>
</linearGradient>
<linearGradient id="paint91_linear" x1="5192.24" y1="2936.89" x2="5161.39" y2="2750.89" gradientUnits="userSpaceOnUse">
<stop stop-color="#F36F56"/>
<stop offset="1" stop-color="#FFC444"/>
</linearGradient>
<linearGradient id="paint92_linear" x1="35994.4" y1="10442.7" x2="35111.9" y2="11838.9" gradientUnits="userSpaceOnUse">
<stop stop-color="#E38DDD"/>
<stop offset="1" stop-color="#9571F6"/>
</linearGradient>
<linearGradient id="paint93_linear" x1="58832.6" y1="23203.9" x2="56458.6" y2="29140.1" gradientUnits="userSpaceOnUse">
<stop stop-color="#E38DDD"/>
<stop offset="1" stop-color="#9571F6"/>
</linearGradient>
<linearGradient id="paint94_linear" x1="10759.2" y1="2191.35" x2="10766.6" y2="2352.23" gradientUnits="userSpaceOnUse">
<stop stop-color="#F36F56"/>
<stop offset="1" stop-color="#FFC444"/>
</linearGradient>
<linearGradient id="paint95_linear" x1="6435.38" y1="2869.07" x2="6468.35" y2="2772.27" gradientUnits="userSpaceOnUse">
<stop stop-color="#FF9085"/>
<stop offset="1" stop-color="#FB6FBB"/>
</linearGradient>
<linearGradient id="paint96_linear" x1="11242.9" y1="2508.94" x2="11294.3" y2="2560.72" gradientUnits="userSpaceOnUse">
<stop stop-color="#F36F56"/>
<stop offset="1" stop-color="#FFC444"/>
</linearGradient>
<linearGradient id="paint97_linear" x1="38870.7" y1="19089" x2="36597.5" y2="23654.8" gradientUnits="userSpaceOnUse">
<stop stop-color="#E38DDD"/>
<stop offset="1" stop-color="#9571F6"/>
</linearGradient>
<linearGradient id="paint98_linear" x1="62732.5" y1="39338.2" x2="71908.5" y2="42319.8" gradientUnits="userSpaceOnUse">
<stop stop-color="#FF9085"/>
<stop offset="1" stop-color="#FB6FBB"/>
</linearGradient>
<linearGradient id="paint99_linear" x1="11288.5" y1="11043.4" x2="11557.7" y2="11043.4" gradientUnits="userSpaceOnUse">
<stop stop-color="#444B8C"/>
<stop offset="1" stop-color="#26264F"/>
</linearGradient>
<clipPath id="clip0">
<rect width="351.756" height="250" fill="white" transform="translate(0.195679)"/>
</clipPath>
</defs>
</svg>
