<svg width="51" height="46" viewBox="0 0 51 46" fill="none" xmlns="http://www.w3.org/2000/svg">
<path d="M41.6566 15.4544C41.1188 15.2728 40.5809 15.1013 40.043 14.94C40.1326 14.5668 40.2123 14.1936 40.292 13.8204C41.5172 7.80882 40.7104 2.97739 37.991 1.38373C35.3713 -0.139332 31.098 1.44425 26.775 5.25694C26.3467 5.63014 25.9283 6.02351 25.5299 6.41688C25.2609 6.15464 24.982 5.89239 24.7031 5.64022C20.1709 1.56528 15.6287 -0.149419 12.9094 1.45433C10.2996 2.98748 9.52266 7.53648 10.6184 13.2253C10.7279 13.7901 10.8475 14.3449 10.9869 14.9097C10.3494 15.0913 9.72187 15.293 9.13418 15.5048C3.81504 17.3708 0 20.3161 0 23.3622C0 26.5092 4.06406 29.6662 9.59238 31.5827C10.0406 31.734 10.4889 31.8853 10.9471 32.0164C10.7977 32.6216 10.6682 33.2167 10.5486 33.832C9.50273 39.43 10.3195 43.868 12.9293 45.3911C15.6188 46.9646 20.141 45.3507 24.5437 41.4472C24.8924 41.1346 25.241 40.8118 25.5896 40.4689C26.0279 40.9026 26.4861 41.3161 26.9443 41.7196C31.2076 45.4314 35.4211 46.9343 38.0209 45.4112C40.7104 43.8377 41.5869 39.0668 40.4514 33.257C40.3617 32.8132 40.2621 32.3593 40.1525 31.8953C40.4713 31.8046 40.7801 31.7037 41.0889 31.6028C46.8363 29.6763 51 26.5596 51 23.3622C51 20.306 47.0754 17.3405 41.6566 15.4544V15.4544ZM28.1795 6.89095C31.885 3.62293 35.3414 2.34194 36.9152 3.25981C38.5986 4.2382 39.2461 8.19211 38.1902 13.3866C38.1205 13.7296 38.0508 14.0624 37.9611 14.3953C35.7498 13.891 33.5086 13.5279 31.2574 13.3261C29.9625 11.45 28.548 9.65465 27.0141 7.9702C27.4025 7.597 27.7811 7.24398 28.1795 6.89095V6.89095ZM16.6547 28.5971C17.1627 29.4746 17.6807 30.3521 18.2285 31.2095C16.6746 31.038 15.1307 30.7858 13.6066 30.453C14.0449 29.0005 14.5928 27.4976 15.2303 25.9645C15.6885 26.8521 16.1566 27.7296 16.6547 28.5971V28.5971ZM13.6365 16.463C15.0709 16.1403 16.5949 15.878 18.1787 15.6763C17.6508 16.5135 17.1328 17.3708 16.6447 18.2382C16.1566 19.0956 15.6785 19.9731 15.2303 20.8607C14.6027 19.3578 14.0748 17.8852 13.6365 16.463ZM16.3658 23.4126C17.0232 22.0207 17.7404 20.659 18.4975 19.3175C19.2545 17.976 20.0713 16.6748 20.9279 15.3939C22.4221 15.2829 23.9461 15.2224 25.5 15.2224C27.0539 15.2224 28.5879 15.2829 30.0721 15.3939C30.9187 16.6648 31.7256 17.9659 32.4926 19.2973C33.2596 20.6287 33.9768 21.9904 34.6541 23.3723C33.9867 24.7642 33.2695 26.136 32.5025 27.4876C31.7455 28.8291 30.9387 30.1302 30.092 31.4213C28.6078 31.5322 27.0639 31.5827 25.5 31.5827C23.9361 31.5827 22.4221 31.5322 20.9578 31.4415C20.0912 30.1605 19.2744 28.8492 18.5074 27.5077C17.7404 26.1662 17.0332 24.8045 16.3658 23.4126ZM34.3553 28.5769C34.8633 27.6893 35.3414 26.7916 35.8096 25.8838C36.4471 27.3463 37.0049 28.8291 37.493 30.3521C35.949 30.7051 34.3852 30.9775 32.8113 31.159C33.3492 30.3118 33.8572 29.4443 34.3553 28.5769ZM35.7896 20.8607C35.3215 19.9731 34.8434 19.0855 34.3453 18.2181C33.8572 17.3607 33.3492 16.5135 32.8213 15.6763C34.425 15.878 35.959 16.1503 37.3934 16.4832C36.9352 17.976 36.3973 19.4285 35.7896 20.8607V20.8607ZM25.5199 9.51344C26.5658 10.6633 27.552 11.8737 28.4684 13.1244C26.4961 13.0336 24.5139 13.0336 22.5416 13.1244C23.5178 11.8232 24.5238 10.6129 25.5199 9.51344ZM13.9652 3.33042C15.6387 2.34194 19.3541 3.75405 23.2688 7.26415C23.5178 7.48605 23.7668 7.72813 24.0258 7.9702C22.4818 9.65465 21.0574 11.45 19.7525 13.3261C17.5014 13.5279 15.2701 13.8809 13.0588 14.3751C12.9293 13.8607 12.8197 13.3362 12.7102 12.8117C11.7738 7.92986 12.3914 4.24829 13.9652 3.33042V3.33042ZM11.5248 29.9184C11.1064 29.7974 10.698 29.6662 10.2896 29.525C8.16797 28.8492 5.75742 27.7801 4.01426 26.378C3.0082 25.672 2.33086 24.5826 2.1416 23.3622C2.1416 21.5164 5.28926 19.1561 9.83145 17.5524C10.3992 17.3506 10.977 17.1691 11.5547 16.9976C12.232 19.1864 13.0488 21.3348 13.9951 23.4126C13.0389 25.5207 12.2121 27.6994 11.5248 29.9184V29.9184ZM23.1393 39.8032C21.4957 41.3262 19.5932 42.5366 17.5213 43.3637C16.4156 43.8983 15.1406 43.9487 14.0051 43.4948C12.4213 42.5669 11.7639 39.0063 12.6604 34.2152C12.7699 33.6504 12.8895 33.0856 13.0289 32.5308C15.2602 33.0149 17.5113 33.3478 19.7924 33.5193C21.1072 35.4054 22.5516 37.2109 24.0955 38.9055C23.7768 39.2181 23.458 39.5207 23.1393 39.8032ZM25.5797 37.3521C24.5637 36.2426 23.5477 35.0121 22.5615 33.6907C23.5178 33.7311 24.5039 33.7513 25.5 33.7513C26.526 33.7513 27.532 33.7311 28.5281 33.6807C27.6117 34.9616 26.6256 36.1821 25.5797 37.3521V37.3521ZM38.5986 40.3781C38.509 41.6086 37.9113 42.7585 36.9551 43.5352C35.3713 44.4631 31.9945 43.2527 28.3488 40.0856C27.9305 39.7225 27.5121 39.3291 27.0838 38.9256C28.6078 37.221 30.0123 35.4155 31.2873 33.5193C33.5684 33.3276 35.8395 32.9746 38.0807 32.4602C38.1803 32.8737 38.2699 33.2873 38.3496 33.6907C38.8377 35.8694 38.9174 38.1389 38.5986 40.3781V40.3781ZM40.4115 29.5351C40.1326 29.6259 39.8537 29.7167 39.5648 29.7974C38.8676 27.5985 38.0109 25.4501 37.0248 23.3622C37.9811 21.3045 38.7879 19.1864 39.4652 17.0178C39.9832 17.1691 40.4813 17.3305 40.9594 17.4918C45.6012 19.1057 48.8584 21.5063 48.8584 23.342C48.8584 25.319 45.382 27.8708 40.4115 29.5351ZM25.5 28.0221C28.0201 28.0221 30.0621 25.9544 30.0621 23.4025C30.0621 20.8506 28.0201 18.7829 25.5 18.7829C22.9799 18.7829 20.9379 20.8506 20.9379 23.4025C20.9379 25.9544 22.9799 28.0221 25.5 28.0221Z" fill="#CBCDD0"/>
</svg>
