<svg width="57" height="46" viewBox="0 0 57 46" fill="none" xmlns="http://www.w3.org/2000/svg">
<path d="M26.8826 34.0436C26.8559 34.0975 26.8292 34.1406 26.8826 34.0436V34.0436ZM49.0708 26.2272C47.2795 26.2266 45.512 26.6416 43.9051 27.4401C43.3797 26.3709 42.8364 25.4366 42.7473 24.7358C42.6404 23.9182 42.5247 23.433 42.6493 22.4627C42.774 21.4924 43.3351 20.1178 43.3262 20.019C43.3173 19.9201 43.2015 19.426 42.0526 19.417C40.9037 19.408 39.9151 19.6416 39.8002 19.9471C39.5973 20.5053 39.4395 21.0792 39.3282 21.6631C39.1234 22.7143 37.0313 26.4698 35.8468 28.4284C35.4549 27.6647 35.1253 26.9908 35.0541 26.4518C34.9472 25.6342 34.8314 25.1491 34.9561 24.1787C35.0808 23.2084 35.6419 21.8338 35.633 21.735C35.6241 21.6362 35.5083 21.142 34.3603 21.133C33.2123 21.1241 32.2228 21.3576 32.107 21.6631C31.9912 21.9686 31.8666 22.6873 31.635 23.3791C31.4034 24.0709 28.6167 30.3241 27.8872 31.9502C27.5132 32.7768 27.1926 33.4416 26.961 33.8908C26.9254 33.9627 26.8986 34.0076 26.8808 34.0436C26.9076 33.9987 26.9254 33.9537 26.9254 33.9717C26.7294 34.358 26.6136 34.5737 26.6136 34.5737V34.5826C26.4622 34.8701 26.293 35.1307 26.2129 35.1307C26.1594 35.1307 26.0436 34.376 26.2396 33.3428C26.6582 31.1686 27.6468 27.7905 27.6379 27.6737C27.629 27.6108 27.8249 27.0268 26.9877 26.7123C26.1772 26.4158 25.8833 26.91 25.8121 26.91C25.7408 26.91 25.6874 27.0897 25.6874 27.0897C25.6874 27.0897 26.5869 23.2803 23.9605 23.2803C22.3217 23.2803 20.0417 25.0951 18.9213 26.7393C18.2177 27.1256 16.6948 27.9612 15.0916 28.8506C14.4771 29.192 13.8448 29.5424 13.248 29.8748C13.2035 29.8299 13.1679 29.785 13.1233 29.7401C9.9358 26.308 4.05055 23.8823 4.29993 19.2733C4.38899 17.5932 4.96789 13.1819 15.6171 7.82717C24.3452 3.4428 31.3233 4.6467 32.5247 7.32405C34.2525 11.1424 28.7939 18.2491 19.73 19.2733C16.2753 19.6596 14.4593 18.3119 14.0051 17.8088C13.533 17.2787 13.4618 17.2518 13.2837 17.3506C12.9898 17.5123 13.1768 17.9795 13.2837 18.258C13.5508 18.9678 14.6641 20.2256 16.5603 20.8545C18.2257 21.4026 22.2763 21.708 27.1738 19.7944C32.6761 17.6561 36.9591 11.6994 35.7034 6.71311C34.4244 1.64592 26.0953 -0.0161871 18.2195 2.80491C13.5268 4.48499 8.45202 7.12639 4.80135 10.5674C0.464894 14.6643 -0.228903 18.2311 0.0560972 19.7225C1.07052 25.0143 8.30061 28.4643 11.1943 31.0158C11.0518 31.0967 10.9182 31.1686 10.7935 31.2405C9.34264 31.9682 3.83057 34.8791 2.45099 37.9518C0.892394 41.4377 2.70927 43.9354 3.90182 44.2768C7.62374 45.319 11.4347 43.4412 13.4823 40.3596C15.5298 37.278 15.2813 33.253 14.3373 31.4201C14.3284 31.3932 14.3106 31.3752 14.3016 31.3483C14.6757 31.1237 15.0587 30.8991 15.4416 30.6744C16.18 30.2342 16.9014 29.8299 17.5337 29.4795C17.1775 30.4498 16.9192 31.6178 16.7856 33.3069C16.6253 35.2834 17.4358 37.844 18.4867 38.8502C18.9498 39.2905 19.51 39.2994 19.8574 39.2994C21.0864 39.2994 21.6386 38.2752 22.2523 37.0534C23.0093 35.5619 23.6773 33.828 23.6773 33.828C23.6773 33.828 22.8401 38.5178 25.129 38.5178C25.9653 38.5178 26.8025 37.4307 27.1774 36.8737V36.8826C27.1774 36.8826 27.1952 36.8467 27.2398 36.7748C27.3288 36.6401 27.3733 36.5592 27.3733 36.5592V36.5323C27.7118 35.9483 28.451 34.6096 29.5634 32.3994C31.0062 29.5424 32.3858 25.9756 32.3858 25.9756C32.5191 26.7597 32.7036 27.534 32.938 28.2936C33.1873 29.1471 33.7128 30.0815 34.1314 30.9889C33.793 31.4561 33.5881 31.7256 33.5881 31.7256C33.5888 31.7325 33.592 31.7389 33.597 31.7436C33.3298 32.103 33.027 32.4893 32.7153 32.8666C31.5762 34.2323 30.2216 35.7955 30.0434 36.2448C29.8297 36.7748 29.8831 37.1701 30.2928 37.4756C30.5956 37.7092 31.13 37.7451 31.6902 37.7002C32.7144 37.6284 33.4358 37.3768 33.7832 37.2151C34.4235 36.9834 35.0287 36.6629 35.5813 36.2627C36.6946 35.4362 37.3715 34.2502 37.3092 32.6869C37.2735 31.8244 36.9974 30.9619 36.659 30.1533C36.757 30.0096 36.8638 29.8569 36.9618 29.7041C38.7244 27.1076 40.087 24.2578 40.087 24.2578C40.2203 25.0419 40.4048 25.8162 40.6392 26.5758C40.853 27.3035 41.2707 28.1031 41.6536 28.8848C39.998 30.2414 38.9737 31.8137 38.6175 32.8469C37.9584 34.7605 38.475 35.623 39.4458 35.8207C39.8822 35.9105 40.5056 35.7039 40.9687 35.5062C41.6565 35.2751 42.3051 34.9388 42.8916 34.509C44.0049 33.6824 45.0816 32.5234 45.0104 30.9512C44.9837 30.2414 44.7877 29.5316 44.5295 28.8488C45.9277 28.2558 47.7437 27.9324 50.0594 28.2019C55.0184 28.7859 55.9891 31.9125 55.8021 33.2152C55.6151 34.518 54.573 35.2457 54.2257 35.4613C53.8783 35.6769 53.7715 35.7578 53.7982 35.9195C53.8427 36.1531 54.003 36.1441 54.2969 36.0902C54.7066 36.0184 56.8967 35.0301 56.9946 32.6133C57.1371 29.5586 54.2257 26.1984 49.0681 26.2254L49.0708 26.2272ZM10.8469 39.2276C9.20905 41.0334 6.91124 41.7162 5.92354 41.1412C4.86369 40.5195 5.28228 37.8619 7.30311 35.9375C8.53218 34.7695 10.1166 33.6914 11.1675 33.0266C11.408 32.8828 11.7553 32.6672 12.1828 32.4066C12.2541 32.3617 12.2897 32.3437 12.2897 32.3437C12.3699 32.2898 12.4589 32.2449 12.548 32.191C13.2863 34.9223 12.5747 37.3301 10.8469 39.2258V39.2276ZM22.8133 31.0158C22.2433 32.4264 21.0419 36.0201 20.3116 35.8315C19.6881 35.6698 19.3052 32.9295 20.1869 30.2342C20.6322 28.8776 21.5763 27.2604 22.1374 26.6315C23.036 25.6162 24.0246 25.2928 24.2562 25.6971C24.5679 26.2272 23.1696 30.1354 22.8133 31.0158ZM32.6993 35.7776C32.4588 35.9034 32.2362 35.9842 32.1293 35.9213C32.0491 35.8764 32.2273 35.7057 32.2273 35.7057C32.2273 35.7057 33.4652 34.367 33.9551 33.7561C34.2401 33.3967 34.5696 32.9744 34.925 32.5073C34.925 32.5522 34.9339 32.5971 34.9339 32.651C34.9223 34.2592 33.3913 35.3463 32.6966 35.7776H32.6993ZM40.3213 34.0256C40.1431 33.8998 40.1698 33.4776 40.7666 32.1658C40.9981 31.6537 41.5316 30.7912 42.4588 29.9647C42.5637 30.2776 42.6208 30.6048 42.628 30.935C42.6191 32.9565 41.1852 33.7112 40.3221 34.0256H40.3213Z" fill="#CBCDD0"/>
</svg>
