<svg width="138" height="124" viewBox="0 0 138 124" fill="none" xmlns="http://www.w3.org/2000/svg">
<path d="M135.703 114.537C123.812 107.546 113.977 97.4006 101.023 92.1015C98.4656 91.1022 96.9629 94.1683 97.7196 95.8929C98.8074 98.2157 100.083 101.595 101.742 104.586C94.8994 103.082 87.9493 103.55 80.8135 102.963C74.1563 102.515 68.2309 99.7767 63.15 96.0335C65.0246 95.0803 66.7317 93.8268 68.6793 92.6446C82.416 82.3924 102.079 41.3144 78.1574 31.0492C64.6326 25.0824 46.2301 38.4761 41.6345 50.4048C35.5558 66.1569 41.2833 82.6132 52.3543 94.624C45.4438 96.6067 37.9228 96.4064 30.3626 94.692C14.5977 90.8249 6.7428 77.7525 5.72541 62.9265C3.91577 35.8459 22.6571 5.01821 52.9213 3.6163C54.2637 3.5086 54.8488 1.67632 53.4139 1.25585C19.0679 -8.30679 -1.30103 39.0763 0.0645964 64.2738C1.6016 93.0277 32.1317 107.985 57.2897 98.8249C58.7441 100.003 60.3646 101.479 62.132 102.497C73.8949 110.703 87.5893 107.953 100.703 110.293C98.0782 112.78 95.3799 115.496 92.1099 117.544C89.7776 119.115 90.1147 122.971 93.5167 122.965C107.602 123.085 121.633 124.191 135.05 119.856C137.163 118.972 138.188 115.766 135.703 114.537ZM58.6945 91.9725C56.3367 89.5284 54.0519 86.8551 52.3187 84.0933C40.0611 65.974 45.5721 40.5371 69.6518 35.5699C80.8282 33.3341 82.743 46.1686 82.3885 53.829C81.9656 64.9766 76.4866 76.3963 68.869 84.6844C65.5461 87.7184 62.203 89.995 58.6945 91.9725ZM109.401 110.086C109.64 110.156 110.026 109.768 110.099 109.539C110.186 106.809 108.692 104.118 106.96 101.356C113.954 105.659 120.104 110.968 127.025 115.501C118.681 117.063 110.056 117.041 101.193 116.949C103.433 114.85 105.434 112.68 108.245 111.25C108.869 110.932 109.255 110.544 109.401 110.086Z" fill="#DBD8D8"/>
</svg>
