<svg width="282" height="282" viewBox="0 0 282 282" fill="none" xmlns="http://www.w3.org/2000/svg">
<g clip-path="url(#clip0)">
<path d="M230.662 221.46C212.921 210.569 198.246 194.762 178.918 186.506C175.102 184.949 172.86 189.726 173.989 192.413C175.612 196.032 177.515 201.297 179.991 205.957C169.781 203.614 159.411 204.343 148.764 203.428C138.831 202.73 129.99 198.464 122.409 192.632C125.206 191.147 127.753 189.194 130.659 187.352C151.155 171.379 180.493 107.379 144.801 91.3857C124.621 82.0895 97.1634 102.957 90.3065 121.542C81.2366 146.084 89.7824 171.723 106.301 190.436C95.9901 193.525 84.7683 193.213 73.4881 190.542C49.9658 184.517 38.2458 164.15 36.7278 141.051C34.0277 98.8591 61.991 50.8292 107.147 48.645C109.15 48.4772 110.023 45.6225 107.882 44.9674C56.6356 30.0687 26.2439 103.892 28.2815 143.15C30.5748 187.949 76.1277 211.253 113.665 196.981C115.835 198.816 118.253 201.116 120.89 202.703C138.441 215.488 158.874 211.203 178.441 214.849C174.524 218.724 170.498 222.955 165.619 226.146C162.139 228.593 162.642 234.601 167.718 234.592C188.734 234.778 209.67 236.501 229.688 229.747C232.841 228.371 234.37 223.375 230.662 221.46ZM115.761 186.305C112.243 182.497 108.834 178.332 106.248 174.029C87.9588 145.799 96.1816 106.168 132.11 98.4291C148.786 94.9457 151.643 114.942 151.114 126.877C150.483 144.245 142.308 162.037 130.942 174.95C125.984 179.677 120.996 183.224 115.761 186.305ZM191.418 214.526C191.775 214.635 192.351 214.031 192.46 213.674C192.59 209.421 190.361 205.227 187.776 200.924C198.212 207.629 207.388 215.9 217.715 222.962C205.264 225.396 192.396 225.362 179.172 225.218C182.514 221.948 185.499 218.568 189.693 216.339C190.625 215.844 191.2 215.24 191.418 214.526Z" fill="#DBD8D8"/>
</g>
<defs>
<clipPath id="clip0">
<rect width="225.556" height="225.556" fill="white" transform="translate(65.9909) rotate(17.0119)"/>
</clipPath>
</defs>
</svg>
