<svg width="326" height="288" viewBox="0 0 326 288" fill="none" xmlns="http://www.w3.org/2000/svg">
<path d="M69.4902 222.932L69.9824 226.307L70.7031 223.266L75.7656 205.406H78.6133L83.5527 223.266L84.2559 226.359L84.8008 222.914L88.7734 205.406H92.166L85.9609 231H82.8848L77.6113 212.35L77.207 210.398L76.8027 212.35L71.3359 231H68.2598L62.0723 205.406H65.4473L69.4902 222.932ZM102.748 231.352C100.17 231.352 98.0723 230.508 96.4551 228.82C94.8379 227.121 94.0293 224.854 94.0293 222.018V221.42C94.0293 219.533 94.3867 217.852 95.1016 216.375C95.8281 214.887 96.8359 213.727 98.125 212.895C99.4258 212.051 100.832 211.629 102.344 211.629C104.816 211.629 106.738 212.443 108.109 214.072C109.48 215.701 110.166 218.033 110.166 221.068V222.422H97.2812C97.3281 224.297 97.873 225.814 98.916 226.975C99.9707 228.123 101.307 228.697 102.924 228.697C104.072 228.697 105.045 228.463 105.842 227.994C106.639 227.525 107.336 226.904 107.934 226.131L109.92 227.678C108.326 230.127 105.936 231.352 102.748 231.352ZM102.344 214.301C101.031 214.301 99.9297 214.781 99.0391 215.742C98.1484 216.691 97.5977 218.027 97.3867 219.75H106.914V219.504C106.82 217.852 106.375 216.574 105.578 215.672C104.781 214.758 103.703 214.301 102.344 214.301ZM125.688 231C125.5 230.625 125.348 229.957 125.23 228.996C123.719 230.566 121.914 231.352 119.816 231.352C117.941 231.352 116.4 230.824 115.193 229.77C113.998 228.703 113.4 227.355 113.4 225.727C113.4 223.746 114.15 222.211 115.65 221.121C117.162 220.02 119.283 219.469 122.014 219.469H125.178V217.975C125.178 216.838 124.838 215.936 124.158 215.268C123.479 214.588 122.477 214.248 121.152 214.248C119.992 214.248 119.02 214.541 118.234 215.127C117.449 215.713 117.057 216.422 117.057 217.254H113.787C113.787 216.305 114.121 215.391 114.789 214.512C115.469 213.621 116.383 212.918 117.531 212.402C118.691 211.887 119.963 211.629 121.346 211.629C123.537 211.629 125.254 212.18 126.496 213.281C127.738 214.371 128.383 215.877 128.43 217.799V226.553C128.43 228.299 128.652 229.688 129.098 230.719V231H125.688ZM120.291 228.521C121.311 228.521 122.277 228.258 123.191 227.73C124.105 227.203 124.768 226.518 125.178 225.674V221.771H122.629C118.645 221.771 116.652 222.938 116.652 225.27C116.652 226.289 116.992 227.086 117.672 227.66C118.352 228.234 119.225 228.521 120.291 228.521ZM137.939 207.375V211.98H141.49V214.494H137.939V226.289C137.939 227.051 138.098 227.625 138.414 228.012C138.73 228.387 139.27 228.574 140.031 228.574C140.406 228.574 140.922 228.504 141.578 228.363V231C140.723 231.234 139.891 231.352 139.082 231.352C137.629 231.352 136.533 230.912 135.795 230.033C135.057 229.154 134.688 227.906 134.688 226.289V214.494H131.225V211.98H134.688V207.375H137.939ZM148.557 214.283C149.998 212.514 151.873 211.629 154.182 211.629C158.201 211.629 160.229 213.896 160.264 218.432V231H157.012V218.414C157 217.043 156.684 216.029 156.062 215.373C155.453 214.717 154.498 214.389 153.197 214.389C152.143 214.389 151.217 214.67 150.42 215.232C149.623 215.795 149.002 216.533 148.557 217.447V231H145.305V204H148.557V214.283ZM173.025 231.352C170.447 231.352 168.35 230.508 166.732 228.82C165.115 227.121 164.307 224.854 164.307 222.018V221.42C164.307 219.533 164.664 217.852 165.379 216.375C166.105 214.887 167.113 213.727 168.402 212.895C169.703 212.051 171.109 211.629 172.621 211.629C175.094 211.629 177.016 212.443 178.387 214.072C179.758 215.701 180.443 218.033 180.443 221.068V222.422H167.559C167.605 224.297 168.15 225.814 169.193 226.975C170.248 228.123 171.584 228.697 173.201 228.697C174.35 228.697 175.322 228.463 176.119 227.994C176.916 227.525 177.613 226.904 178.211 226.131L180.197 227.678C178.604 230.127 176.213 231.352 173.025 231.352ZM172.621 214.301C171.309 214.301 170.207 214.781 169.316 215.742C168.426 216.691 167.875 218.027 167.664 219.75H177.191V219.504C177.098 217.852 176.652 216.574 175.855 215.672C175.059 214.758 173.98 214.301 172.621 214.301ZM193.416 214.898C192.924 214.816 192.391 214.775 191.816 214.775C189.684 214.775 188.236 215.684 187.475 217.5V231H184.223V211.98H187.387L187.439 214.178C188.506 212.479 190.018 211.629 191.975 211.629C192.607 211.629 193.088 211.711 193.416 211.875V214.898Z" fill="#7C7979"/>
<path d="M211.064 224.32H200.342L197.934 231H194.453L204.227 205.406H207.18L216.971 231H213.508L211.064 224.32ZM201.361 221.543H210.062L205.703 209.572L201.361 221.543ZM223.791 220.98V231H220.416V205.406H229.855C232.656 205.406 234.848 206.121 236.43 207.551C238.023 208.98 238.82 210.873 238.82 213.229C238.82 215.713 238.041 217.629 236.482 218.977C234.936 220.312 232.715 220.98 229.82 220.98H223.791ZM223.791 218.221H229.855C231.66 218.221 233.043 217.799 234.004 216.955C234.965 216.1 235.445 214.869 235.445 213.264C235.445 211.74 234.965 210.521 234.004 209.607C233.043 208.693 231.725 208.219 230.049 208.184H223.791V218.221ZM246.502 220.98V231H243.127V205.406H252.566C255.367 205.406 257.559 206.121 259.141 207.551C260.734 208.98 261.531 210.873 261.531 213.229C261.531 215.713 260.752 217.629 259.193 218.977C257.646 220.312 255.426 220.98 252.531 220.98H246.502ZM246.502 218.221H252.566C254.371 218.221 255.754 217.799 256.715 216.955C257.676 216.1 258.156 214.869 258.156 213.264C258.156 211.74 257.676 210.521 256.715 209.607C255.754 208.693 254.436 208.219 252.76 208.184H246.502V218.221Z" fill="#CF3D3D"/>
<path d="M155.875 109C169.648 109 180.812 120.165 180.812 133.938C180.812 134.069 180.812 134.201 180.81 134.332C180.792 135.443 181.295 136.499 182.168 137.186C183.041 137.874 184.184 138.114 185.26 137.837C186.112 137.618 187.008 137.5 187.938 137.5C193.84 137.5 198.625 142.285 198.625 148.188C198.625 154.09 193.84 158.875 187.938 158.875H127.375C119.505 158.875 113.125 152.495 113.125 144.625C113.125 136.755 119.505 130.375 127.375 130.375C127.615 130.375 127.854 130.381 128.092 130.393C129.782 130.476 131.297 129.359 131.718 127.72C134.48 116.954 144.253 109 155.875 109ZM187.742 130.376C185.97 114.345 172.379 101.875 155.875 101.875C141.885 101.875 129.994 110.833 125.613 123.322C114.632 124.218 106 133.413 106 144.625C106 156.43 115.57 166 127.375 166H187.938C197.775 166 205.75 158.025 205.75 148.188C205.75 138.35 197.775 130.375 187.938 130.375C187.872 130.375 187.807 130.375 187.742 130.376Z" fill="#CF3D3D"/>
<path d="M180.813 62.6875C180.813 60.72 179.217 59.125 177.25 59.125C175.282 59.125 173.688 60.72 173.688 62.6875V69.8125C173.688 71.78 175.282 73.375 177.25 73.375C179.217 73.375 180.813 71.78 180.813 69.8125V62.6875ZM207.479 76.6842C208.87 75.293 208.87 73.0373 207.479 71.6461C206.087 70.2548 203.832 70.2548 202.441 71.6461L197.403 76.6842C196.011 78.0755 196.011 80.3311 197.403 81.7223C198.794 83.1136 201.049 83.1136 202.441 81.7223L207.479 76.6842ZM152.059 71.6461C150.668 70.2548 148.413 70.2548 147.021 71.6461C145.63 73.0373 145.63 75.293 147.021 76.6842L152.059 81.7224C153.451 83.1136 155.706 83.1136 157.098 81.7224C158.489 80.3311 158.489 78.0755 157.098 76.6842L152.059 71.6461ZM164.412 95.6824C166.716 90.9142 171.599 87.625 177.25 87.625C185.12 87.625 191.5 94.0048 191.5 101.875C191.5 105.51 190.139 108.828 187.898 111.346C189.313 113.348 190.545 115.489 191.569 117.745C195.902 113.833 198.625 108.172 198.625 101.875C198.625 90.0697 189.055 80.4999 177.25 80.4999C167.936 80.4999 160.014 86.4568 157.085 94.7683C159.594 94.8445 162.043 95.1562 164.412 95.6824ZM196.363 124.709C200.638 126.243 204.372 128.912 207.203 132.352C207.298 132.275 207.39 132.192 207.479 132.104C208.87 130.712 208.87 128.457 207.479 127.066L202.441 122.027C201.049 120.636 198.794 120.636 197.403 122.027C196.665 122.765 196.319 123.744 196.363 124.709ZM209.313 98.3125C207.345 98.3125 205.75 99.9073 205.75 101.875C205.75 103.842 207.345 105.437 209.313 105.437H216.438C218.405 105.437 220 103.842 220 101.875C220 99.9073 218.405 98.3125 216.438 98.3125H209.313Z" fill="#CF3D3D"/>
</svg>
